<?xml version="1.0" standalone="no"?>
<!DOCTYPE svg PUBLIC "-//W3C//DTD SVG 1.0//EN" "http://www.w3.org/TR/2001/REC-SVG-20010904/DTD/svg10.dtd">
<svg xmlns="http://www.w3.org/2000/svg" xmlns:xlink="http://www.w3.org/1999/xlink" id="body_1" width="192" height="192">

<g transform="matrix(4 0 0 4 0 0)">
	<g>
        <path d="M41.5478 47.9917C 40.054 47.9919 38.6063 47.4702 37.4515 46.5156C 36.2967 45.561 35.5062 44.2325 35.2149 42.7567C 34.9235 41.2808 35.1491 39.7487 35.8535 38.4217C 36.5578 37.0946 37.6971 36.0547 39.0774 35.479C 40.4576 34.9034 41.9933 34.8276 43.4227 35.2648C 44.8521 35.7019 46.0869 36.6248 46.9165 37.8762C 47.7461 39.1276 48.1193 40.6301 47.9723 42.1276C 47.8254 43.6251 47.1676 45.025 46.1108 46.0886C 45.5128 46.6938 44.8016 47.1735 44.0184 47.5002C 43.2352 47.8269 42.3955 47.9939 41.5478 47.9917z" stroke="none" fill="#F8B400" fill-rule="nonzero" />
        <path d="M6.46067 13.3136C 5.18373 13.3131 3.93556 12.9315 2.87381 12.2169C 1.81205 11.5023 0.984339 10.4868 0.495205 9.29857C 0.00607165 8.11038 -0.122542 6.80283 0.125608 5.54105C 0.373759 4.27928 0.987542 3.11988 1.88944 2.20929C 3.10092 0.989534 4.74369 0.304337 6.45656 0.304337C 8.16944 0.304337 9.8122 0.989534 11.0237 2.20929C 11.6237 2.81328 12.0998 3.53046 12.4245 4.31985C 12.7493 5.10925 12.9165 5.95537 12.9165 6.80987C 12.9165 7.66437 12.7493 8.5105 12.4245 9.29989C 12.0998 10.0893 11.6237 10.8065 11.0237 11.4105C 10.4261 12.0162 9.71496 12.4963 8.93166 12.823C 8.14836 13.1497 7.30845 13.3165 6.46067 13.3136z" stroke="none" fill="#F8B400" fill-rule="nonzero" />
        <path d="M41.2561 13.1191C 39.9791 13.1187 38.731 12.737 37.6692 12.0224C 36.6075 11.3078 35.7797 10.2923 35.2906 9.10412C 34.8015 7.91593 34.6729 6.60838 34.921 5.3466C 35.1692 4.08483 35.783 2.92543 36.6848 2.01483C 37.4355 1.25691 38.3602 0.697258 39.377 0.385484C 40.3938 0.0737105 41.4713 0.0194478 42.5138 0.227506C 43.5564 0.435564 44.532 0.899517 45.3539 1.57824C 46.1759 2.25695 46.819 3.12947 47.2261 4.11845C 47.6332 5.10742 47.7919 6.1823 47.6879 7.24781C 47.5839 8.31331 47.2206 9.33652 46.6302 10.2267C 46.0397 11.1169 45.2403 11.8467 44.3029 12.3512C 43.3655 12.8557 42.3189 13.1195 41.2561 13.1191z" stroke="none" fill="#F8B400" fill-rule="nonzero" />
        <path d="M6.62888 47.9917C 5.3524 47.9924 4.10436 47.612 3.04246 46.8984C 1.98057 46.1849 1.15248 45.1702 0.662836 43.9828C 0.173193 42.7953 0.043973 41.4883 0.291504 40.2269C 0.539035 38.9654 1.15221 37.8062 2.05354 36.8957C 2.3316 36.617 2.63711 36.3675 2.96532 36.151C 3.07621 36.0724 3.17479 36.0104 3.28157 35.9483C 3.51978 35.8076 3.758 35.6835 3.97978 35.5801C 4.103 35.5263 4.22621 35.4684 4.35764 35.4187C 4.61809 35.3189 4.88414 35.2347 5.15442 35.1664L5.15442 35.1664L5.31871 35.1209L5.41728 35.096L6.85477 34.9967C 7.03548 34.9967 7.23263 35.0257 7.43798 35.0547L7.43798 35.0547L7.52013 35.0547L7.70084 35.0547L7.75834 35.0547L7.82405 35.0547L7.88155 35.0547L8.1978 35.0547C 9.45122 35.0446 10.6901 34.7833 11.8423 34.2861C 12.9945 33.7889 14.0369 33.0657 14.9088 32.1586C 15.7847 31.261 16.4738 30.1964 16.9357 29.027C 17.3977 27.8576 17.6232 26.6071 17.599 25.3487L17.599 25.3487L17.599 25.2784L17.599 25.1998C 17.5881 25.1299 17.5813 25.0595 17.5785 24.9888C 17.5785 24.9061 17.5703 24.8233 17.5538 24.7406L17.5538 24.7406L17.5538 24.5958C 17.5538 24.4675 17.5292 24.3475 17.521 24.2234L17.521 24.2234L17.6278 22.7713C 17.6368 22.7348 17.6478 22.6989 17.6606 22.6637L17.6606 22.6637L17.6853 22.5727C 17.7473 22.2916 17.8283 22.0152 17.9276 21.7452C 17.973 21.6157 18.0251 21.4887 18.0837 21.3646C 18.1857 21.1327 18.2995 20.9062 18.4245 20.6861C 18.4862 20.5827 18.5478 20.4792 18.6176 20.3758C 18.8363 20.0456 19.0851 19.7367 19.361 19.4532C 20.5744 18.2331 22.2194 17.5485 23.9339 17.55C 25.6485 17.5516 27.2922 18.2391 28.5034 19.4615C 29.7147 20.6838 30.3943 22.3408 30.3928 24.0679C 30.3913 25.795 29.7087 27.4508 28.4952 28.6709C 28.215 28.9473 27.9098 29.1966 27.5834 29.4156C 27.4767 29.4901 27.374 29.5522 27.2713 29.6101C 27.046 29.7479 26.8129 29.8722 26.5731 29.9824C 26.4458 30.0403 26.3184 30.0983 26.1993 30.1438C 25.9439 30.2415 25.6817 30.3203 25.4149 30.3796L25.4149 30.3796L25.2588 30.421L25.1561 30.4541L23.7022 30.5575C 23.5338 30.5575 23.3531 30.5244 23.1642 30.4996L23.1642 30.4996L23.0369 30.4996L22.8561 30.4996L22.8069 30.4996L22.7329 30.4996L22.3592 30.4996C 19.8413 30.5334 17.4391 31.5698 15.6775 33.3823C 13.916 35.1948 12.9382 37.636 12.958 40.1724L12.958 40.1724L12.958 40.2469L12.958 40.3172C 12.9689 40.3871 12.9757 40.4575 12.9785 40.5282C 12.9785 40.6151 12.9785 40.6937 13.0031 40.7764C 13.0072 40.8527 13.0154 40.9286 13.0278 41.004C 13.0278 41.1033 13.0278 41.2026 13.0278 41.3019L13.0278 41.3019L13.0278 41.335L12.9251 42.7292C 12.9251 42.7582 12.8717 42.9195 12.8594 42.9692C 12.7989 43.2501 12.7193 43.5266 12.6212 43.7966C 12.578 43.9223 12.5273 44.0453 12.4692 44.1648C 12.3569 44.4124 12.2321 44.654 12.0955 44.8888C 12.0339 44.9881 11.964 45.104 11.8901 45.2115C 11.675 45.537 11.4288 45.8405 11.1549 46.1176C 9.95234 47.3217 8.32448 47.9958 6.62888 47.9917z" stroke="none" fill="#F8B400" fill-rule="nonzero" />
        <path d="M24.0721 47.9917C 22.7964 47.9916 21.5494 47.6109 20.4884 46.8975C 19.4274 46.1842 18.5999 45.1702 18.1104 43.9836C 17.621 42.797 17.4914 41.4909 17.7381 40.2302C 17.9848 38.9694 18.5968 37.8106 19.4967 36.8999C 19.7788 36.6198 20.0869 36.3677 20.4167 36.1469C 20.5112 36.0807 20.6139 36.0186 20.7206 35.9566C 20.9482 35.8191 21.1826 35.6935 21.423 35.5801L21.423 35.5801L21.7967 35.4187C 22.0518 35.3265 22.3125 35.2505 22.5771 35.1912L22.5771 35.1912L22.8317 35.1167L24.2938 35.0092C 24.4663 35.0092 24.6512 35.0423 24.8442 35.0671L24.8442 35.0671L24.9551 35.0671L25.1481 35.0671L25.2179 35.0671L25.2631 35.0671L25.3247 35.0671L25.6451 35.0671C 28.1608 35.03 30.5598 33.9922 32.3188 32.1801C 34.0777 30.3679 35.0538 27.9286 35.034 25.3943L35.034 25.3943L35.034 25.0923L35.0093 25.0592C 35.007 25.0482 35.007 25.037 35.0093 25.0261L35.0093 25.0261L35.0093 24.8109L34.9847 24.6041C 34.9847 24.4882 34.9559 24.3765 34.9518 24.2607L34.9518 24.2607L35.0504 22.854C 35.0504 22.8168 35.1079 22.643 35.1202 22.5934C 35.1709 22.3219 35.2381 22.0539 35.3215 21.7908C 35.3681 21.6625 35.4216 21.5368 35.4817 21.4143C 35.5921 21.1705 35.7155 20.933 35.8513 20.7027L35.8513 20.7027L35.88 20.6572C 35.9293 20.5703 35.9786 20.4875 36.0361 20.4048C 36.2567 20.0722 36.5069 19.7607 36.7836 19.4739C 37.9958 18.2539 39.6392 17.5686 41.3528 17.5686C 43.0663 17.5686 44.7098 18.2539 45.922 19.4739C 47.1291 20.6971 47.8067 22.3518 47.8067 24.0766C 47.8067 25.8013 47.1291 27.456 45.922 28.6792C 45.6382 28.9532 45.3318 29.2024 45.0061 29.4239L45.0061 29.4239L44.7925 29.5604L44.6816 29.6308C 44.4609 29.7616 44.2333 29.8804 43.9998 29.9866C 43.8684 30.0486 43.7493 30.1024 43.622 30.1521C 43.3631 30.2467 43.0983 30.324 42.8293 30.3838L42.8293 30.3838L42.665 30.4334L42.5664 30.4582L41.129 30.5617C 40.9195 30.5617 40.6936 30.5203 40.4718 30.4913L40.4718 30.4913L40.2829 30.4913L40.25 30.4913L40.1268 30.4913L39.8065 30.4913C 37.2843 30.5197 34.8765 31.5551 33.1115 33.3702C 31.3466 35.1853 30.3688 37.6318 30.3929 40.1724L30.3929 40.1724L30.3929 40.2469L30.3929 40.3172C 30.397 40.3916 30.397 40.4662 30.3929 40.5406C 30.3929 40.6151 30.3929 40.6937 30.4135 40.764C 30.434 40.8344 30.4135 40.9047 30.4135 40.9833C 30.4293 41.093 30.4389 41.2035 30.4422 41.3143L30.4422 41.3143L30.3929 42.7416L30.3313 42.965C 30.2692 43.2456 30.1896 43.522 30.0931 43.7925C 30.052 43.9083 29.9986 44.0242 29.9494 44.14L29.9494 44.14L29.9288 44.1814C 29.8214 44.417 29.7007 44.6463 29.5674 44.8681C 29.5017 44.9799 29.4401 45.0874 29.3702 45.1909C 28.7852 46.0619 27.9952 46.7736 27.0707 47.2623C 26.1463 47.751 25.1161 48.0016 24.0721 47.9917z" stroke="none" fill="#F8B400" fill-rule="nonzero" />
        <path d="M6.63295 30.4375C 5.35531 30.4387 4.10601 30.0583 3.04299 29.3443C 1.97998 28.6303 1.15099 27.6149 0.660842 26.4263C 0.17069 25.2378 0.0413842 23.9296 0.289272 22.667C 0.537161 21.4045 1.15111 20.2443 2.0535 19.3332C 2.33561 19.0561 2.64217 18.8055 2.96939 18.5844L2.96939 18.5844L3.28564 18.3817C 3.50743 18.2493 3.73742 18.1293 3.97975 18.0135C 4.10296 17.9597 4.22617 17.9018 4.36171 17.8521C 4.61387 17.7593 4.8718 17.6833 5.13385 17.6246L5.13385 17.6246L5.29813 17.5791C 5.32631 17.5689 5.35512 17.5606 5.38438 17.5542L5.38438 17.5542L6.84652 17.4467C 7.03545 17.4467 7.25723 17.4839 7.45848 17.5129L7.45848 17.5129L7.50366 17.5129L7.6967 17.5129L7.7583 17.5129L7.81991 17.5129L8.21419 17.5129C 9.46553 17.5011 10.7021 17.2391 11.852 16.7419C 13.002 16.2448 14.0424 15.5224 14.9129 14.6168C 15.7881 13.7181 16.4765 12.6526 16.9378 11.4825C 17.399 10.3125 17.6238 9.06147 17.599 7.8028L17.599 7.8028L17.599 7.73247L17.599 7.66214C 17.5845 7.58294 17.5762 7.5027 17.5743 7.42218L17.5743 7.42218L17.5743 7.22359L17.5209 7.03328C 17.5209 6.91744 17.4922 6.79332 17.4881 6.67334L17.4881 6.67334L17.5867 5.30806L17.5867 5.27497L17.5867 5.25014C 17.5867 5.21704 17.6483 5.03501 17.6483 5.03501C 17.7107 4.75452 17.7903 4.47818 17.8865 4.20756C 17.9317 4.08345 17.9892 3.95933 18.0467 3.83521C 18.1545 3.59022 18.278 3.35252 18.4163 3.12361L18.4163 3.12361L18.4163 3.08638C 18.4738 2.99122 18.5272 2.89606 18.5929 2.80505C 18.8087 2.4775 19.0548 2.17135 19.3281 1.89072C 20.5415 0.666181 22.1882 -0.0226308 23.9058 -0.0241826C 25.6234 -0.0257343 27.2713 0.660101 28.487 1.88245C 29.7026 3.10479 30.3864 4.76352 30.3879 6.49373C 30.3895 8.22394 29.7086 9.8839 28.4952 11.1084C 28.2146 11.3832 27.9094 11.6311 27.5834 11.849C 27.4848 11.9193 27.3986 11.969 27.3123 12.0228L27.3123 12.0228L27.2631 12.0517C 27.0248 12.1924 26.7948 12.3165 26.5731 12.4199C 26.4416 12.4779 26.3225 12.5358 26.1993 12.5813C 25.9401 12.6761 25.6754 12.7549 25.4066 12.8171C 25.3497 12.8293 25.2935 12.8445 25.2382 12.8626L25.2382 12.8626L25.1356 12.8916L23.7022 12.9909C 23.5215 12.9909 23.3284 12.9578 23.1272 12.933L23.1272 12.933L23.0368 12.933L22.852 12.933L22.7329 12.933L22.6672 12.933L22.3468 12.933C 19.8304 12.97 17.4307 14.0084 15.6717 15.8214C 13.9126 17.6345 12.937 20.0749 12.9579 22.6099L12.9579 22.6099L12.9579 22.6802L12.9579 22.7547C 12.969 22.8273 12.9759 22.9005 12.9785 22.974C 12.9785 23.0526 12.9785 23.1271 12.999 23.2015C 13.0195 23.276 12.999 23.3422 13.0236 23.4167C 13.038 23.5237 13.0462 23.6314 13.0483 23.7394L13.0483 23.7394L12.9456 25.1584C 12.938 25.1961 12.9284 25.2334 12.9169 25.2701L12.9169 25.2701L12.8799 25.3984C 12.8211 25.6794 12.7429 25.9559 12.6458 26.2258C 12.6006 26.35 12.539 26.4782 12.4815 26.6065C 12.3771 26.8454 12.2606 27.0788 12.1324 27.3056C 12.0667 27.4215 12.0051 27.5249 11.9353 27.6242C 11.7176 27.9552 11.4687 28.2642 11.1919 28.5468C 10.5942 29.1513 9.88363 29.6307 9.1012 29.9573C 8.31877 30.2839 7.47991 30.4513 6.63295 30.4499L6.63295 30.4499L6.63295 30.4375z" stroke="none" fill="#F8B400" fill-rule="nonzero" />
	</g>
</g>
</svg>