<svg width="160" height="126" viewBox="0 0 160 126" fill="none" xmlns="http://www.w3.org/2000/svg">
<g filter="url(#filter0_d_8626_6909)">
<rect x="33" y="35" width="99" height="65" rx="7" fill="white" shape-rendering="crispEdges"/>
<rect x="41" y="39" width="25" height="25" rx="6" fill="#F8B400" fill-opacity="0.26"/>
<path d="M45.3945 56.0031L49.8976 51.5L52.5994 54.2018L58.0031 48.7982M58.0031 48.7982H54.4006M58.0031 48.7982V52.4006M47.1958 59.6055H59.8043C60.7991 59.6055 61.6055 58.7991 61.6055 57.8043V45.1958C61.6055 44.201 60.7991 43.3945 59.8043 43.3945H47.1958C46.201 43.3945 45.3945 44.201 45.3945 45.1958V57.8043C45.3945 58.7991 46.201 59.6055 47.1958 59.6055Z" stroke="#F8B400" stroke-width="1.55065" stroke-linecap="round" stroke-linejoin="round"/>
<path d="M46.676 78.648C46.676 79.56 46.028 80.1 44.948 80.1H43.016V77.148H44.912C45.98 77.148 46.676 77.724 46.676 78.648ZM46.46 74.892C46.46 75.744 45.872 76.248 44.852 76.248H43.016V73.536H44.828C45.896 73.536 46.46 74.064 46.46 74.892ZM47.768 78.756C47.768 77.724 47.024 76.848 46.112 76.692C46.916 76.428 47.576 75.816 47.576 74.76C47.576 73.596 46.688 72.636 44.924 72.636H41.924V81H45.044C46.772 81 47.768 80.016 47.768 78.756ZM55.1154 74.424H54.0234V78.036C54.0234 79.452 53.2674 80.148 52.1394 80.148C51.0354 80.148 50.3034 79.464 50.3034 78.132V74.424H49.2234V78.276C49.2234 80.16 50.4114 81.096 51.9234 81.096C52.7994 81.096 53.6034 80.712 54.0234 80.028V81H55.1154V74.424ZM61.6872 79.212C61.6392 76.86 57.8232 77.712 57.8232 76.152C57.8232 75.624 58.3032 75.24 59.1072 75.24C59.9832 75.24 60.4872 75.72 60.5352 76.38H61.6272C61.5552 75.096 60.5952 74.316 59.1432 74.316C57.6792 74.316 56.7312 75.144 56.7312 76.152C56.7312 78.6 60.6192 77.748 60.6192 79.212C60.6192 79.752 60.1392 80.184 59.2752 80.184C58.3512 80.184 57.7872 79.704 57.7272 79.068H56.5992C56.6712 80.268 57.7512 81.108 59.2872 81.108C60.7392 81.108 61.6872 80.292 61.6872 79.212ZM63.2287 81H64.3207V74.424H63.2287V81ZM63.7927 73.356C64.1887 73.356 64.5127 73.032 64.5127 72.612C64.5127 72.192 64.1887 71.868 63.7927 71.868C63.3727 71.868 63.0487 72.192 63.0487 72.612C63.0487 73.032 63.3727 73.356 63.7927 73.356ZM70.9938 81H72.0738V77.124C72.0738 75.24 70.9098 74.304 69.3858 74.304C68.4978 74.304 67.7058 74.676 67.2738 75.36V74.424H66.1818V81H67.2738V77.364C67.2738 75.948 68.0418 75.252 69.1578 75.252C70.2618 75.252 70.9938 75.936 70.9938 77.28V81ZM76.6536 75.24C77.7816 75.24 78.7416 75.948 78.7296 77.232H74.5776C74.6976 75.948 75.5856 75.24 76.6536 75.24ZM79.7256 78.972H78.5496C78.3096 79.68 77.6856 80.184 76.7016 80.184C75.5856 80.184 74.6496 79.452 74.5656 78.12H79.8216C79.8456 77.892 79.8576 77.7 79.8576 77.46C79.8576 75.66 78.6096 74.316 76.7016 74.316C74.7816 74.316 73.4496 75.624 73.4496 77.7C73.4496 79.788 74.8296 81.108 76.7016 81.108C78.3336 81.108 79.3896 80.172 79.7256 78.972ZM86.027 79.212C85.979 76.86 82.163 77.712 82.163 76.152C82.163 75.624 82.643 75.24 83.447 75.24C84.323 75.24 84.827 75.72 84.875 76.38H85.967C85.895 75.096 84.935 74.316 83.483 74.316C82.019 74.316 81.071 75.144 81.071 76.152C81.071 78.6 84.959 77.748 84.959 79.212C84.959 79.752 84.479 80.184 83.615 80.184C82.691 80.184 82.127 79.704 82.067 79.068H80.939C81.011 80.268 82.091 81.108 83.627 81.108C85.079 81.108 86.027 80.292 86.027 79.212ZM92.2965 79.212C92.2485 76.86 88.4325 77.712 88.4325 76.152C88.4325 75.624 88.9125 75.24 89.7165 75.24C90.5925 75.24 91.0965 75.72 91.1445 76.38H92.2365C92.1645 75.096 91.2045 74.316 89.7525 74.316C88.2885 74.316 87.3405 75.144 87.3405 76.152C87.3405 78.6 91.2285 77.748 91.2285 79.212C91.2285 79.752 90.7485 80.184 89.8845 80.184C88.9605 80.184 88.3965 79.704 88.3365 79.068H87.2085C87.2805 80.268 88.3605 81.108 89.8965 81.108C91.3485 81.108 92.2965 80.292 92.2965 79.212ZM45.716 85.54C43.364 85.54 41.516 87.304 41.516 89.812C41.516 92.32 43.364 94.072 45.716 94.072C47.984 94.072 49.628 92.404 49.82 90.328V89.488H45.32V90.376H48.656C48.488 92.032 47.36 93.088 45.716 93.088C43.952 93.088 42.632 91.816 42.632 89.812C42.632 87.796 43.952 86.524 45.716 86.524C46.892 86.524 47.804 87.088 48.26 88.06H49.568C48.944 86.452 47.48 85.54 45.716 85.54ZM52.3558 90.424C52.3558 88.9 53.1478 88.432 54.1918 88.432H54.4798V87.304C53.4358 87.304 52.7278 87.76 52.3558 88.492V87.424H51.2638V94H52.3558V90.424ZM61.9804 90.7C61.9804 88.624 60.5284 87.316 58.6564 87.316C56.7964 87.316 55.3324 88.624 55.3324 90.7C55.3324 92.788 56.7484 94.108 58.6084 94.108C60.4804 94.108 61.9804 92.788 61.9804 90.7ZM56.4484 90.7C56.4484 89.044 57.4924 88.264 58.6444 88.264C59.7724 88.264 60.8644 89.044 60.8644 90.7C60.8644 92.368 59.7484 93.148 58.6084 93.148C57.4684 93.148 56.4484 92.368 56.4484 90.7ZM64.7002 94H65.8282L67.4122 88.78L68.9962 94H70.1242L72.1762 87.424H71.0962L69.6082 92.956L68.0122 87.424H66.8962L65.2642 92.944L63.7522 87.424H62.6362L64.7002 94ZM73.4999 92.2C73.4999 93.52 74.1599 94 75.3239 94H76.3079V93.076H75.5039C74.8319 93.076 74.5919 92.848 74.5919 92.2V88.324H76.3079V87.424H74.5919V85.768H73.4999V87.424H72.6479V88.324H73.4999V92.2ZM77.631 94H78.723V90.364C78.723 88.948 79.491 88.252 80.607 88.252C81.711 88.252 82.443 88.936 82.443 90.28V94H83.523V90.124C83.523 88.24 82.359 87.304 80.895 87.304C79.971 87.304 79.155 87.676 78.723 88.372V85.12H77.631V94Z" fill="#768396"/>
</g>
<defs>
<filter id="filter0_d_8626_6909" x="0.8" y="0.52" width="159" height="125" filterUnits="userSpaceOnUse" color-interpolation-filters="sRGB">
<feFlood flood-opacity="0" result="BackgroundImageFix"/>
<feColorMatrix in="SourceAlpha" type="matrix" values="0 0 0 0 0 0 0 0 0 0 0 0 0 0 0 0 0 0 127 0" result="hardAlpha"/>
<feOffset dx="-2.2" dy="-4.48"/>
<feGaussianBlur stdDeviation="15"/>
<feComposite in2="hardAlpha" operator="out"/>
<feColorMatrix type="matrix" values="0 0 0 0 0.478431 0 0 0 0 0.529412 0 0 0 0 0.6 0 0 0 0.2 0"/>
<feBlend mode="normal" in2="BackgroundImageFix" result="effect1_dropShadow_8626_6909"/>
<feBlend mode="normal" in="SourceGraphic" in2="effect1_dropShadow_8626_6909" result="shape"/>
</filter>
</defs>
</svg>
