<svg width="160" height="126" viewBox="0 0 160 126" fill="none" xmlns="http://www.w3.org/2000/svg">
<g filter="url(#filter0_d_8626_6914)">
<rect x="33" y="35" width="99" height="65" rx="7" fill="white" shape-rendering="crispEdges"/>
<rect x="41" y="39.5" width="25" height="24" rx="3" fill="#049E26" fill-opacity="0.13"/>
<path d="M60.8601 46.3046H46.1398V56.6954H60.8601V46.3046Z" stroke="#028789" stroke-width="1.21226" stroke-linecap="round" stroke-linejoin="round"/>
<path d="M46.5729 53.6648H60.8602M48.3047 49.3353H51.3353" stroke="#028789" stroke-width="1.21226" stroke-linecap="round" stroke-linejoin="round"/>
<path d="M46.424 72.124H41.924V80.5H46.424V79.6H43.016V76.72H46.064V75.82H43.016V73.024H46.424V72.124ZM47.6683 77.188C47.6683 79.228 49.0243 80.608 50.7763 80.608C51.9883 80.608 52.8403 79.984 53.2363 79.276V80.5H54.3403V73.924H53.2363V75.124C52.8523 74.44 52.0123 73.816 50.7883 73.816C49.0243 73.816 47.6683 75.136 47.6683 77.188ZM53.2363 77.2C53.2363 78.748 52.2043 79.648 51.0043 79.648C49.8043 79.648 48.7843 78.736 48.7843 77.188C48.7843 75.64 49.8043 74.764 51.0043 74.764C52.2043 74.764 53.2363 75.676 53.2363 77.2ZM60.9137 78.712C60.8657 76.36 57.0497 77.212 57.0497 75.652C57.0497 75.124 57.5297 74.74 58.3337 74.74C59.2097 74.74 59.7137 75.22 59.7617 75.88H60.8537C60.7817 74.596 59.8217 73.816 58.3697 73.816C56.9057 73.816 55.9577 74.644 55.9577 75.652C55.9577 78.1 59.8457 77.248 59.8457 78.712C59.8457 79.252 59.3657 79.684 58.5017 79.684C57.5777 79.684 57.0137 79.204 56.9537 78.568H55.8257C55.8977 79.768 56.9777 80.608 58.5137 80.608C59.9657 80.608 60.9137 79.792 60.9137 78.712ZM64.9513 79.252L62.8873 73.924H61.6753L64.3273 80.428L63.0312 83.596H64.1593L68.1193 73.924H66.9913L64.9513 79.252ZM43.016 89.108V86.036H44.624C45.872 86.036 46.4 86.612 46.4 87.584C46.4 88.52 45.872 89.108 44.624 89.108H43.016ZM47.516 87.584C47.516 86.216 46.592 85.136 44.624 85.136H41.924V93.5H43.016V90.008H44.624C46.7 90.008 47.516 88.856 47.516 87.584ZM48.4652 90.188C48.4652 92.228 49.8212 93.608 51.5732 93.608C52.7852 93.608 53.6372 92.984 54.0332 92.276V93.5H55.1372V86.924H54.0332V88.124C53.6492 87.44 52.8092 86.816 51.5852 86.816C49.8212 86.816 48.4652 88.136 48.4652 90.188ZM54.0332 90.2C54.0332 91.748 53.0012 92.648 51.8012 92.648C50.6012 92.648 49.5812 91.736 49.5812 90.188C49.5812 88.64 50.6012 87.764 51.8012 87.764C53.0012 87.764 54.0332 88.676 54.0332 90.2ZM59.4786 92.252L57.4146 86.924H56.2026L58.8546 93.428L57.5586 96.596H58.6866L62.6466 86.924H61.5186L59.4786 92.252ZM73.2363 93.5H74.3163V89.624C74.3163 87.74 73.1523 86.804 71.6523 86.804C70.6443 86.804 69.7083 87.32 69.3243 88.268C68.8923 87.284 67.9923 86.804 66.9123 86.804C66.0483 86.804 65.2683 87.176 64.8363 87.872V86.924H63.7443V93.5H64.8363V89.876C64.8363 88.46 65.5923 87.752 66.6963 87.752C67.7763 87.752 68.4963 88.436 68.4963 89.78V93.5H69.5763V89.876C69.5763 88.46 70.3323 87.752 71.4363 87.752C72.5163 87.752 73.2363 88.436 73.2363 89.78V93.5ZM78.9036 87.74C80.0316 87.74 80.9916 88.448 80.9796 89.732H76.8276C76.9476 88.448 77.8356 87.74 78.9036 87.74ZM81.9756 91.472H80.7996C80.5596 92.18 79.9356 92.684 78.9516 92.684C77.8356 92.684 76.8996 91.952 76.8156 90.62H82.0716C82.0956 90.392 82.1076 90.2 82.1076 89.96C82.1076 88.16 80.8596 86.816 78.9516 86.816C77.0316 86.816 75.6996 88.124 75.6996 90.2C75.6996 92.288 77.0796 93.608 78.9516 93.608C80.5836 93.608 81.6396 92.672 81.9756 91.472ZM88.361 93.5H89.441V89.624C89.441 87.74 88.277 86.804 86.753 86.804C85.865 86.804 85.073 87.176 84.641 87.86V86.924H83.549V93.5H84.641V89.864C84.641 88.448 85.409 87.752 86.525 87.752C87.629 87.752 88.361 88.436 88.361 89.78V93.5ZM91.4648 91.7C91.4648 93.02 92.1248 93.5 93.2888 93.5H94.2728V92.576H93.4688C92.7968 92.576 92.5568 92.348 92.5568 91.7V87.824H94.2728V86.924H92.5568V85.268H91.4648V86.924H90.6128V87.824H91.4648V91.7Z" fill="#768396"/>
</g>
<defs>
<filter id="filter0_d_8626_6914" x="0.8" y="0.52" width="159" height="125" filterUnits="userSpaceOnUse" color-interpolation-filters="sRGB">
<feFlood flood-opacity="0" result="BackgroundImageFix"/>
<feColorMatrix in="SourceAlpha" type="matrix" values="0 0 0 0 0 0 0 0 0 0 0 0 0 0 0 0 0 0 127 0" result="hardAlpha"/>
<feOffset dx="-2.2" dy="-4.48"/>
<feGaussianBlur stdDeviation="15"/>
<feComposite in2="hardAlpha" operator="out"/>
<feColorMatrix type="matrix" values="0 0 0 0 0.462745 0 0 0 0 0.513726 0 0 0 0 0.588235 0 0 0 0.1 0"/>
<feBlend mode="normal" in2="BackgroundImageFix" result="effect1_dropShadow_8626_6914"/>
<feBlend mode="normal" in="SourceGraphic" in2="effect1_dropShadow_8626_6914" result="shape"/>
</filter>
</defs>
</svg>
