<svg width="160" height="126" viewBox="0 0 160 126" fill="none" xmlns="http://www.w3.org/2000/svg">
<g filter="url(#filter0_d_8626_6908)">
<rect x="33" y="25" width="99" height="65" rx="7" fill="white" shape-rendering="crispEdges"/>
<rect x="41" y="31.5" width="24" height="20" rx="4" fill="#049E26" fill-opacity="0.1"/>
<path d="M44.5881 47.2647V35.7353L51.9999 41.5L44.5881 47.2647Z" stroke="#049E26" stroke-width="1.3" stroke-linecap="round" stroke-linejoin="round"/>
<path d="M54 47.2647V35.7353L61.4118 41.5L54 47.2647Z" stroke="#049E26" stroke-width="1.3" stroke-linecap="round" stroke-linejoin="round"/>
<path d="M41.924 68.5H43.016V64.732H45.968V63.844H43.016V61.024H46.652V60.136H41.924V68.5ZM47.5629 65.188C47.5629 67.228 48.9189 68.608 50.6709 68.608C51.8829 68.608 52.7349 67.984 53.1309 67.276V68.5H54.2349V61.924H53.1309V63.124C52.7469 62.44 51.9069 61.816 50.6829 61.816C48.9189 61.816 47.5629 63.136 47.5629 65.188ZM53.1309 65.2C53.1309 66.748 52.0989 67.648 50.8989 67.648C49.6989 67.648 48.6789 66.736 48.6789 65.188C48.6789 63.64 49.6989 62.764 50.8989 62.764C52.0989 62.764 53.1309 63.676 53.1309 65.2ZM60.8083 66.712C60.7603 64.36 56.9443 65.212 56.9443 63.652C56.9443 63.124 57.4243 62.74 58.2283 62.74C59.1043 62.74 59.6083 63.22 59.6563 63.88H60.7483C60.6763 62.596 59.7163 61.816 58.2643 61.816C56.8003 61.816 55.8523 62.644 55.8523 63.652C55.8523 66.1 59.7403 65.248 59.7403 66.712C59.7403 67.252 59.2603 67.684 58.3963 67.684C57.4723 67.684 56.9083 67.204 56.8483 66.568H55.7203C55.7923 67.768 56.8723 68.608 58.4083 68.608C59.8603 68.608 60.8083 67.792 60.8083 66.712ZM62.5898 66.7C62.5898 68.02 63.2498 68.5 64.4138 68.5H65.3978V67.576H64.5938C63.9218 67.576 63.6818 67.348 63.6818 66.7V62.824H65.3978V61.924H63.6818V60.268H62.5898V61.924H61.7378V62.824H62.5898V66.7ZM41.408 74.024H43.7V81.5H44.792V74.024H47.072V73.136H41.408V74.024ZM49.5082 77.924C49.5082 76.4 50.3002 75.932 51.3442 75.932H51.6322V74.804C50.5882 74.804 49.8802 75.26 49.5082 75.992V74.924H48.4162V81.5H49.5082V77.924ZM52.4848 78.188C52.4848 80.228 53.8408 81.608 55.5928 81.608C56.8048 81.608 57.6568 80.984 58.0528 80.276V81.5H59.1568V74.924H58.0528V76.124C57.6688 75.44 56.8288 74.816 55.6048 74.816C53.8408 74.816 52.4848 76.136 52.4848 78.188ZM58.0528 78.2C58.0528 79.748 57.0208 80.648 55.8208 80.648C54.6208 80.648 53.6008 79.736 53.6008 78.188C53.6008 76.64 54.6208 75.764 55.8208 75.764C57.0208 75.764 58.0528 76.676 58.0528 78.2ZM65.8141 81.5H66.8941V77.624C66.8941 75.74 65.7301 74.804 64.2061 74.804C63.3181 74.804 62.5261 75.176 62.0941 75.86V74.924H61.0021V81.5H62.0941V77.864C62.0941 76.448 62.8621 75.752 63.9781 75.752C65.0821 75.752 65.8141 76.436 65.8141 77.78V81.5ZM73.4059 79.712C73.3579 77.36 69.5419 78.212 69.5419 76.652C69.5419 76.124 70.0219 75.74 70.8259 75.74C71.7019 75.74 72.2059 76.22 72.2539 76.88H73.3459C73.2739 75.596 72.3139 74.816 70.8619 74.816C69.3979 74.816 68.4499 75.644 68.4499 76.652C68.4499 79.1 72.3379 78.248 72.3379 79.712C72.3379 80.252 71.8579 80.684 70.9939 80.684C70.0699 80.684 69.5059 80.204 69.4459 79.568H68.3179C68.3899 80.768 69.4699 81.608 71.0059 81.608C72.4579 81.608 73.4059 80.792 73.4059 79.712ZM74.5394 78.188C74.5394 80.228 75.8954 81.608 77.6474 81.608C78.8594 81.608 79.7114 80.984 80.1074 80.276V81.5H81.2114V74.924H80.1074V76.124C79.7234 75.44 78.8834 74.816 77.6594 74.816C75.8954 74.816 74.5394 76.136 74.5394 78.188ZM80.1074 78.2C80.1074 79.748 79.0754 80.648 77.8754 80.648C76.6754 80.648 75.6554 79.736 75.6554 78.188C75.6554 76.64 76.6754 75.764 77.8754 75.764C79.0754 75.764 80.1074 76.676 80.1074 78.2ZM82.6488 78.2C82.6488 80.288 83.9808 81.608 85.8528 81.608C87.4848 81.608 88.5528 80.696 88.8888 79.388H87.7128C87.4728 80.216 86.8248 80.684 85.8528 80.684C84.6528 80.684 83.7648 79.832 83.7648 78.2C83.7648 76.592 84.6528 75.74 85.8528 75.74C86.8248 75.74 87.4848 76.244 87.7128 77.036H88.8888C88.5528 75.656 87.4848 74.816 85.8528 74.816C83.9808 74.816 82.6488 76.136 82.6488 78.2ZM90.5859 79.7C90.5859 81.02 91.2459 81.5 92.4099 81.5H93.3939V80.576H92.5899C91.9179 80.576 91.6779 80.348 91.6779 79.7V75.824H93.3939V74.924H91.6779V73.268H90.5859V74.924H89.7339V75.824H90.5859V79.7ZM94.717 81.5H95.809V74.924H94.717V81.5ZM95.281 73.856C95.677 73.856 96.001 73.532 96.001 73.112C96.001 72.692 95.677 72.368 95.281 72.368C94.861 72.368 94.537 72.692 94.537 73.112C94.537 73.532 94.861 73.856 95.281 73.856ZM103.91 78.2C103.91 76.124 102.458 74.816 100.586 74.816C98.7261 74.816 97.2621 76.124 97.2621 78.2C97.2621 80.288 98.6781 81.608 100.538 81.608C102.41 81.608 103.91 80.288 103.91 78.2ZM98.3781 78.2C98.3781 76.544 99.4221 75.764 100.574 75.764C101.702 75.764 102.794 76.544 102.794 78.2C102.794 79.868 101.678 80.648 100.538 80.648C99.3981 80.648 98.3781 79.868 98.3781 78.2ZM110.158 81.5H111.238V77.624C111.238 75.74 110.074 74.804 108.55 74.804C107.662 74.804 106.87 75.176 106.438 75.86V74.924H105.346V81.5H106.438V77.864C106.438 76.448 107.206 75.752 108.322 75.752C109.426 75.752 110.158 76.436 110.158 77.78V81.5ZM117.75 79.712C117.702 77.36 113.886 78.212 113.886 76.652C113.886 76.124 114.366 75.74 115.17 75.74C116.046 75.74 116.55 76.22 116.598 76.88H117.69C117.618 75.596 116.658 74.816 115.206 74.816C113.742 74.816 112.794 75.644 112.794 76.652C112.794 79.1 116.682 78.248 116.682 79.712C116.682 80.252 116.202 80.684 115.338 80.684C114.414 80.684 113.85 80.204 113.79 79.568H112.662C112.734 80.768 113.814 81.608 115.35 81.608C116.802 81.608 117.75 80.792 117.75 79.712Z" fill="#768396"/>
</g>
<defs>
<filter id="filter0_d_8626_6908" x="0.8" y="0.52" width="159" height="125" filterUnits="userSpaceOnUse" color-interpolation-filters="sRGB">
<feFlood flood-opacity="0" result="BackgroundImageFix"/>
<feColorMatrix in="SourceAlpha" type="matrix" values="0 0 0 0 0 0 0 0 0 0 0 0 0 0 0 0 0 0 127 0" result="hardAlpha"/>
<feOffset dx="-2.2" dy="5.52"/>
<feGaussianBlur stdDeviation="15"/>
<feComposite in2="hardAlpha" operator="out"/>
<feColorMatrix type="matrix" values="0 0 0 0 0.48 0 0 0 0 0.52875 0 0 0 0 0.6 0 0 0 0.2 0"/>
<feBlend mode="normal" in2="BackgroundImageFix" result="effect1_dropShadow_8626_6908"/>
<feBlend mode="normal" in="SourceGraphic" in2="effect1_dropShadow_8626_6908" result="shape"/>
</filter>
</defs>
</svg>
