<svg width="160" height="134" viewBox="0 0 160 134" fill="none" xmlns="http://www.w3.org/2000/svg">
<g filter="url(#filter0_d_8626_6920)">
<rect x="33" y="35" width="99" height="73" rx="7" fill="white" shape-rendering="crispEdges"/>
<rect x="41" y="41.5" width="28" height="28" rx="6" fill="#F8B400" fill-opacity="0.1"/>
<path d="M53.1488 67.0505C52.6314 66.9157 52.0972 66.8248 51.5994 66.6373C50.6665 66.286 49.7491 65.8918 48.837 65.4902C48.3265 65.2656 48.0672 64.8495 48.0684 64.2782C48.0718 62.9505 48.0684 61.6228 48.0701 60.2951C48.0713 59.4744 48.7803 58.8407 49.5986 58.9611C50.1375 59.0403 50.6694 59.1677 51.2007 59.2904C51.3587 59.3268 51.4762 59.339 51.622 59.2325C52.0746 58.902 52.5897 58.8401 53.1338 58.9292C53.2131 58.9419 53.3172 58.9211 53.3838 58.8771C53.7473 58.6369 54.1026 58.3846 54.5338 58.0859C54.5338 57.3312 54.5882 56.4538 54.5078 55.588C54.4748 55.2332 54.2028 54.8593 53.9504 54.5728C53.0823 53.5866 51.9542 53.2202 50.6607 53.3204C50.6242 53.3232 50.5895 53.3418 50.5316 53.3597C50.8795 53.9211 51.214 54.4744 51.563 55.0185C51.7077 55.2442 51.872 55.4595 52.0474 55.6621C52.3189 55.9763 52.6696 56.1303 53.0898 56.1349C53.4197 56.1384 53.6049 56.3085 53.6089 56.5852C53.613 56.8728 53.4122 57.0523 53.0765 57.0592C52.4115 57.0737 51.8414 56.8341 51.4108 56.3404C51.0843 55.9665 50.8152 55.5411 50.5322 55.1307C50.2434 54.7123 49.9766 54.2782 49.6843 53.8621C49.5986 53.74 49.469 53.641 49.344 53.5548C49.1576 53.4257 49.0361 53.2468 49.1194 53.0443C49.1831 52.8903 49.3359 52.7173 49.4881 52.664C51.2539 52.0505 52.8507 52.3851 54.2838 53.5658C54.355 53.6242 54.4204 53.689 54.5188 53.7793C54.5188 53.2492 54.5188 52.7647 54.5188 52.2577C53.1419 52.0343 52.0746 51.3352 51.372 50.1192C50.8713 49.2533 50.7139 48.3163 50.9101 47.3376C51.3292 45.25 53.2356 43.8928 55.1363 43.9506C56.9994 44.0074 58.753 45.5382 59.1015 47.3845C59.4499 49.2284 58.2472 51.8601 55.4685 52.2768C55.4685 53.1751 55.4685 54.0751 55.4685 55.0104C55.6775 54.8182 55.8563 54.6359 56.0537 54.4762C57.2019 53.5484 58.5082 53.2011 59.9656 53.4361C60.3858 53.5038 60.5698 53.9321 60.2891 54.2261C59.9054 54.6284 59.7005 55.1186 59.495 55.6169C59.2867 56.1222 59.0939 56.6367 58.8416 57.12C58.4602 57.8498 57.8681 58.3221 57.0214 58.4245C56.6799 58.4656 56.4252 58.3198 56.3853 58.0408C56.3448 57.7578 56.5097 57.5396 56.8518 57.5054C57.4566 57.4453 57.8403 57.1015 58.0742 56.58C58.4075 55.838 58.7131 55.0839 59.061 54.2632C58.6836 54.3355 58.3415 54.3645 58.0238 54.4681C56.7349 54.8888 55.8083 55.6881 55.4998 57.0592C55.4274 57.381 55.4616 57.7283 55.4651 58.0634C55.4656 58.116 55.5594 58.1977 55.6231 58.2144C56.3037 58.3898 56.8124 58.7805 57.1545 59.4194C57.8878 59.2603 58.5603 59.405 59.1316 59.9131C59.6878 60.408 59.9436 61.0388 59.9042 61.8202C60.0217 61.7687 60.108 61.7351 60.1907 61.6946C61.5283 61.0417 62.8658 60.3895 64.2016 59.7343C65.1624 59.2632 66.2146 59.714 66.4999 60.7222C66.6052 61.0956 66.5589 61.2177 66.2487 61.4677C65.0784 62.4105 63.8514 63.2694 62.5318 63.99C62.3466 64.0913 62.2998 64.2082 62.3304 64.4032C62.3542 64.552 62.3628 64.7117 62.3351 64.8581C62.2847 65.1221 62.0717 65.2587 61.8072 65.2326C61.6926 65.221 61.5769 65.2181 61.464 65.1985C60.6769 65.0578 59.9696 65.2668 59.2444 65.581C57.8351 66.1911 56.3668 66.6425 54.8614 66.9626C54.7323 66.9898 54.6044 67.0216 54.4759 67.0511C54.0343 67.0505 53.5916 67.0505 53.1488 67.0505ZM57.8409 65.1585C57.8363 65.1348 57.8316 65.1111 57.827 65.0873C57.7344 65.0706 57.6418 65.0543 57.5492 65.037C56.6081 64.8593 55.6659 64.6886 54.7271 64.4993C54.3718 64.4281 54.1999 64.1897 54.2601 63.9223C54.3272 63.6242 54.5934 63.5027 54.9702 63.5964C55.3516 63.6913 55.733 63.7868 56.115 63.8777C57.5596 64.2203 59.0361 64.1584 60.5027 64.2215C60.7747 64.2331 61.0473 64.2232 61.339 64.2232C61.1642 63.7498 60.8262 63.5229 60.3794 63.4135C57.5324 62.7179 54.7769 61.7542 52.085 60.599C51.2736 60.2511 50.4373 59.9641 49.5477 59.894C49.1402 59.8616 48.9915 60.0208 48.9909 60.4329C48.9898 61.6732 48.9967 62.9135 48.9857 64.1538C48.9834 64.4374 49.0928 64.5925 49.3509 64.6967C50.2486 65.0596 51.1341 65.452 52.0364 65.8015C52.3814 65.9352 52.7552 66.0041 53.1216 66.0684C53.9145 66.2078 54.6895 66.0788 55.4523 65.8594C56.2504 65.6308 57.0451 65.3929 57.8409 65.1585ZM55.0026 44.8807C53.275 44.8749 51.7812 46.3566 51.7638 48.0923C51.7465 49.8246 53.2518 51.3433 54.9899 51.3467C56.7158 51.3502 58.2165 49.8616 58.2298 48.134C58.2432 46.3959 56.7453 44.8859 55.0026 44.8807ZM52.8293 59.8182C54.7653 60.7321 56.7829 61.448 58.852 62.039C58.8821 61.988 58.9076 61.9585 58.9186 61.9249C59.0638 61.4729 58.8995 60.9318 58.503 60.6036C58.0973 60.2679 57.6545 60.1817 57.1661 60.4334C56.7899 60.6273 56.5178 60.5017 56.3957 60.0954C56.3604 59.9768 56.3268 59.8535 56.2666 59.7476C55.7695 58.88 54.4539 58.8603 53.929 59.7094C53.7021 60.0763 53.5418 60.1197 53.1448 59.9334C53.0441 59.8865 52.9347 59.8564 52.8293 59.8182ZM65.5791 60.7946C65.4257 60.6869 65.3134 60.5469 65.1867 60.5324C64.9899 60.5098 64.7613 60.5243 64.5853 60.6071C63.3126 61.2073 62.0497 61.8283 60.7834 62.4429C60.7504 62.4591 60.7168 62.4753 60.7429 62.4626C61.1428 62.7202 61.5317 62.9708 61.9589 63.2457C63.1847 62.5778 64.3972 61.7664 65.5791 60.7946Z" fill="#F8B400"/>
<path d="M43.4498 59.2561C43.5829 59.0414 43.7658 58.9552 44.0268 58.9633C44.6322 58.9807 45.2388 58.9656 45.8448 58.9697C46.5607 58.9749 47.1412 59.5588 47.1429 60.2771C47.1458 61.5278 47.1464 62.778 47.1424 64.0287C47.14 64.7672 46.4687 65.3784 45.7377 65.3176C45.4807 65.2962 45.3059 65.1185 45.299 64.8731C45.2926 64.6283 45.4564 64.439 45.7099 64.3991C46.1434 64.3308 46.2215 64.2405 46.2215 63.8001C46.2221 62.6842 46.2227 61.5683 46.2215 60.4525C46.221 60.0381 46.0786 59.8928 45.6734 59.8911C45.2521 59.8893 44.8302 59.8905 44.3724 59.8905C44.3724 60.0126 44.3724 60.1145 44.3724 60.2169C44.3724 61.7078 44.3695 63.1987 44.3753 64.6896C44.3764 64.9588 44.3463 65.2001 44.0552 65.2974C43.7826 65.3882 43.6009 65.2337 43.4492 65.03C43.4498 63.105 43.4498 61.1806 43.4498 59.2561Z" fill="#F8B400"/>
<path d="M54.5184 50.1904C54.3199 50.1904 54.1393 50.1967 53.9588 50.1892C53.6711 50.1771 53.4871 49.982 53.4963 49.7117C53.505 49.4547 53.6862 49.2753 53.9657 49.2719C54.4918 49.2655 55.0185 49.2701 55.5585 49.2701C55.5585 49.0346 55.5585 48.8262 55.5585 48.575C55.0943 48.575 54.6272 48.575 54.1608 48.575C53.6208 48.575 53.4957 48.4523 53.4957 47.921C53.4957 47.469 53.4934 47.017 53.4963 46.5655C53.4992 46.2009 53.6601 46.0423 54.0247 46.0377C54.1856 46.0354 54.3465 46.0371 54.5225 46.0371C54.5723 45.6545 54.3975 45.1198 55.0052 45.1273C55.5926 45.1342 55.4219 45.6522 55.4694 46.0377C55.6563 46.0377 55.8357 46.0336 56.0151 46.0388C56.3103 46.0475 56.4955 46.2275 56.4949 46.4984C56.4944 46.7681 56.3092 46.9533 56.0128 46.9568C55.4948 46.9631 54.9768 46.9585 54.438 46.9585C54.438 47.1894 54.438 47.4042 54.438 47.6536C54.9068 47.6536 55.3744 47.6536 55.8427 47.6536C56.3751 47.6536 56.4949 47.7757 56.4949 48.3186C56.4949 48.7608 56.4973 49.203 56.4944 49.6457C56.492 50.0266 56.3311 50.1869 55.9526 50.1915C55.7998 50.1933 55.647 50.1921 55.4746 50.1921C55.4121 50.5648 55.595 51.0857 54.9693 51.1095C54.6504 51.121 54.5699 50.9422 54.5184 50.1904Z" fill="#F8B400"/>
<path d="M46.4 80.596C46.4 81.532 45.86 82.204 44.624 82.204H43.016V79.036H44.624C45.872 79.036 46.4 79.648 46.4 80.596ZM41.924 78.136V86.5H43.016V83.08H44.336L46.328 86.5H47.636L45.536 82.996C46.94 82.684 47.528 81.664 47.528 80.596C47.528 79.228 46.592 78.136 44.624 78.136H41.924ZM52.0208 80.74C53.1488 80.74 54.1088 81.448 54.0968 82.732H49.9448C50.0648 81.448 50.9528 80.74 52.0208 80.74ZM55.0928 84.472H53.9168C53.6768 85.18 53.0528 85.684 52.0688 85.684C50.9528 85.684 50.0168 84.952 49.9328 83.62H55.1888C55.2128 83.392 55.2248 83.2 55.2248 82.96C55.2248 81.16 53.9768 79.816 52.0688 79.816C50.1488 79.816 48.8168 81.124 48.8168 83.2C48.8168 85.288 50.1968 86.608 52.0688 86.608C53.7008 86.608 54.7568 85.672 55.0928 84.472ZM56.9062 84.7C56.9062 86.02 57.5662 86.5 58.7302 86.5H59.7142V85.576H58.9102C58.2382 85.576 57.9982 85.348 57.9982 84.7V80.824H59.7142V79.924H57.9982V78.268H56.9062V79.924H56.0542V80.824H56.9062V84.7ZM66.8693 79.924H65.7773V83.536C65.7773 84.952 65.0213 85.648 63.8933 85.648C62.7893 85.648 62.0573 84.964 62.0573 83.632V79.924H60.9773V83.776C60.9773 85.66 62.1653 86.596 63.6773 86.596C64.5533 86.596 65.3573 86.212 65.7773 85.528V86.5H66.8693V79.924ZM69.8051 82.924C69.8051 81.4 70.5971 80.932 71.6411 80.932H71.9291V79.804C70.8851 79.804 70.1771 80.26 69.8051 80.992V79.924H68.7131V86.5H69.8051V82.924ZM78.0016 86.5H79.0816V82.624C79.0816 80.74 77.9176 79.804 76.3936 79.804C75.5056 79.804 74.7136 80.176 74.2816 80.86V79.924H73.1896V86.5H74.2816V82.864C74.2816 81.448 75.0496 80.752 76.1656 80.752C77.2696 80.752 78.0016 81.436 78.0016 82.78V86.5ZM90.3046 83.2C90.3046 81.124 88.8526 79.816 86.9806 79.816C85.1206 79.816 83.6566 81.124 83.6566 83.2C83.6566 85.288 85.0726 86.608 86.9326 86.608C88.8046 86.608 90.3046 85.288 90.3046 83.2ZM84.7726 83.2C84.7726 81.544 85.8166 80.764 86.9686 80.764C88.0966 80.764 89.1886 81.544 89.1886 83.2C89.1886 84.868 88.0726 85.648 86.9326 85.648C85.7926 85.648 84.7726 84.868 84.7726 83.2ZM96.5524 86.5H97.6324V82.624C97.6324 80.74 96.4684 79.804 94.9444 79.804C94.0564 79.804 93.2644 80.176 92.8324 80.86V79.924H91.7404V86.5H92.8324V82.864C92.8324 81.448 93.6004 80.752 94.7164 80.752C95.8204 80.752 96.5524 81.436 96.5524 82.78V86.5ZM41.924 99.5H43.016V91.136H41.924V99.5ZM49.6891 99.5H50.7691V95.624C50.7691 93.74 49.6051 92.804 48.0811 92.804C47.1931 92.804 46.4011 93.176 45.9691 93.86V92.924H44.8771V99.5H45.9691V95.864C45.9691 94.448 46.7371 93.752 47.8531 93.752C48.9571 93.752 49.6891 94.436 49.6891 95.78V99.5ZM51.7729 92.924L54.3529 99.5H55.6249L58.2049 92.924H57.0409L55.0009 98.492L52.9489 92.924H51.7729ZM62.0755 93.74C63.2035 93.74 64.1635 94.448 64.1515 95.732H59.9995C60.1195 94.448 61.0075 93.74 62.0755 93.74ZM65.1475 97.472H63.9715C63.7315 98.18 63.1075 98.684 62.1235 98.684C61.0075 98.684 60.0715 97.952 59.9875 96.62H65.2435C65.2675 96.392 65.2795 96.2 65.2795 95.96C65.2795 94.16 64.0315 92.816 62.1235 92.816C60.2035 92.816 58.8715 94.124 58.8715 96.2C58.8715 98.288 60.2515 99.608 62.1235 99.608C63.7555 99.608 64.8115 98.672 65.1475 97.472ZM71.4489 97.712C71.4009 95.36 67.5849 96.212 67.5849 94.652C67.5849 94.124 68.0649 93.74 68.8689 93.74C69.7449 93.74 70.2489 94.22 70.2969 94.88H71.3889C71.3169 93.596 70.3569 92.816 68.9049 92.816C67.4409 92.816 66.4929 93.644 66.4929 94.652C66.4929 97.1 70.3809 96.248 70.3809 97.712C70.3809 98.252 69.9009 98.684 69.0369 98.684C68.1129 98.684 67.5489 98.204 67.4889 97.568H66.3609C66.4329 98.768 67.5129 99.608 69.0489 99.608C70.5009 99.608 71.4489 98.792 71.4489 97.712ZM73.2304 97.7C73.2304 99.02 73.8904 99.5 75.0544 99.5H76.0384V98.576H75.2344C74.5624 98.576 74.3224 98.348 74.3224 97.7V93.824H76.0384V92.924H74.3224V91.268H73.2304V92.924H72.3784V93.824H73.2304V97.7ZM86.8535 99.5H87.9335V95.624C87.9335 93.74 86.7695 92.804 85.2695 92.804C84.2615 92.804 83.3255 93.32 82.9415 94.268C82.5095 93.284 81.6095 92.804 80.5295 92.804C79.6655 92.804 78.8855 93.176 78.4535 93.872V92.924H77.3615V99.5H78.4535V95.876C78.4535 94.46 79.2095 93.752 80.3135 93.752C81.3935 93.752 82.1135 94.436 82.1135 95.78V99.5H83.1935V95.876C83.1935 94.46 83.9495 93.752 85.0535 93.752C86.1335 93.752 86.8535 94.436 86.8535 95.78V99.5ZM92.5208 93.74C93.6488 93.74 94.6088 94.448 94.5968 95.732H90.4448C90.5648 94.448 91.4528 93.74 92.5208 93.74ZM95.5928 97.472H94.4168C94.1768 98.18 93.5528 98.684 92.5688 98.684C91.4528 98.684 90.5168 97.952 90.4328 96.62H95.6888C95.7128 96.392 95.7248 96.2 95.7248 95.96C95.7248 94.16 94.4768 92.816 92.5688 92.816C90.6488 92.816 89.3168 94.124 89.3168 96.2C89.3168 98.288 90.6968 99.608 92.5688 99.608C94.2008 99.608 95.2568 98.672 95.5928 97.472ZM101.978 99.5H103.058V95.624C103.058 93.74 101.894 92.804 100.37 92.804C99.4822 92.804 98.6902 93.176 98.2582 93.86V92.924H97.1662V99.5H98.2582V95.864C98.2582 94.448 99.0262 93.752 100.142 93.752C101.246 93.752 101.978 94.436 101.978 95.78V99.5ZM105.082 97.7C105.082 99.02 105.742 99.5 106.906 99.5H107.89V98.576H107.086C106.414 98.576 106.174 98.348 106.174 97.7V93.824H107.89V92.924H106.174V91.268H105.082V92.924H104.23V93.824H105.082V97.7ZM113.941 97.712C113.893 95.36 110.077 96.212 110.077 94.652C110.077 94.124 110.557 93.74 111.361 93.74C112.237 93.74 112.741 94.22 112.789 94.88H113.881C113.809 93.596 112.849 92.816 111.397 92.816C109.933 92.816 108.985 93.644 108.985 94.652C108.985 97.1 112.873 96.248 112.873 97.712C112.873 98.252 112.393 98.684 111.529 98.684C110.605 98.684 110.041 98.204 109.981 97.568H108.853C108.925 98.768 110.005 99.608 111.541 99.608C112.993 99.608 113.941 98.792 113.941 97.712Z" fill="#768396"/>
</g>
<defs>
<filter id="filter0_d_8626_6920" x="0.8" y="0.52" width="159" height="133" filterUnits="userSpaceOnUse" color-interpolation-filters="sRGB">
<feFlood flood-opacity="0" result="BackgroundImageFix"/>
<feColorMatrix in="SourceAlpha" type="matrix" values="0 0 0 0 0 0 0 0 0 0 0 0 0 0 0 0 0 0 127 0" result="hardAlpha"/>
<feOffset dx="-2.2" dy="-4.48"/>
<feGaussianBlur stdDeviation="15"/>
<feComposite in2="hardAlpha" operator="out"/>
<feColorMatrix type="matrix" values="0 0 0 0 0.478431 0 0 0 0 0.529412 0 0 0 0 0.6 0 0 0 0.2 0"/>
<feBlend mode="normal" in2="BackgroundImageFix" result="effect1_dropShadow_8626_6920"/>
<feBlend mode="normal" in="SourceGraphic" in2="effect1_dropShadow_8626_6920" result="shape"/>
</filter>
</defs>
</svg>
