<svg width="45" height="15" viewBox="0 0 45 15" fill="none" xmlns="http://www.w3.org/2000/svg">
<rect width="44.4071" height="14.7257" rx="1" fill="#049E26" fill-opacity="0.13"/>
<path d="M16.5725 3.0043V9.6384L12.1897 3.0043H11.1V11.3628H12.1897V4.71671L16.5725 11.3628H17.6622V3.0043H16.5725ZM23.3039 2.92047C20.9568 2.92047 19.1127 4.68079 19.1127 7.18355C19.1127 9.6863 20.9568 11.4346 23.3039 11.4346C25.5672 11.4346 27.2077 9.77013 27.3993 7.69847V6.86022H22.9087V7.74637H26.2378C26.0701 9.39891 24.9445 10.4527 23.3039 10.4527C21.5436 10.4527 20.2264 9.18336 20.2264 7.18355C20.2264 5.17176 21.5436 3.90242 23.3039 3.90242C24.4775 3.90242 25.3875 4.46524 25.8426 5.43521H27.1479C26.5252 3.83057 25.0642 2.92047 23.3039 2.92047ZM33.3068 5.47113C33.3068 6.40517 32.7679 7.07577 31.5345 7.07577H29.9299V3.91439H31.5345C32.7799 3.91439 33.3068 4.52511 33.3068 5.47113ZM28.8402 3.01627V11.3628H29.9299V7.94994H31.2471L33.235 11.3628H34.5402L32.4446 7.86612C33.8457 7.55477 34.4324 6.5369 34.4324 5.47113C34.4324 4.10599 33.4984 3.01627 31.5345 3.01627H28.8402Z" fill="#768396"/>
</svg>
