<svg width="1280" height="803" viewBox="0 0 1280 803" fill="none" xmlns="http://www.w3.org/2000/svg">
<g clip-path="url(#clip0_9496_6692)">
<path d="M937.184 67.7973C875.317 79.3066 815.413 99.936 753.717 112.448C665.835 130.283 574.315 131.36 486.571 112.864C401.301 94.9333 312.885 51.1999 228.629 28.9812C153.909 9.26924 72.3306 1.1519 -0.000113134 25.7812L-0.00012207 128L1280 128L1280 98.8267C1170.7 57.3822 1052.15 46.6512 937.184 67.7973Z" fill="#F6F6F6"/>
</g>
<rect y="128" width="1280" height="547" fill="#F7F7F7"/>
<path d="M342.816 735.203C404.683 723.693 464.587 703.064 526.283 690.552C614.165 672.717 705.685 671.64 793.429 690.136C878.699 708.067 967.115 751.8 1051.37 774.019C1126.09 793.731 1207.67 801.848 1280 777.219V675H0V704.173C109.297 745.618 227.854 756.349 342.816 735.203Z" fill="#F6F6F6"/>
<defs>
<clipPath id="clip0_9496_6692">
<rect width="1280" height="128" fill="white" transform="translate(1280 128) rotate(-180)"/>
</clipPath>
</defs>
</svg>
