<svg width="15" height="15" viewBox="0 0 15 15" fill="none" xmlns="http://www.w3.org/2000/svg">
<path fill-rule="evenodd" clip-rule="evenodd" d="M7.07164 2.7992e-05C3.1662 2.76506e-05 0.000212675 3.16601 0.000212334 7.07145C0.000211992 10.9769 3.1662 14.1429 7.07164 14.1429C10.9771 14.1429 14.1431 10.9769 14.1431 7.07146C14.1431 3.16601 10.9771 2.83335e-05 7.07164 2.7992e-05ZM11.4357 6.68549L7.96211 3.21188C7.74895 2.99872 7.40335 2.99872 7.19019 3.21188C6.97703 3.42504 6.97703 3.77064 7.19019 3.98379L9.73202 6.52563L3.53637 6.52562L3.53637 7.61728L9.73202 7.61728L7.19019 10.1591C6.97703 10.3723 6.97703 10.7179 7.19019 10.931C7.40335 11.1442 7.74895 11.1442 7.96211 10.931L11.4357 7.45741C11.6489 7.24425 11.6489 6.89865 11.4357 6.68549Z" fill="#F8B400"/>
</svg>
