<?xml version="1.0" standalone="no"?>
<!DOCTYPE svg PUBLIC "-//W3C//DTD SVG 20010904//EN"
 "http://www.w3.org/TR/2001/REC-SVG-20010904/DTD/svg10.dtd">
<svg version="1.0" xmlns="http://www.w3.org/2000/svg"
 width="2280.000000pt" height="2280.000000pt" viewBox="0 0 2280.000000 2280.000000"
 preserveAspectRatio="xMidYMid meet">
<metadata>
Created by potrace 1.14, written by Peter Selinger 2001-2017
</metadata>
<g transform="translate(0.000000,2280.000000) scale(0.100000,-0.100000)"
fill="#000000" stroke="none">
<path d="M2875 15045 c-33 -20 -67 -40 -75 -45 -74 -45 -154 -90 -161 -90 -5
0 -9 -4 -9 -8 0 -4 -24 -20 -52 -35 -29 -15 -82 -46 -118 -68 -36 -23 -84 -52
-108 -65 -44 -25 -72 -41 -132 -79 -70 -44 -360 -215 -365 -215 -4 0 -59 -34
-160 -98 -11 -6 -27 -15 -35 -19 -8 -4 -17 -9 -20 -13 -3 -3 -26 -17 -52 -30
-27 -14 -48 -28 -48 -32 0 -5 -5 -8 -10 -8 -8 0 -385 -220 -480 -280 -8 -5
-42 -25 -75 -45 -33 -19 -78 -46 -100 -60 -22 -14 -47 -28 -55 -32 -8 -4 -50
-29 -92 -55 -43 -26 -82 -48 -88 -48 -5 0 -10 -4 -10 -8 0 -5 -18 -17 -40 -27
-22 -10 -45 -24 -51 -31 -6 -8 -15 -12 -19 -9 -4 2 -15 -4 -25 -15 -10 -11
-24 -20 -30 -20 -7 0 -23 -8 -35 -18 l-23 -18 106 -62 c59 -34 111 -62 117
-62 5 0 10 -4 10 -10 0 -5 4 -10 10 -10 5 0 76 -39 156 -86 81 -47 154 -88
163 -91 9 -3 23 -11 31 -18 8 -7 35 -23 60 -36 25 -13 47 -26 50 -29 3 -3 14
-10 25 -16 25 -14 104 -57 136 -75 13 -8 26 -16 29 -19 3 -3 23 -14 45 -26 80
-42 140 -77 156 -90 8 -8 19 -14 23 -14 3 0 65 -34 136 -75 71 -41 134 -75
139 -75 5 0 11 -3 13 -8 3 -8 163 -102 173 -102 4 0 25 -13 48 -28 23 -15 56
-34 72 -42 17 -8 32 -17 35 -20 3 -3 23 -15 46 -27 l41 -22 94 57 c52 31 115
68 142 82 26 14 47 28 47 32 0 3 12 11 28 17 15 7 36 17 47 24 177 108 245
147 254 147 6 0 11 4 11 8 0 5 18 17 40 27 22 10 40 21 40 25 0 16 37 16 65
-1 17 -10 55 -31 85 -47 65 -34 103 -55 110 -62 3 -3 19 -12 35 -20 17 -8 50
-26 75 -41 25 -14 75 -42 112 -62 l66 -36 25 19 c14 11 28 20 32 20 7 0 75 40
150 87 11 7 38 22 59 34 22 12 46 28 54 35 7 8 17 14 22 14 5 0 56 29 115 65
58 36 110 65 115 65 6 0 10 5 10 10 0 6 4 10 9 10 8 0 229 128 254 148 7 5 37
22 67 38 30 16 60 33 65 37 22 18 328 197 336 197 5 0 9 5 9 10 0 6 4 10 9 10
10 0 305 172 376 219 22 15 52 33 68 41 15 7 27 17 27 20 0 4 -30 24 -67 44
-38 20 -99 54 -138 77 -38 22 -78 42 -87 46 -10 3 -18 10 -18 16 0 6 -3 7 -7
4 -3 -4 -13 -1 -22 7 -9 8 -45 29 -81 46 -36 18 -72 38 -80 45 -8 7 -46 29
-85 49 -38 20 -77 41 -85 46 -46 29 -146 84 -150 83 -3 -1 -12 4 -20 11 -8 7
-22 16 -30 19 -8 4 -42 22 -75 42 -33 19 -71 41 -85 48 -14 6 -31 17 -38 24
-8 7 -18 11 -23 8 -5 -4 -9 -3 -9 2 0 4 -21 19 -47 33 -27 14 -102 56 -168 93
-66 38 -145 83 -175 99 -30 17 -77 43 -105 58 -27 16 -77 43 -110 60 -33 18
-68 39 -77 48 -10 8 -18 11 -18 7 0 -4 -8 -2 -17 6 -18 14 -29 21 -112 67 -25
14 -80 44 -121 67 -116 66 -140 79 -220 123 l-76 41 -59 -34z"/>
<path d="M6915 14605 c-84 -20 -166 -66 -227 -128 -54 -54 -95 -113 -90 -129
1 -5 -2 -8 -6 -8 -8 0 -31 -61 -39 -105 -2 -11 -5 -161 -7 -332 -3 -312 -3
-313 18 -314 12 0 424 -1 916 -2 l895 -2 0 -1806 -1 -1806 622 0 622 0 4 21
c1 12 3 824 2 1806 l-1 1786 2876 -2 c1582 0 2892 -4 2911 -8 73 -15 164 -47
222 -78 127 -67 180 -155 180 -298 0 -41 -3 -85 -5 -96 -10 -40 -55 -119 -87
-151 -57 -58 -204 -126 -303 -140 -23 -3 -762 -6 -1642 -7 l-1600 -1 -1 -1416
0 -1416 1733 0 c953 1 1733 3 1733 6 0 3 29 7 65 8 82 3 297 44 396 76 279 91
540 273 702 491 60 80 137 211 137 232 0 8 5 14 10 14 6 0 10 6 10 13 0 8 7
28 15 45 9 17 18 40 20 51 2 11 9 29 15 40 6 12 8 21 5 21 -3 0 1 14 10 30 9
17 13 30 11 30 -3 0 0 15 5 33 5 17 12 48 15 67 3 19 8 44 11 55 10 33 14 94
15 205 1 109 -4 151 -28 260 -8 36 -17 76 -20 89 -7 35 -45 140 -67 191 -11
25 -21 47 -22 50 -3 16 -59 117 -85 155 -16 24 -30 46 -30 49 0 6 -32 46 -61
76 -17 18 -14 35 12 64 10 10 31 38 46 60 15 23 30 43 33 46 30 30 145 282
137 301 -1 3 3 12 10 20 6 8 14 31 18 52 4 20 11 40 16 43 5 3 7 10 3 15 -3 5
-1 24 5 42 30 97 45 340 27 442 -6 34 -37 180 -41 195 -1 3 -5 19 -10 35 -21
79 -88 229 -156 352 -62 110 -170 236 -289 335 -67 55 -208 148 -225 148 -8 0
-15 4 -17 8 -4 10 -191 92 -210 92 -8 0 -18 3 -22 8 -4 4 -12 8 -17 8 -5 1
-10 2 -11 4 -2 1 -10 3 -18 5 -8 1 -35 8 -60 15 -70 19 -170 40 -225 46 -27 3
-61 8 -75 12 -14 3 -1985 6 -4380 7 -3331 2 -4367 -1 -4405 -10z m8518 -2839
c42 -10 119 -35 147 -49 50 -23 143 -89 164 -115 26 -33 58 -92 50 -92 -4 0
-1 -6 5 -14 10 -12 15 -111 10 -181 -3 -45 -60 -145 -102 -179 -75 -61 -198
-107 -327 -123 -30 -4 -482 -7 -1005 -8 l-950 0 -3 385 -2 386 992 -2 c546 0
1006 -4 1021 -8z"/>
<path d="M18210 14612 c-46 -6 -125 -34 -170 -60 -46 -26 -160 -134 -160 -151
0 -5 -6 -16 -12 -23 -7 -7 -19 -29 -27 -48 -33 -86 -38 -137 -37 -387 1 -139
-3 -253 -7 -253 -5 0 -5 -5 -1 -12 10 -15 11 -407 2 -435 -4 -13 -4 -23 0 -23
4 0 7 -110 7 -245 0 -135 -4 -245 -8 -245 -5 0 -5 -5 -1 -11 10 -16 11 -309 1
-309 -5 0 -5 -5 -1 -12 10 -15 11 -407 2 -435 -4 -13 -4 -23 0 -23 4 0 7 -110
7 -245 0 -135 -4 -245 -8 -245 -5 0 -5 -5 -1 -12 10 -15 11 -407 2 -435 -4
-13 -4 -23 0 -23 4 0 7 -110 7 -245 0 -135 -4 -245 -8 -245 -5 0 -5 -5 -1 -12
10 -15 11 -407 2 -435 -4 -13 -4 -23 1 -23 4 0 7 -10 6 -23 l-3 -24 624 0 624
0 0 902 0 901 1205 0 c831 0 1205 -3 1206 -11 1 -5 2 -323 3 -705 2 -692 3
-695 25 -759 55 -156 189 -280 347 -317 45 -11 864 -13 870 -2 4 7 8 4467 4
4620 0 15 -50 16 -622 15 l-623 -2 -1 -900 c-1 -495 -2 -902 -3 -905 -1 -3
-543 -5 -1206 -5 l-1205 0 0 906 0 907 -407 -1 c-225 -1 -419 -3 -433 -5z"/>
<path d="M5658 13507 c-88 -53 -255 -153 -273 -163 -11 -6 -100 -59 -199 -117
-98 -59 -182 -107 -187 -107 -5 0 -9 -4 -9 -8 0 -4 -19 -18 -42 -30 -24 -12
-61 -33 -83 -47 -22 -14 -47 -28 -55 -32 -8 -4 -31 -18 -50 -31 -19 -13 -44
-28 -55 -33 -11 -6 -29 -15 -40 -22 -11 -7 -110 -66 -220 -131 -110 -65 -270
-160 -355 -211 -184 -110 -512 -305 -557 -331 -199 -117 -256 -151 -270 -160
-14 -10 -5 -18 58 -53 41 -22 80 -41 87 -41 6 0 12 -4 12 -10 0 -5 5 -10 11
-10 6 0 24 -9 40 -21 16 -11 29 -17 29 -14 0 3 12 -2 28 -13 15 -10 61 -36
102 -58 41 -21 77 -41 80 -44 3 -3 21 -13 40 -22 19 -10 76 -39 125 -66 50
-28 117 -64 150 -82 33 -18 78 -42 100 -55 22 -12 69 -38 105 -57 142 -76 185
-100 195 -109 5 -5 17 -9 26 -9 10 0 19 -4 21 -8 3 -7 179 -105 245 -136 13
-6 23 -14 23 -18 0 -5 9 -8 20 -8 11 0 20 -3 20 -8 0 -4 10 -12 23 -17 20 -9
22 -17 24 -110 6 -346 14 -1004 13 -1025 -1 -14 -1 -29 -1 -35 0 -5 3 -210 6
-455 3 -244 8 -446 10 -448 2 -2 42 19 88 47 47 28 88 51 91 51 4 0 12 5 19
10 13 11 277 170 282 170 2 0 40 23 85 51 77 47 120 73 180 106 14 8 52 31 85
52 l60 38 -2 234 c-2 245 -10 915 -19 1544 -3 204 -5 376 -5 383 1 6 1 18 1
25 1 14 -6 526 -16 1167 -3 245 -6 457 -5 473 1 15 0 27 -1 27 -2 -1 -19 -11
-40 -23z"/>
<path d="M6 12848 c3 -260 6 -537 7 -615 l2 -142 35 -18 c19 -10 42 -23 50
-29 8 -6 60 -35 115 -64 55 -29 124 -66 153 -81 28 -16 76 -42 105 -58 28 -15
102 -55 162 -88 61 -33 146 -80 190 -104 44 -23 98 -53 120 -66 22 -12 58 -31
80 -43 22 -11 72 -38 110 -60 39 -22 84 -46 100 -54 17 -8 66 -35 110 -59 44
-24 116 -63 160 -87 44 -24 115 -63 157 -87 43 -23 79 -43 82 -43 2 0 33 -16
68 -36 34 -20 90 -51 123 -69 172 -93 209 -112 310 -168 61 -33 135 -73 165
-90 126 -68 146 -80 158 -89 6 -6 12 -7 12 -4 0 4 17 -5 37 -19 21 -14 41 -25
44 -25 4 0 53 -26 110 -58 57 -33 138 -77 179 -99 152 -81 237 -127 303 -165
38 -21 73 -38 78 -38 6 0 8 -4 4 -9 -3 -5 -1 -12 4 -16 7 -3 7 -15 1 -29 -5
-13 -7 -26 -4 -28 4 -5 12 -478 19 -1213 2 -214 5 -391 5 -392 5 -9 2 -61 -3
-70 -4 -7 -4 -14 0 -16 5 -3 8 -61 7 -130 l0 -125 40 23 c23 13 110 64 194
114 84 50 156 91 158 91 3 0 10 5 17 10 11 10 328 200 333 200 1 0 31 18 65
40 35 22 76 45 92 51 15 6 27 14 27 19 0 4 8 10 17 14 10 3 36 16 58 30 l39
24 -1 128 c-8 519 -14 955 -17 1286 -3 213 -7 391 -10 396 -2 4 -1 14 4 22 4
7 6 19 3 27 -3 7 -6 57 -7 109 l-1 96 -45 26 c-25 14 -64 36 -88 49 -24 13
-67 36 -95 52 -29 15 -92 50 -142 76 -49 27 -102 57 -117 67 -16 11 -28 16
-28 12 0 -3 -6 -1 -14 5 -7 6 -35 23 -62 37 -66 35 -240 130 -334 182 -25 13
-83 45 -130 70 -47 25 -110 59 -140 76 -30 17 -68 38 -85 46 -16 8 -32 17 -35
20 -3 3 -27 17 -55 31 -27 14 -81 43 -120 64 -38 21 -83 45 -100 53 -16 8 -42
24 -57 34 -16 11 -28 16 -28 13 0 -3 -12 2 -27 13 -16 10 -68 40 -118 67 -49
26 -110 59 -135 73 -25 13 -76 41 -115 62 -38 21 -88 48 -110 60 -22 12 -71
39 -110 60 -38 21 -108 58 -154 84 -46 25 -87 46 -92 46 -4 0 -14 6 -21 13 -7
6 -33 22 -58 35 -25 12 -79 41 -120 63 -69 38 -109 60 -260 141 -30 17 -73 40
-95 52 -22 12 -76 42 -120 66 -44 24 -119 65 -168 92 -48 26 -92 48 -97 48 -6
0 -10 5 -10 11 0 5 -4 8 -9 4 -5 -3 -12 -1 -16 5 -3 5 -23 17 -43 27 -20 9
-39 19 -42 22 -3 4 -23 15 -45 26 -22 11 -69 36 -105 56 -72 40 -172 94 -270
147 -36 19 -83 44 -105 57 -22 12 -80 43 -130 70 -50 26 -94 52 -99 56 -6 5
-13 9 -18 9 -4 0 -5 -213 -2 -472z"/>
<path d="M28 11564 c-3 -3 -4 -141 -2 -307 2 -166 6 -465 8 -664 2 -199 7
-366 10 -372 4 -5 2 -12 -3 -16 -7 -3 -7 -15 -1 -29 5 -13 6 -26 3 -30 -3 -3
-5 -29 -4 -58 1 -29 3 -121 4 -205 1 -83 5 -154 7 -156 10 -8 78 -46 165 -92
50 -27 104 -56 120 -65 17 -9 66 -36 110 -60 44 -24 89 -48 100 -54 11 -6 28
-17 38 -25 9 -8 17 -11 17 -6 0 4 6 3 13 -3 6 -5 39 -24 72 -42 136 -73 193
-105 248 -136 32 -19 61 -34 63 -34 3 0 19 -9 35 -21 16 -11 29 -17 29 -14 0
3 12 -2 28 -13 15 -10 45 -28 67 -39 22 -11 69 -37 105 -57 36 -20 77 -42 93
-47 15 -6 27 -15 27 -20 0 -5 9 -9 20 -9 11 0 20 -3 20 -8 0 -4 17 -15 38 -25
49 -23 136 -70 142 -77 3 -3 25 -15 50 -27 25 -12 77 -40 115 -61 39 -21 102
-55 140 -77 91 -50 144 -79 230 -125 39 -20 90 -49 115 -62 25 -14 74 -41 110
-60 36 -19 81 -44 100 -55 20 -11 71 -39 115 -63 44 -24 93 -50 110 -60 57
-32 224 -120 227 -120 2 0 2 28 1 62 -1 35 -4 273 -7 531 -3 257 -8 472 -11
477 -3 5 -1 11 5 15 6 4 8 11 5 16 -4 5 -8 172 -10 371 -3 199 -8 365 -13 370
-8 8 -295 167 -457 253 -99 52 -187 100 -240 130 -22 13 -69 38 -105 57 -36
19 -81 44 -101 55 -19 12 -80 44 -134 73 -54 29 -112 60 -129 69 -17 10 -137
75 -266 145 -129 71 -282 154 -340 186 -58 31 -136 74 -173 94 -37 20 -82 45
-100 55 -18 10 -64 35 -102 55 -39 21 -97 52 -130 70 -33 18 -89 49 -125 68
-36 19 -85 46 -110 60 -25 14 -106 58 -180 98 -74 40 -140 76 -146 81 -6 5
-13 6 -16 3z"/>
<path d="M13913 9270 c-127 -28 -156 -184 -50 -264 21 -15 42 -21 83 -20 47 0
58 4 88 33 49 48 61 122 30 183 -26 50 -93 80 -151 68z"/>
<path d="M7759 9200 c-3 -38 -4 -1446 -2 -1455 3 -10 210 -12 220 -2 3 3 5
158 6 344 0 290 2 346 17 390 39 119 126 178 260 177 123 -2 205 -58 246 -167
17 -47 19 -85 21 -387 1 -184 2 -342 2 -350 1 -12 18 -15 98 -13 54 1 104 2
111 2 16 1 17 678 1 766 -33 178 -178 327 -330 340 -14 1 -30 4 -35 7 -12 7
-122 2 -166 -7 -53 -11 -150 -60 -186 -94 -18 -17 -35 -31 -36 -31 -2 0 -4
108 -4 240 0 133 -2 244 -6 247 -4 4 -54 7 -111 8 -87 0 -105 -2 -106 -15z"/>
<path d="M21630 9212 c-13 -2 -15 -96 -13 -720 1 -394 2 -726 2 -737 1 -21 9
-21 201 -16 25 1 25 2 23 77 l-1 75 49 -46 c87 -81 216 -128 344 -124 58 2
194 33 205 47 3 4 19 14 35 22 40 20 161 142 170 171 4 13 11 26 15 29 9 5 48
110 57 150 3 14 7 75 9 135 4 136 -12 212 -69 324 -22 44 -133 171 -150 171
-5 0 -21 9 -36 19 -15 11 -58 29 -95 41 -168 55 -376 9 -487 -105 -19 -19 -37
-35 -40 -35 -3 0 -5 113 -5 251 1 138 -2 256 -6 262 -6 10 -166 17 -208 9z
m675 -586 c181 -83 251 -324 153 -524 -47 -96 -136 -164 -229 -176 -19 -3 -36
-5 -39 -6 -3 -1 -16 -2 -30 -2 -136 3 -261 106 -300 247 -38 135 0 324 76 384
13 10 21 21 18 24 -9 8 100 66 142 75 64 14 151 5 209 -22z"/>
<path d="M6578 9125 c0 0 -2 -42 -3 -92 l-1 -93 30 -1 c17 0 99 0 183 0 l152
1 1 -285 c1 -157 1 -291 1 -297 0 -7 0 -114 0 -238 0 -263 0 -245 -1 -316 -1
-31 1 -58 3 -61 5 -4 120 -7 192 -4 l30 1 0 598 0 597 170 2 c94 1 175 2 181
2 13 1 20 180 7 182 -6 1 -758 4 -945 4z"/>
<path d="M10255 9105 c-2 -11 -3 -323 -3 -692 l1 -673 31 -1 c126 -4 589 1
621 6 203 34 333 166 341 346 5 116 -31 207 -111 282 -35 33 -120 79 -129 70
-3 -4 -6 -2 -6 4 0 5 17 18 38 27 44 20 98 67 129 111 55 79 65 229 21 321
-27 59 -97 131 -155 161 -94 49 -147 56 -471 57 -296 1 -303 1 -307 -19z m593
-178 c72 -19 129 -84 138 -160 13 -102 -41 -186 -136 -215 -8 -2 -95 -6 -192
-8 l-178 -3 -1 27 c-1 31 -1 366 0 369 2 5 348 -5 369 -10z m33 -587 c19 -8
36 -16 39 -20 3 -3 17 -13 32 -23 60 -38 88 -151 60 -236 -21 -62 -76 -111
-142 -127 -45 -10 -372 -13 -385 -3 -6 4 -9 86 -8 216 1 114 2 208 2 209 1 0
83 0 184 -1 131 -1 193 -5 218 -15z"/>
<path d="M18953 9117 c-7 -11 -6 -1367 0 -1374 8 -7 207 -7 214 1 4 3 7 140 7
303 l1 298 318 0 c274 0 318 -2 321 -15 2 -8 4 -134 4 -280 0 -146 1 -276 1
-290 l1 -25 106 1 c62 1 109 5 112 12 5 7 8 1343 3 1372 -1 8 -209 5 -217 -3
-4 -4 -8 -136 -8 -294 l-1 -288 -321 -3 -321 -2 -1 287 c0 159 -1 293 -1 298
-1 12 -211 14 -218 2z"/>
<path d="M9410 8848 c-50 -7 -66 -12 -125 -34 -11 -4 -26 -8 -34 -10 -7 -1
-23 -12 -35 -23 -13 -12 -25 -19 -28 -16 -3 3 -33 -22 -66 -56 -108 -110 -160
-252 -157 -429 2 -143 31 -241 97 -338 102 -149 264 -225 463 -218 113 5 119
6 195 36 106 42 201 130 251 234 15 33 26 62 24 66 -3 5 -207 6 -237 1 -5 0
-8 -6 -8 -12 0 -21 -83 -98 -122 -114 -122 -48 -288 -10 -365 85 -20 24 -54
96 -59 126 -6 35 -7 37 -5 49 1 7 143 10 408 9 289 -1 410 2 415 10 11 17 9
168 -3 228 -6 29 -17 67 -25 85 -8 17 -14 35 -14 40 0 13 -65 105 -97 138
-117 117 -289 169 -473 143z m198 -205 c93 -29 178 -128 187 -218 3 -30 0 -35
-18 -36 -12 -1 -147 -2 -300 -3 l-278 -1 5 38 c8 54 53 133 98 170 50 42 146
74 206 70 26 -2 71 -11 100 -20z"/>
<path d="M13108 8855 c-2 -2 -21 -4 -43 -6 -22 -1 -46 -8 -54 -13 -8 -6 -16
-10 -18 -8 -6 6 -63 -9 -63 -17 0 -4 -6 -8 -14 -8 -14 0 -106 -63 -106 -73 0
-3 -10 -16 -21 -29 -56 -60 -71 -195 -31 -282 47 -103 113 -143 362 -219 69
-21 139 -45 155 -54 17 -9 35 -16 40 -16 13 0 49 -60 49 -80 -4 -89 -78 -139
-205 -136 -96 3 -154 35 -192 106 l-28 55 -102 1 c-112 0 -126 -2 -123 -19 17
-89 43 -142 100 -204 22 -24 45 -43 53 -43 7 0 13 -4 13 -8 0 -8 36 -26 125
-62 64 -26 282 -21 350 9 11 5 37 16 57 25 57 25 130 105 152 166 20 55 23
175 6 198 -2 1 -3 5 -4 10 -8 34 -81 122 -103 122 -7 0 -13 4 -13 9 0 9 -120
59 -190 80 -19 6 -66 20 -105 31 -150 45 -200 89 -191 163 8 73 66 107 181
109 59 2 126 -21 153 -52 18 -21 51 -93 47 -101 -3 -3 48 -6 111 -7 l116 0 -6
37 c-12 71 -16 83 -40 124 -74 124 -175 178 -358 191 -31 2 -58 2 -60 1z"/>
<path d="M14785 8840 c-74 -18 -143 -55 -185 -99 l-25 -26 -5 60 -5 61 -105 0
c-58 1 -107 -2 -110 -7 -4 -5 -5 -993 -1 -1074 1 -19 7 -20 107 -18 58 1 108
3 110 6 3 2 5 156 5 341 1 362 5 396 54 466 51 74 135 111 237 105 74 -4 122
-22 163 -62 86 -82 89 -101 90 -502 1 -310 3 -345 18 -350 14 -5 74 -6 185 -2
l22 1 0 348 c0 191 -5 375 -10 410 -30 185 -149 307 -340 349 -51 11 -144 8
-205 -7z"/>
<path d="M16015 8849 c-150 -20 -267 -84 -351 -194 -79 -101 -109 -206 -108
-375 1 -92 3 -111 25 -193 43 -164 202 -311 379 -353 55 -13 217 -13 274 1
157 37 306 170 350 310 6 20 2 21 -113 20 -66 0 -121 -2 -123 -5 -2 -3 -14
-21 -28 -41 -64 -98 -229 -136 -351 -82 -55 25 -124 85 -146 127 -26 50 -43
125 -30 133 5 3 193 7 416 7 l406 1 0 120 c-1 127 -9 162 -56 257 -30 61 -47
84 -96 132 -47 46 -56 52 -110 79 -100 51 -223 72 -338 56z m160 -197 c3 -1
16 -4 30 -8 14 -3 25 -10 25 -16 0 -5 5 -6 10 -3 6 3 35 -18 65 -48 41 -41 57
-67 67 -103 25 -96 51 -88 -267 -88 -154 -1 -290 0 -301 2 -20 4 -21 6 -9 47
8 24 21 57 29 74 21 40 77 101 93 101 7 0 13 4 13 9 0 12 55 32 105 38 22 3
41 6 43 7 2 2 83 -8 97 -12z"/>
<path d="M17115 8845 c-38 -7 -72 -13 -75 -14 -3 -2 -28 -14 -57 -27 -67 -32
-123 -87 -154 -149 -19 -41 -24 -64 -23 -125 2 -111 36 -172 131 -234 39 -26
200 -85 273 -101 19 -4 40 -11 45 -15 6 -4 32 -13 59 -21 71 -20 116 -65 116
-116 0 -79 -76 -129 -195 -129 -108 1 -196 54 -210 127 -3 12 -7 24 -10 27 -7
8 -213 9 -225 2 -13 -8 7 -87 38 -143 69 -128 223 -205 412 -205 238 -1 408
129 411 314 1 129 -56 212 -191 275 -45 22 -73 31 -200 69 -185 55 -234 90
-228 165 5 85 102 133 227 112 83 -14 151 -75 151 -135 0 -18 8 -19 113 -18
l112 1 0 25 c0 36 -25 109 -52 152 -83 134 -264 197 -468 163z"/>
<path d="M18217 8854 c-1 -1 -18 -4 -37 -7 -48 -6 -114 -25 -142 -40 -44 -24
-83 -52 -96 -70 -8 -10 -22 -25 -32 -35 -38 -36 -71 -198 -48 -238 3 -5 8 -22
12 -37 12 -50 123 -153 176 -163 3 0 16 -5 30 -11 14 -6 66 -23 115 -38 259
-78 296 -103 289 -190 -4 -37 -56 -87 -108 -102 -50 -15 -151 -10 -196 9 -46
20 -86 62 -100 104 -6 19 -15 35 -18 35 -33 6 -210 3 -218 -3 -15 -11 15 -114
47 -160 58 -85 165 -153 274 -176 49 -11 220 -10 260 1 48 13 117 45 159 74
145 103 162 327 32 439 -59 52 -122 79 -362 153 -129 40 -174 78 -170 146 5
89 95 133 233 112 74 -11 130 -59 143 -122 l6 -30 112 -1 113 -2 -5 37 c-7 55
-13 75 -35 119 -24 46 -91 118 -121 127 -11 3 -20 10 -20 15 0 5 -13 11 -30
15 -16 4 -30 11 -30 16 0 5 -3 8 -7 7 -5 -1 -33 2 -63 7 -51 7 -158 14 -163 9z"/>
<path d="M11486 8831 c-1 -3 -2 -168 -1 -366 1 -258 5 -376 14 -415 47 -194
200 -317 407 -325 122 -5 243 36 312 105 17 16 32 30 34 30 2 0 3 -21 1 -47
-3 -80 -5 -78 104 -76 54 1 103 2 109 2 8 1 11 157 10 549 l-1 547 -110 0
-110 0 -1 -325 c0 -179 -4 -343 -9 -365 -5 -22 -9 -42 -9 -45 -1 -3 -5 -11 -9
-17 -5 -7 -5 -13 -1 -13 6 0 -38 -62 -62 -87 -48 -49 -183 -75 -271 -52 -52
14 -107 53 -136 97 -21 33 -29 54 -44 112 -2 8 -5 168 -6 355 l-2 340 -108 1
c-59 0 -109 -2 -111 -5z"/>
<path d="M13825 8292 c1 -501 2 -546 18 -551 19 -7 196 -5 203 2 4 4 8 979 4
1077 0 12 -20 15 -112 16 l-113 2 0 -546z"/>
<path d="M20329 8790 c-6 -499 2 -723 28 -790 3 -8 7 -20 8 -26 10 -45 132
-184 161 -184 8 0 14 -4 14 -9 0 -4 30 -18 68 -31 163 -54 358 -19 454 82 32
33 37 28 33 -35 -1 -26 2 -50 8 -54 8 -5 102 -7 197 -4 l25 1 -2 523 c-1 287
-2 534 -2 548 l-1 26 -110 0 c-70 -1 -110 -5 -111 -11 -1 -6 -2 -167 -3 -357
-1 -256 -5 -350 -14 -361 -6 -8 -10 -17 -7 -20 12 -12 -64 -105 -108 -132 -40
-24 -59 -29 -125 -32 -79 -2 -152 15 -179 42 -8 8 -23 19 -34 24 -10 6 -19 17
-19 25 0 8 -4 15 -8 15 -7 0 -31 54 -39 90 -10 41 -12 100 -12 396 l-1 320
-110 0 -110 0 -1 -46z"/>
</g>
</svg>
