<svg width="25" height="25" viewBox="0 0 25 25" fill="none" xmlns="http://www.w3.org/2000/svg">
<path fill-rule="evenodd" clip-rule="evenodd" d="M12.0061 0.324714C5.37532 0.324713 9.25868e-06 5.70003 8.679e-06 12.3308C8.09932e-06 18.9616 5.37532 24.3369 12.0061 24.3369C18.6369 24.3369 24.0122 18.9616 24.0122 12.3308C24.0122 5.70003 18.6369 0.324714 12.0061 0.324714ZM19.4148 11.6757L13.5172 5.77807C13.1553 5.41617 12.5685 5.41617 12.2066 5.77807C11.8447 6.13998 11.8447 6.72675 12.2066 7.08865L16.5222 11.4043L6.00301 11.4043L6.00301 13.2577L16.5222 13.2577L12.2066 17.5733C11.8447 17.9352 11.8447 18.522 12.2066 18.8839C12.5685 19.2458 13.1553 19.2458 13.5172 18.8839L19.4148 12.9863C19.7767 12.6244 19.7767 12.0376 19.4148 11.6757Z" fill="#F8B400"/>
</svg>
