<svg width="14" height="14" viewBox="0 0 14 14" fill="none" xmlns="http://www.w3.org/2000/svg">
<path d="M6.81393 0C6.9426 0 7.06853 0 7.19719 0C7.24099 0.00547517 7.28753 0.0136879 7.33133 0.0191631C7.68174 0.0629644 8.03763 0.0821275 8.3853 0.153305C9.95394 0.470864 11.2625 1.24013 12.3083 2.45014C13.1925 3.47673 13.7318 4.66484 13.9234 6.009C13.9508 6.20884 13.9754 6.41142 14.0028 6.614C14.0028 6.90419 14.0028 7.19711 14.0028 7.48729C13.9946 7.52288 13.9809 7.55573 13.9782 7.59132C13.9289 8.2675 13.7811 8.92178 13.5265 9.54869C12.7271 11.5088 11.3337 12.8639 9.34893 13.5976C8.95198 13.7454 8.53313 13.8303 8.11154 13.948C8.11154 12.2917 8.11154 10.6738 8.11154 9.04497C8.65085 9.04497 9.18194 9.04497 9.72398 9.04497C9.82801 8.37427 9.9293 7.71177 10.0333 7.03285C9.37905 7.03285 8.74666 7.03285 8.11154 7.03285C8.11154 6.50997 8.08143 5.99804 8.11976 5.49433C8.15535 5.03442 8.44279 4.76339 8.90544 4.67305C9.07791 4.6402 9.25859 4.63747 9.4338 4.63199C9.65554 4.62652 9.87729 4.62925 10.1072 4.62925C10.1072 4.05436 10.1072 3.49589 10.1072 2.93469C10.0799 2.92648 10.0552 2.91005 10.0306 2.90731C9.38452 2.82245 8.73845 2.73485 8.08691 2.81697C7.53118 2.88815 7.03294 3.08799 6.63325 3.49589C6.11311 4.02425 5.9379 4.68674 5.92148 5.40125C5.91053 5.89675 5.92148 6.39499 5.92148 6.8905C5.92148 6.9343 5.91874 6.9781 5.916 7.03285C5.85578 7.03285 5.80376 7.03285 5.75449 7.03285C5.2672 7.03285 4.77991 7.03559 4.29262 7.03011C4.1749 7.02738 4.14752 7.0657 4.15026 7.17794C4.15574 7.75557 4.153 8.3332 4.153 8.91357C4.153 8.95737 4.15847 9.00117 4.16121 9.05593C4.75801 9.05593 5.33837 9.05593 5.916 9.05593C5.916 10.6848 5.916 12.3 5.916 13.9179C5.8722 13.9124 5.83388 13.9124 5.79829 13.9042C4.07909 13.5784 2.65007 12.7626 1.56598 11.3993C0.12054 9.58154 -0.322949 7.5174 0.230043 5.26437C0.651631 3.55065 1.63716 2.20649 3.09082 1.21001C3.98601 0.596793 4.97701 0.219007 6.05562 0.0793899C6.30748 0.0492765 6.56207 0.0273758 6.81393 0Z" fill="black"/>
</svg>
