<svg width="28" height="28" viewBox="0 0 28 28" fill="none" xmlns="http://www.w3.org/2000/svg">
<path d="M12.6563 27.2176C9.84181 27.2176 7.02736 27.2176 4.2129 27.2176C4.17325 27.2012 4.13465 27.1763 4.09341 27.1695C2.13815 26.8522 0.73436 25.2364 0.732774 23.2706C0.728015 16.8925 0.727486 10.5149 0.732774 4.13674C0.734889 1.95359 2.49029 0.197137 4.67237 0.195551C11.0489 0.190264 17.4254 0.182862 23.802 0.200839C25.4453 0.205597 26.6439 1.01086 27.3678 2.48127C27.5502 2.85191 27.6247 3.27649 27.749 3.67621C27.749 10.3621 27.749 17.0479 27.749 23.7337C27.7326 23.7739 27.7077 23.8125 27.7009 23.8538C27.464 25.2576 26.6952 26.2643 25.4115 26.8607C25.0519 27.0278 24.649 27.1013 24.2657 27.217C21.9789 27.217 19.6921 27.217 17.4054 27.217C17.4054 24.0372 17.4054 20.8574 17.4054 17.6607C18.7616 17.6607 20.0781 17.6607 21.411 17.6607C21.6749 16.0761 21.9366 14.5052 22.2041 12.9021C20.592 12.9021 19.0053 12.9021 17.4207 12.9021C17.4207 11.8214 17.4207 10.7692 17.4207 9.68845C19.0201 9.68845 20.6063 9.68845 22.1888 9.68845C22.1888 8.09061 22.1888 6.52186 22.1888 4.95363C20.5074 4.95363 18.8425 4.88384 17.1859 4.96949C14.5359 5.10644 12.6647 7.16004 12.6557 9.81534C12.6526 10.7475 12.6552 11.6802 12.6552 12.6123C12.6552 12.7059 12.6552 12.7995 12.6552 12.9217C11.5824 12.9217 10.5419 12.9217 9.50183 12.9217C9.50183 14.5131 9.50183 16.0756 9.50183 17.667C10.5551 17.667 11.5956 17.667 12.6563 17.667C12.6563 20.8701 12.6563 24.0436 12.6563 27.2176Z" fill="white"/>
</svg>
