<svg width="473" height="75" viewBox="0 0 473 75" fill="none" xmlns="http://www.w3.org/2000/svg">
<g clip-path="url(#clip0_2698_20042)">
<path d="M59.1309 74.0897C57.0342 74.0899 55.0022 73.2855 53.3813 71.8135C51.7604 70.3415 50.651 68.293 50.242 66.0172C49.833 63.7414 50.1497 61.379 51.1383 59.3327C52.1269 57.2864 53.7261 55.6827 55.6634 54.7951C57.6007 53.9074 59.7562 53.7906 61.7625 54.4647C63.7689 55.1387 65.502 56.5618 66.6664 58.4915C67.8309 60.4212 68.3546 62.7381 68.1484 65.0472C67.9422 67.3564 67.0188 69.515 65.5356 71.1551C64.6962 72.0883 63.698 72.8281 62.5987 73.3318C61.4994 73.8355 60.3207 74.0931 59.1309 74.0897Z" fill="white"/>
<path d="M9.88266 20.616C8.09034 20.6153 6.33841 20.0268 4.84813 18.9249C3.35785 17.8229 2.19606 16.257 1.50952 14.4248C0.822967 12.5926 0.642444 10.5764 0.990748 8.63071C1.33905 6.68504 2.20056 4.89724 3.46646 3.4931C5.16691 1.61224 7.4727 0.555664 9.87689 0.555664C12.2811 0.555664 14.5869 1.61224 16.2873 3.4931C17.1296 4.42446 17.7977 5.53036 18.2536 6.74761C18.7094 7.96486 18.9441 9.26958 18.9441 10.5872C18.9441 11.9049 18.7094 13.2096 18.2536 14.4268C17.7977 15.6441 17.1296 16.75 16.2873 17.6814C15.4485 18.6154 14.4504 19.3557 13.3509 19.8595C12.2515 20.3633 11.0726 20.6204 9.88266 20.616Z" fill="white"/>
<path d="M58.7215 20.3154C56.9292 20.3147 55.1773 19.7262 53.687 18.6243C52.1967 17.5223 51.0349 15.9564 50.3484 14.1242C49.6618 12.292 49.4813 10.2758 49.8296 8.3301C50.1779 6.38444 51.0394 4.59664 52.3053 3.1925C53.359 2.02378 54.6569 1.16079 56.0841 0.680031C57.5113 0.199275 59.0235 0.115602 60.4869 0.436429C61.9503 0.757255 63.3195 1.47267 64.4733 2.51926C65.627 3.56585 66.5296 4.91128 67.1011 6.43628C67.6725 7.96128 67.8952 9.61875 67.7492 11.2618C67.6033 12.9048 67.0934 14.4826 66.2646 15.8553C65.4358 17.228 64.3138 18.3532 62.998 19.1312C61.6822 19.9092 60.2133 20.3159 58.7215 20.3154Z" fill="white"/>
<path d="M10.1189 74.0897C8.32727 74.0908 6.57551 73.5041 5.08503 72.4038C3.59456 71.3035 2.43225 69.739 1.74498 67.9079C1.05772 66.0768 0.876346 64.0614 1.22378 62.1162C1.57122 60.1711 2.43187 58.3836 3.69698 56.9796C4.08727 56.5498 4.51607 56.165 4.97676 55.8313C5.13241 55.7101 5.27076 55.6144 5.42065 55.5187C5.755 55.3018 6.08936 55.1104 6.40066 54.9509C6.5736 54.868 6.74654 54.7787 6.93102 54.7021C7.29658 54.5482 7.67002 54.4183 8.04938 54.3129L8.27997 54.2428L8.41833 54.2045L10.436 54.0514C10.6896 54.0514 10.9664 54.096 11.2546 54.1407H11.3699H11.6235H11.7042H11.7965H11.8772H12.3211C14.0804 54.1252 15.8193 53.7223 17.4365 52.9556C19.0537 52.1889 20.5169 51.0737 21.7407 49.675C22.97 48.2909 23.9373 46.6492 24.5857 44.846C25.2341 43.0428 25.5506 41.1145 25.5166 39.1741V39.0657V38.9445C25.5013 38.8367 25.4917 38.7281 25.4878 38.6191C25.4878 38.4915 25.4763 38.3639 25.4532 38.2363V38.013C25.4532 37.8153 25.4186 37.6303 25.4071 37.4389L25.557 35.1996C25.5697 35.1435 25.5851 35.0881 25.6031 35.0338L25.6377 34.8934C25.7248 34.4601 25.8385 34.0338 25.9778 33.6175C26.0416 33.4178 26.1147 33.2219 26.1969 33.0306C26.3401 32.673 26.4998 32.3238 26.6754 31.9843C26.7618 31.8248 26.8483 31.6653 26.9463 31.5058C27.2532 30.9966 27.6026 30.5203 27.9897 30.0832C29.6929 28.2017 32.0018 27.146 34.4083 27.1484C36.8149 27.1508 39.122 28.2111 40.8221 30.0959C42.5223 31.9808 43.4762 34.5359 43.474 37.1991C43.4719 39.8623 42.5138 42.4155 40.8106 44.297C40.4173 44.7231 39.9888 45.1075 39.5308 45.4453C39.3809 45.5601 39.2368 45.6558 39.0927 45.7451C38.7765 45.9576 38.4492 46.1493 38.1127 46.3193C37.934 46.4086 37.7553 46.4979 37.5881 46.5681C37.2295 46.7187 36.8615 46.8402 36.487 46.9317L36.2679 46.9955L36.1238 47.0466L34.0831 47.2061C33.8467 47.2061 33.5931 47.155 33.3279 47.1167H33.1492H32.8956H32.8264H32.7226H32.198C28.664 47.1689 25.2922 48.767 22.8197 51.5619C20.3471 54.3567 18.9747 58.1211 19.0025 62.0323V62.1471V62.2555C19.0178 62.3633 19.0274 62.4719 19.0313 62.5809C19.0313 62.7149 19.0313 62.8361 19.0659 62.9637C19.0715 63.0813 19.0831 63.1984 19.1005 63.3146C19.1005 63.4677 19.1005 63.6208 19.1005 63.7739V63.8249L18.9563 65.9749C18.9563 66.0195 18.8814 66.2683 18.8641 66.3449C18.7791 66.7781 18.6674 67.2045 18.5297 67.6208C18.4692 67.8147 18.3979 68.0043 18.3164 68.1886C18.1588 68.5703 17.9837 68.9429 17.7919 69.305C17.7054 69.4581 17.6074 69.6368 17.5036 69.8026C17.2017 70.3045 16.8561 70.7724 16.4717 71.1998C14.7838 73.0565 12.4989 74.0959 10.1189 74.0897Z" fill="white"/>
<path d="M34.602 74.0894C32.8115 74.0892 31.0612 73.5021 29.5719 72.4021C28.0827 71.3021 26.9212 69.7385 26.2342 67.9088C25.5472 66.079 25.3653 64.065 25.7116 62.121C26.0579 60.1769 26.9169 58.39 28.18 56.9857C28.5759 56.5539 29.0083 56.165 29.4713 55.8246C29.6039 55.7225 29.748 55.6268 29.8979 55.5311C30.2174 55.3192 30.5464 55.1254 30.8837 54.9506L31.4083 54.7018C31.7664 54.5596 32.1322 54.4424 32.5036 54.3509L32.861 54.236L34.9133 54.0702C35.1554 54.0702 35.4148 54.1212 35.6857 54.1595H35.8414H36.1123H36.2103H36.2737H36.3602H36.8099C40.3409 54.1023 43.7082 52.502 46.1771 49.7077C48.6459 46.9134 50.0159 43.1519 49.9881 39.244V38.7783L49.9536 38.7272C49.9503 38.7104 49.9503 38.693 49.9536 38.6762V38.3444L49.919 38.0255C49.919 37.8468 49.8786 37.6746 49.8728 37.496L50.0112 35.3269C50.0112 35.2695 50.0919 35.0015 50.1092 34.925C50.1804 34.5064 50.2747 34.0931 50.3917 33.6873C50.4572 33.4895 50.5322 33.2957 50.6165 33.1068C50.7715 32.731 50.9447 32.3647 51.1353 32.0095L51.1757 31.9393C51.2449 31.8053 51.314 31.6778 51.3947 31.5502C51.7043 31.0374 52.0555 30.5569 52.4439 30.1147C54.1454 28.2335 56.4521 27.1768 58.8573 27.1768C61.2624 27.1768 63.5691 28.2335 65.2706 30.1147C66.9649 32.0009 67.9159 34.5525 67.9159 37.2121C67.9159 39.8717 66.9649 42.4232 65.2706 44.3094C64.8723 44.7319 64.4423 45.1161 63.985 45.4577L63.6852 45.6682L63.5296 45.7767C63.2197 45.9784 62.9003 46.1616 62.5726 46.3253C62.3882 46.421 62.221 46.504 62.0423 46.5805C61.6789 46.7264 61.3072 46.8457 60.9297 46.9378L60.6991 47.0143L60.5607 47.0526L58.5431 47.2121C58.2491 47.2121 57.932 47.1483 57.6207 47.1036H57.3555H57.3094H57.1365H56.6868C53.1468 47.1474 49.7671 48.744 47.2898 51.5429C44.8125 54.3418 43.4401 58.1142 43.474 62.0319V62.1468V62.2552C43.4796 62.3699 43.4796 62.485 43.474 62.5997C43.474 62.7145 43.474 62.8358 43.5028 62.9442C43.5316 63.0527 43.5028 63.1611 43.5028 63.2823C43.525 63.4515 43.5385 63.6219 43.5431 63.7927L43.474 65.9937L43.3875 66.3382C43.3003 66.7708 43.1886 67.1969 43.0531 67.6141C42.9955 67.7927 42.9205 67.9713 42.8514 68.15L42.8225 68.2138C42.6717 68.5771 42.5023 68.9307 42.3152 69.2728C42.223 69.445 42.1365 69.6109 42.0385 69.7704C41.2174 71.1136 40.1085 72.211 38.8109 72.9646C37.5133 73.7182 36.0673 74.1046 34.602 74.0894Z" fill="white"/>
<path d="M10.1247 47.0209C8.33136 47.0227 6.57783 46.4361 5.08579 45.3351C3.59374 44.2342 2.43017 42.6684 1.74219 40.8356C1.05422 39.0029 0.872722 36.9856 1.22066 35.0388C1.56859 33.0919 2.43034 31.303 3.69694 29.898C4.09291 29.4708 4.5232 29.0843 4.98248 28.7433L5.42637 28.4307C5.73767 28.2266 6.06049 28.0416 6.40061 27.863C6.57356 27.78 6.7465 27.6907 6.93674 27.6141C7.29067 27.4711 7.65271 27.3538 8.02052 27.2633L8.25111 27.1931C8.29066 27.1774 8.3311 27.1646 8.37217 27.1548L10.4244 26.9889C10.6896 26.9889 11.0009 27.0464 11.2834 27.091H11.3468H11.6177H11.7042H11.7907H12.3441C14.1005 27.073 15.8361 26.6689 17.4502 25.9023C19.0643 25.1356 20.5246 24.0218 21.7464 22.6253C22.9749 21.2395 23.9411 19.5964 24.5885 17.7922C25.2359 15.988 25.5514 14.059 25.5166 12.1181V12.0096V11.9012C25.4963 11.779 25.4847 11.6553 25.482 11.5312V11.2249L25.4071 10.9315C25.4071 10.7528 25.3667 10.5615 25.361 10.3764L25.4993 8.27118V8.22014V8.18186C25.4993 8.13083 25.5858 7.85012 25.5858 7.85012C25.6734 7.41761 25.7851 6.99149 25.9201 6.5742C25.9836 6.38281 26.0643 6.19143 26.145 6.00004C26.2963 5.62226 26.4696 5.25573 26.6638 4.90274V4.84533C26.7445 4.6986 26.8194 4.55187 26.9117 4.41151C27.2145 3.90644 27.56 3.43436 27.9436 3.00162C29.6468 1.11338 31.958 0.051225 34.3689 0.0488322C36.7798 0.0464394 39.0928 1.104 40.799 2.98886C42.5053 4.87372 43.4651 7.43149 43.4672 10.0995C43.4694 12.7675 42.5138 15.3271 40.8106 17.2154C40.4168 17.639 39.9883 18.0213 39.5308 18.3573C39.3924 18.4658 39.2714 18.5423 39.1503 18.6253L39.0811 18.6699C38.7468 18.8868 38.4239 19.0782 38.1126 19.2377C37.9282 19.327 37.761 19.4164 37.588 19.4865C37.2242 19.6327 36.8527 19.7542 36.4754 19.8502C36.3956 19.8689 36.3167 19.8923 36.2391 19.9203L36.095 19.965L34.0831 20.1181C33.8294 20.1181 33.5585 20.0671 33.276 20.0288H33.1492H32.8898H32.7226H32.6303H32.1807C28.6486 20.0859 25.2805 21.6871 22.8114 24.4828C20.3424 27.2785 18.9731 31.0417 19.0024 34.9507V35.0591V35.174C19.018 35.286 19.0276 35.3989 19.0312 35.5121C19.0312 35.6333 19.0312 35.7481 19.0601 35.863C19.0889 35.9778 19.0601 36.0799 19.0946 36.1947C19.1148 36.3597 19.1263 36.5259 19.1292 36.6923L18.9851 38.8805C18.9744 38.9387 18.9609 38.9962 18.9448 39.0528L18.8929 39.2505C18.8104 39.6838 18.7006 40.1102 18.5643 40.5265C18.5009 40.7179 18.4144 40.9156 18.3337 41.1134C18.1872 41.4818 18.0236 41.8417 17.8437 42.1915C17.7515 42.3702 17.665 42.5297 17.567 42.6828C17.2615 43.1932 16.9121 43.6696 16.5236 44.1054C15.6846 45.0375 14.6873 45.7767 13.5891 46.2804C12.4909 46.784 11.3135 47.0422 10.1247 47.0401V47.0209Z" fill="white"/>
</g>
<path d="M84.8081 52.4873V30.0087H75.9517V27.4569H96.3288V30.0087H87.51V52.4873H84.8081ZM100.082 52.4873V25.468H102.784V35.8629L102.484 35.1499C103.434 34.6245 104.435 34.2117 105.486 33.9115C106.536 33.5863 107.525 33.4237 108.45 33.4237C110.001 33.4237 111.302 33.7114 112.353 34.2868C113.429 34.8622 114.242 35.7378 114.792 36.9137C115.368 38.0645 115.655 39.553 115.655 41.3793V52.4873H112.954V41.3793C112.954 39.6281 112.553 38.2771 111.753 37.3264C110.952 36.3758 109.751 35.9004 108.15 35.9004C107.274 35.9004 106.386 36.0255 105.486 36.2757C104.61 36.5259 103.709 36.9011 102.784 37.4015V52.4873H100.082ZM129.398 53.0502C127.621 53.0502 126.083 52.6874 124.782 51.9619C123.481 51.2114 122.48 50.0981 121.78 48.622C121.079 47.146 120.729 45.3072 120.729 43.1056C120.729 39.8783 121.454 37.464 122.905 35.8629C124.382 34.2367 126.395 33.4237 128.947 33.4237C130.949 33.4237 132.55 33.874 133.751 34.7746C134.977 35.6753 135.852 36.8886 136.378 38.4147C136.903 39.9408 137.153 41.6671 137.128 43.5934H122.08L122.267 41.1167H135.364L134.314 41.4919C134.239 39.6156 133.763 38.2146 132.888 37.2889C132.037 36.3633 130.724 35.9004 128.947 35.9004C127.721 35.9004 126.696 36.1256 125.87 36.5759C125.07 37.0262 124.469 37.8143 124.069 38.9401C123.669 40.0409 123.468 41.592 123.468 43.5934C123.468 45.8701 123.994 47.6088 125.044 48.8097C126.12 49.9855 127.621 50.5734 129.548 50.5734C130.473 50.5734 131.324 50.5109 132.1 50.3858C132.875 50.2357 133.588 50.0355 134.239 49.7854C134.889 49.5352 135.464 49.26 135.965 48.9598V51.7368C135.064 52.1621 134.063 52.4873 132.963 52.7125C131.887 52.9376 130.699 53.0502 129.398 53.0502ZM142.377 52.4873V27.4569H150.671C152.847 27.4569 154.536 27.7696 155.737 28.3951C156.938 28.9955 157.776 29.8086 158.251 30.8343C158.751 31.835 159.002 32.9483 159.002 34.1742C159.002 35.25 158.839 36.0881 158.514 36.6885C158.189 37.2889 157.788 37.7893 157.313 38.1896C156.863 38.5648 156.425 38.9526 155.999 39.3529L155.699 38.865C156.35 39.0902 157.05 39.4655 157.801 39.9909C158.551 40.4912 159.189 41.1792 159.715 42.0548C160.24 42.9305 160.503 44.0438 160.503 45.3947C160.503 47.0709 160.14 48.4344 159.414 49.4852C158.689 50.5109 157.638 51.2739 156.262 51.7743C154.911 52.2496 153.298 52.4873 151.421 52.4873H142.377ZM145.079 49.973H151.646C152.722 49.973 153.723 49.8604 154.648 49.6353C155.599 49.4101 156.362 48.9598 156.938 48.2843C157.513 47.5838 157.801 46.5706 157.801 45.2446C157.801 44.2439 157.613 43.4558 157.238 42.8804C156.863 42.28 156.362 41.8422 155.737 41.567C155.136 41.2668 154.461 41.0791 153.71 41.0041C152.985 40.904 152.259 40.854 151.534 40.854H145.079V49.973ZM145.079 38.3021H151.271C152.097 38.3021 152.885 38.2271 153.635 38.077C154.411 37.9019 155.049 37.5391 155.549 36.9887C156.05 36.4133 156.3 35.5377 156.3 34.3618C156.3 32.6606 155.824 31.5223 154.874 30.9469C153.923 30.3464 152.61 30.0462 150.933 30.0462H145.079V38.3021ZM173.597 53.0502C171.946 53.0502 170.532 52.7625 169.356 52.1871C168.181 51.6117 167.28 50.7736 166.654 49.6728C166.054 48.572 165.754 47.221 165.754 45.6199V33.7614H168.456V45.0195C168.456 46.9208 168.869 48.3218 169.694 49.2225C170.545 50.0981 171.846 50.5359 173.597 50.5359C175.348 50.5359 176.637 50.0981 177.462 49.2225C178.313 48.3218 178.738 46.9208 178.738 45.0195V33.7614H181.44V45.6199C181.44 47.9966 180.752 49.8354 179.376 51.1363C178.025 52.4123 176.099 53.0502 173.597 53.0502ZM192.74 53.0502C191.389 53.0502 190.251 52.9126 189.325 52.6374C188.425 52.3622 187.487 51.9744 186.511 51.4741V48.622C187.286 49.0473 187.974 49.4101 188.575 49.7103C189.175 50.0105 189.788 50.2357 190.414 50.3858C191.039 50.5109 191.752 50.5734 192.553 50.5734C193.804 50.5734 194.817 50.2982 195.592 49.7478C196.393 49.1974 196.793 48.4844 196.793 47.6088C196.793 46.9083 196.593 46.3704 196.193 45.9952C195.818 45.6199 195.33 45.3072 194.729 45.057C194.129 44.8068 193.503 44.5441 192.853 44.2689C192.127 44.0688 191.389 43.8561 190.639 43.631C189.913 43.3808 189.238 43.0681 188.612 42.6928C188.012 42.2925 187.524 41.7921 187.149 41.1917C186.774 40.5663 186.586 39.7657 186.586 38.79C186.586 37.8393 186.774 37.0262 187.149 36.3507C187.549 35.6753 188.062 35.1249 188.687 34.6996C189.313 34.2492 190.013 33.924 190.789 33.7239C191.564 33.5237 192.34 33.4237 193.116 33.4237C194.241 33.4237 195.205 33.5738 196.005 33.874C196.806 34.1742 197.631 34.5119 198.482 34.8872V37.5891C197.531 37.0888 196.681 36.6885 195.93 36.3883C195.18 36.063 194.291 35.9004 193.266 35.9004C192.24 35.9004 191.314 36.1131 190.489 36.5384C189.688 36.9387 189.288 37.5641 189.288 38.4147C189.288 39.1152 189.488 39.6781 189.888 40.1034C190.314 40.5037 190.864 40.829 191.539 41.0791C192.215 41.3043 192.94 41.5295 193.716 41.7546C194.341 41.9548 194.992 42.1799 195.667 42.4301C196.343 42.6553 196.968 42.968 197.544 43.3683C198.119 43.7435 198.582 44.2439 198.932 44.8693C199.308 45.4948 199.495 46.2954 199.495 47.2711C199.495 48.597 199.157 49.6978 198.482 50.5734C197.806 51.424 196.943 52.0495 195.893 52.4498C194.867 52.8501 193.816 53.0502 192.74 53.0502ZM204.713 52.4873V33.7614H207.415V52.4873H204.713ZM204.563 30.4215V27.4569H207.565V30.4215H204.563ZM213.579 35.2625C214.179 34.9623 214.792 34.6996 215.417 34.4744C216.068 34.2242 216.718 34.0241 217.369 33.874C218.044 33.7239 218.72 33.6113 219.395 33.5362C220.096 33.4612 220.796 33.4237 221.497 33.4237C223.323 33.4237 224.774 33.6988 225.85 34.2492C226.926 34.7746 227.701 35.5502 228.177 36.5759C228.677 37.6016 228.927 38.84 228.927 40.2911V52.4873H226.225V40.2911C226.225 39.8407 226.163 39.3654 226.038 38.865C225.937 38.3647 225.725 37.8893 225.4 37.439C225.074 36.9637 224.574 36.5884 223.898 36.3132C223.223 36.013 222.322 35.8629 221.197 35.8629C220.421 35.8629 219.62 35.9254 218.795 36.0505C217.969 36.1756 217.131 36.3633 216.281 36.6134V52.4873H213.579V35.2625ZM242.675 53.0502C240.898 53.0502 239.36 52.6874 238.059 51.9619C236.758 51.2114 235.757 50.0981 235.057 48.622C234.356 47.146 234.006 45.3072 234.006 43.1056C234.006 39.8783 234.731 37.464 236.182 35.8629C237.658 34.2367 239.672 33.4237 242.224 33.4237C244.226 33.4237 245.827 33.874 247.028 34.7746C248.254 35.6753 249.129 36.8886 249.655 38.4147C250.18 39.9408 250.43 41.6671 250.405 43.5934H235.357L235.544 41.1167H248.641L247.591 41.4919C247.515 39.6156 247.04 38.2146 246.165 37.2889C245.314 36.3633 244 35.9004 242.224 35.9004C240.998 35.9004 239.973 36.1256 239.147 36.5759C238.346 37.0262 237.746 37.8143 237.346 38.9401C236.945 40.0409 236.745 41.592 236.745 43.5934C236.745 45.8701 237.271 47.6088 238.321 48.8097C239.397 49.9855 240.898 50.5734 242.825 50.5734C243.75 50.5734 244.601 50.5109 245.376 50.3858C246.152 50.2357 246.865 50.0355 247.515 49.7854C248.166 49.5352 248.741 49.26 249.242 48.9598V51.7368C248.341 52.1621 247.34 52.4873 246.24 52.7125C245.164 52.9376 243.975 53.0502 242.675 53.0502ZM260.758 53.0502C259.407 53.0502 258.269 52.9126 257.343 52.6374C256.442 52.3622 255.504 51.9744 254.528 51.4741V48.622C255.304 49.0473 255.992 49.4101 256.592 49.7103C257.193 50.0105 257.806 50.2357 258.431 50.3858C259.057 50.5109 259.77 50.5734 260.57 50.5734C261.821 50.5734 262.834 50.2982 263.61 49.7478C264.41 49.1974 264.811 48.4844 264.811 47.6088C264.811 46.9083 264.611 46.3704 264.21 45.9952C263.835 45.6199 263.347 45.3072 262.747 45.057C262.146 44.8068 261.521 44.5441 260.87 44.2689C260.145 44.0688 259.407 43.8561 258.656 43.631C257.931 43.3808 257.255 43.0681 256.63 42.6928C256.029 42.2925 255.542 41.7921 255.166 41.1917C254.791 40.5663 254.603 39.7657 254.603 38.79C254.603 37.8393 254.791 37.0262 255.166 36.3507C255.567 35.6753 256.079 35.1249 256.705 34.6996C257.33 34.2492 258.031 33.924 258.806 33.7239C259.582 33.5237 260.358 33.4237 261.133 33.4237C262.259 33.4237 263.222 33.5738 264.023 33.874C264.823 34.1742 265.649 34.5119 266.499 34.8872V37.5891C265.549 37.0888 264.698 36.6885 263.948 36.3883C263.197 36.063 262.309 35.9004 261.283 35.9004C260.257 35.9004 259.332 36.1131 258.506 36.5384C257.706 36.9387 257.305 37.5641 257.305 38.4147C257.305 39.1152 257.505 39.6781 257.906 40.1034C258.331 40.5037 258.881 40.829 259.557 41.0791C260.232 41.3043 260.958 41.5295 261.733 41.7546C262.359 41.9548 263.009 42.1799 263.685 42.4301C264.36 42.6553 264.986 42.968 265.561 43.3683C266.137 43.7435 266.599 44.2439 266.95 44.8693C267.325 45.4948 267.513 46.2954 267.513 47.2711C267.513 48.597 267.175 49.6978 266.499 50.5734C265.824 51.424 264.961 52.0495 263.91 52.4498C262.884 52.8501 261.834 53.0502 260.758 53.0502ZM277.872 53.0502C276.521 53.0502 275.383 52.9126 274.457 52.6374C273.557 52.3622 272.618 51.9744 271.643 51.4741V48.622C272.418 49.0473 273.106 49.4101 273.707 49.7103C274.307 50.0105 274.92 50.2357 275.545 50.3858C276.171 50.5109 276.884 50.5734 277.684 50.5734C278.935 50.5734 279.949 50.2982 280.724 49.7478C281.525 49.1974 281.925 48.4844 281.925 47.6088C281.925 46.9083 281.725 46.3704 281.325 45.9952C280.949 45.6199 280.461 45.3072 279.861 45.057C279.261 44.8068 278.635 44.5441 277.985 44.2689C277.259 44.0688 276.521 43.8561 275.771 43.631C275.045 43.3808 274.37 43.0681 273.744 42.6928C273.144 42.2925 272.656 41.7921 272.281 41.1917C271.905 40.5663 271.718 39.7657 271.718 38.79C271.718 37.8393 271.905 37.0262 272.281 36.3507C272.681 35.6753 273.194 35.1249 273.819 34.6996C274.445 34.2492 275.145 33.924 275.921 33.7239C276.696 33.5237 277.472 33.4237 278.247 33.4237C279.373 33.4237 280.336 33.5738 281.137 33.874C281.938 34.1742 282.763 34.5119 283.614 34.8872V37.5891C282.663 37.0888 281.812 36.6885 281.062 36.3883C280.311 36.063 279.423 35.9004 278.397 35.9004C277.372 35.9004 276.446 36.1131 275.62 36.5384C274.82 36.9387 274.42 37.5641 274.42 38.4147C274.42 39.1152 274.62 39.6781 275.02 40.1034C275.445 40.5037 275.996 40.829 276.671 41.0791C277.347 41.3043 278.072 41.5295 278.848 41.7546C279.473 41.9548 280.124 42.1799 280.799 42.4301C281.475 42.6553 282.1 42.968 282.676 43.3683C283.251 43.7435 283.714 44.2439 284.064 44.8693C284.439 45.4948 284.627 46.2954 284.627 47.2711C284.627 48.597 284.289 49.6978 283.614 50.5734C282.938 51.424 282.075 52.0495 281.024 52.4498C279.999 52.8501 278.948 53.0502 277.872 53.0502ZM289.132 52.4873V27.4569H296.638V37.1013H304.068V27.4569H311.573V52.4873H304.068V43.1056H296.638V52.4873H289.132ZM325.666 53.0502C323.84 53.0502 322.214 52.7875 320.788 52.2621C319.387 51.7117 318.273 50.8611 317.448 49.7103C316.647 48.5345 316.247 46.9959 316.247 45.0945V33.3861H323.077V44.6817C323.077 45.5824 323.277 46.2704 323.677 46.7457C324.102 47.196 324.778 47.4212 325.704 47.4212C326.654 47.4212 327.33 47.196 327.73 46.7457C328.13 46.2704 328.331 45.5824 328.331 44.6817V33.3861H334.673V45.0945C334.673 47.9215 333.859 49.9605 332.233 51.2114C330.607 52.4373 328.418 53.0502 325.666 53.0502ZM348.457 53.0502C347.356 53.0502 346.256 52.9752 345.155 52.825C344.054 52.6749 343.053 52.4123 342.153 52.037C341.252 51.6367 340.527 51.0863 339.976 50.3858C339.451 49.6603 339.188 48.7221 339.188 47.5713V26.7439H345.868V37.2139L344.742 35.1124C345.167 34.4619 345.73 33.974 346.431 33.6488C347.131 33.2986 347.832 33.0609 348.532 32.9358C349.258 32.8107 349.846 32.7482 350.296 32.7482C353.048 32.7482 355.162 33.5988 356.638 35.3C358.139 36.9762 358.89 39.5155 358.89 42.918C358.89 44.7192 358.652 46.2704 358.177 47.5713C357.726 48.8472 357.051 49.8854 356.15 50.686C355.25 51.4866 354.149 52.087 352.848 52.4873C351.572 52.8626 350.108 53.0502 348.457 53.0502ZM348.457 47.4587C349.258 47.4587 349.933 47.3086 350.484 47.0084C351.034 46.6831 351.447 46.2203 351.722 45.6199C351.997 45.0195 352.135 44.2814 352.135 43.4058C352.135 41.9548 351.947 40.854 351.572 40.1034C351.222 39.3279 350.759 38.8025 350.183 38.5273C349.608 38.2271 348.995 38.077 348.345 38.077C347.969 38.077 347.544 38.127 347.069 38.2271C346.618 38.3021 346.218 38.4397 345.868 38.6399V45.77C345.868 46.1703 345.955 46.4955 346.131 46.7457C346.331 46.9959 346.618 47.1835 346.994 47.3086C347.394 47.4087 347.882 47.4587 348.457 47.4587Z" fill="white"/>
<defs>
<clipPath id="clip0_2698_20042">
<rect width="67.3729" height="74.0162" fill="white" transform="translate(0.813965 0.0859375)"/>
</clipPath>
</defs>
</svg>
