<svg width="14" height="14" viewBox="0 0 14 14" fill="none" xmlns="http://www.w3.org/2000/svg">
<path d="M4.75549 0C6.25183 0 7.74817 0 9.24451 0C9.3675 0 9.46999 0.0204978 9.59297 0.0204978C10.2694 0.0409956 10.9458 0.122987 11.6018 0.36896C12.4422 0.696925 13.0776 1.27086 13.4876 2.07028C13.8565 2.7877 13.959 3.56662 13.9795 4.36603C13.9795 4.50952 14 4.653 14 4.77599C14 6.21083 14 7.64568 14 9.06003C14 9.18302 13.9795 9.306 13.9795 9.42899C13.959 10.0029 13.918 10.5974 13.754 11.1508C13.3851 12.4012 12.5857 13.2621 11.3353 13.672C10.6384 13.8975 9.90044 13.9385 9.18302 13.9385C7.70717 13.9385 6.23133 13.9385 4.75549 13.9385C4.18155 13.9385 3.58712 13.918 3.01318 13.7745C1.57833 13.4261 0.635432 12.5447 0.245974 11.1098C0.0409956 10.5154 0.0204978 9.83895 0 9.18302C0 7.76867 0 6.33382 0 4.91947C0 4.28404 0.0204978 3.62811 0.18448 2.99268C0.491947 1.80381 1.14788 0.922401 2.29575 0.430454C2.97218 0.143485 3.66911 0.0614934 4.40703 0.0409956C4.50952 0.0204978 4.6325 0 4.75549 0ZM12.7496 7.01025C12.7291 7.01025 12.7291 7.01025 12.7086 7.01025C12.7086 6.23133 12.7291 5.43192 12.7086 4.653C12.7086 4.24305 12.6676 3.83309 12.6061 3.42313C12.4012 2.33675 11.7657 1.66032 10.6794 1.41435C10.0439 1.27086 9.38799 1.27086 8.73206 1.27086C7.4407 1.27086 6.14934 1.27086 4.85798 1.29136C4.36603 1.29136 3.87408 1.33236 3.40264 1.41435C2.41874 1.57833 1.76281 2.15227 1.47584 3.11567C1.33236 3.58712 1.29136 4.07906 1.29136 4.55051C1.27086 5.88287 1.27086 7.21523 1.27086 8.54758C1.27086 9.18302 1.31186 9.81845 1.37335 10.4334C1.45534 11.1918 1.80381 11.8477 2.48023 12.2577C2.93119 12.5242 3.44363 12.6676 3.97657 12.6881C4.694 12.7291 5.43192 12.7496 6.16984 12.7496C7.17423 12.7496 8.17862 12.7496 9.18302 12.7291C9.65447 12.7086 10.1464 12.6881 10.6179 12.6061C11.3763 12.4832 11.9912 12.0937 12.3602 11.3968C12.5857 10.9663 12.6881 10.4949 12.7086 10.0029C12.7291 8.99854 12.7291 8.01464 12.7496 7.01025Z" fill="black"/>
<path d="M6.98965 3.40234C8.95744 3.42284 10.5768 4.96018 10.5973 7.03045C10.5973 8.97775 9.03943 10.5971 7.01014 10.5971C5.04236 10.6176 3.38203 9.03924 3.40253 6.92797C3.42303 5.08316 4.89887 3.42284 6.98965 3.40234ZM6.98965 9.32621C8.28101 9.34671 9.3264 8.28082 9.3264 7.03045C9.3264 5.7186 8.30151 4.67321 7.01014 4.67321C5.73928 4.67321 4.69389 5.6981 4.6734 6.90747C4.6324 8.30132 5.73928 9.34671 6.98965 9.32621Z" fill="black"/>
<path d="M10.7408 4.09977C10.2694 4.09977 9.90039 3.7308 9.90039 3.25936C9.90039 2.78791 10.2898 2.41895 10.7408 2.41895C11.1918 2.41895 11.5812 2.8084 11.5812 3.27985C11.5812 3.7308 11.1918 4.09977 10.7408 4.09977Z" fill="black"/>
</svg>
