<svg width="14" height="14" viewBox="0 0 14 14" fill="none" xmlns="http://www.w3.org/2000/svg">
<path d="M0.842398 0C4.95071 0 9.05577 0 13.1641 0C13.1835 0.00972222 13.1997 0.0259259 13.2192 0.0291667C13.7246 0.175 14.0032 0.544444 14.0032 1.07593C14.0032 5.03611 14.0032 8.9963 14.0032 12.9565C14.0032 13.556 13.5626 14 12.9632 14C8.98773 14 5.00903 14 1.03356 14C0.437399 14 0 13.5593 0 12.9662C0 8.98009 0 4.99398 0 1.00787C0 0.793981 0.0680398 0.609259 0.181439 0.434259C0.340199 0.191204 0.583198 0.0842593 0.842398 0ZM7.52326 11.9227C7.5265 11.8708 7.52974 11.8352 7.52974 11.7963C7.52974 10.7301 7.5265 9.66389 7.52974 8.59444C7.52974 8.3838 7.53946 8.17315 7.57186 7.96574C7.63666 7.55741 7.78246 7.18148 8.20366 7.01944C8.40778 6.94167 8.6443 6.91574 8.86461 6.91574C9.29877 6.91574 9.60981 7.13935 9.72321 7.56065C9.80097 7.84583 9.84309 8.1537 9.84633 8.45185C9.86253 9.54398 9.85605 10.6394 9.85605 11.7347C9.85605 11.7963 9.85605 11.8579 9.85605 11.9194C10.5559 11.9194 11.233 11.9194 11.9199 11.9194C11.9232 11.8806 11.9264 11.8481 11.9264 11.8157C11.9264 10.6426 11.9426 9.4662 11.9199 8.29306C11.9102 7.77778 11.8551 7.2625 11.7612 6.75694C11.6445 6.13148 11.3173 5.62917 10.7244 5.3375C10.3907 5.17222 10.031 5.12037 9.66489 5.08796C8.82249 5.01667 8.13238 5.28889 7.60426 5.95648C7.55566 6.01481 7.51354 6.07963 7.47142 6.1412C7.45846 6.13796 7.44874 6.13472 7.43578 6.13148C7.43578 5.83981 7.43578 5.54815 7.43578 5.25648C6.76834 5.25648 6.12358 5.25648 5.4691 5.25648C5.4691 7.48287 5.4691 9.69954 5.4691 11.9227C6.15274 11.9227 6.8299 11.9227 7.52326 11.9227ZM2.08655 5.25648C2.08655 7.48935 2.08655 9.70602 2.08655 11.9227C2.77667 11.9227 3.45383 11.9227 4.13423 11.9227C4.13423 9.6963 4.13423 7.48287 4.13423 5.25648C3.45059 5.25648 2.77343 5.25648 2.08655 5.25648ZM3.12011 1.93148C2.45915 1.93148 1.90835 2.46296 1.91159 3.10463C1.91159 3.7787 2.44295 4.32639 3.10715 4.33287C3.76163 4.33935 4.31243 3.79167 4.31243 3.13704C4.30919 2.46296 3.78755 1.93472 3.12011 1.93148Z" fill="black"/>
</svg>
