<svg width="28" height="28" viewBox="0 0 28 28" fill="none" xmlns="http://www.w3.org/2000/svg">
<path d="M27.9389 3.40859C27.9389 10.2693 27.9389 17.1296 27.9389 23.9903C27.9209 24.0485 27.8961 24.105 27.8855 24.1648C27.5757 25.9251 26.0586 27.2073 24.2692 27.2078C17.7092 27.21 11.1492 27.21 4.5887 27.2078C2.55661 27.2073 0.920051 25.5692 0.919522 23.5377C0.918464 16.9773 0.918993 10.4174 0.920051 3.85751C0.920579 2.28337 1.91203 0.899587 3.4053 0.389327C3.64431 0.307368 3.89336 0.255549 4.13765 0.189453C10.9985 0.189453 17.8589 0.189453 24.7197 0.189453C24.7689 0.206374 24.8165 0.229639 24.8673 0.239686C26.295 0.515173 27.251 1.34481 27.7496 2.70374C27.8332 2.93111 27.8771 3.17328 27.9389 3.40859ZM15.3001 12.1697C15.3001 11.8995 15.3054 11.6632 15.2991 11.4268C15.288 11.016 15.1071 10.842 14.692 10.8409C13.9184 10.8388 13.1448 10.8393 12.3707 10.8409C11.9207 10.842 11.7372 11.0271 11.7372 11.485C11.7362 14.8173 11.7362 18.1495 11.7372 21.4818C11.7372 21.9477 11.9313 22.1433 12.3918 22.1444C13.1216 22.1465 13.8513 22.1454 14.581 22.1449C15.1235 22.1444 15.288 21.9815 15.288 21.439C15.2885 19.7332 15.2816 18.0274 15.2917 16.3221C15.2954 15.6717 15.436 15.0462 15.8093 14.4995C16.2466 13.8591 16.8685 13.6445 17.6225 13.7491C18.3178 13.8454 18.7816 14.2446 18.9497 14.8987C19.0877 15.4359 19.1528 16.0038 19.1612 16.5595C19.1872 18.2035 19.1681 19.8479 19.1686 21.4919C19.1686 21.9508 19.349 22.1359 19.8021 22.1375C20.5932 22.1407 21.3847 22.1407 22.1758 22.1375C22.621 22.1359 22.8177 21.9371 22.8172 21.4882C22.8156 19.6417 22.8341 17.7947 22.7966 15.9493C22.7812 15.19 22.6892 14.4239 22.5459 13.6778C22.3683 12.7514 21.9405 11.9392 21.1521 11.3639C20.4329 10.8393 19.6075 10.6791 18.7393 10.668C17.4036 10.6506 16.2107 10.962 15.3868 12.1237C15.3794 12.1338 15.3609 12.1375 15.3001 12.1697ZM6.56368 16.4723C6.56368 18.1252 6.56315 19.7776 6.56421 21.4305C6.56421 21.9265 6.77519 22.1423 7.26378 22.1439C7.9845 22.146 8.70575 22.146 9.42647 22.1439C9.91136 22.1428 10.1186 21.9403 10.1186 21.4565C10.1202 18.1421 10.1202 14.8278 10.1186 11.5135C10.1186 11.0197 9.92987 10.8383 9.427 10.8367C8.70628 10.8351 7.98503 10.8346 7.26431 10.8367C6.75827 10.8383 6.56474 11.0334 6.56421 11.54C6.56315 13.1844 6.56368 14.8284 6.56368 16.4723ZM10.6368 7.57844C10.6464 6.30464 9.63217 5.26667 8.36628 5.25504C7.11043 5.24341 6.06081 6.2745 6.04283 7.5372C6.02538 8.78191 7.05861 9.84209 8.29806 9.85161C9.60097 9.86165 10.6273 8.86387 10.6368 7.57844Z" fill="white"/>
</svg>
