<svg width="25" height="25" viewBox="0 0 25 25" fill="none" xmlns="http://www.w3.org/2000/svg">
<path fill-rule="evenodd" clip-rule="evenodd" d="M12.8842 0.463763C6.24653 0.463763 0.865621 5.84467 0.865621 12.4824C0.86562 19.1201 6.24653 24.501 12.8842 24.501C19.5219 24.501 24.9028 19.1201 24.9028 12.4824C24.9028 5.84468 19.5219 0.463764 12.8842 0.463763ZM20.3005 11.8268L14.3968 5.923C14.0345 5.56071 13.4471 5.56071 13.0848 5.923C12.7225 6.28528 12.7225 6.87266 13.0848 7.23494L17.4049 11.555L6.87479 11.555L6.87479 13.4104L17.4049 13.4104L13.0848 17.7305C12.7225 18.0928 12.7225 18.6802 13.0848 19.0425C13.4471 19.4047 14.0345 19.4047 14.3968 19.0425L20.3005 13.1387C20.6628 12.7764 20.6628 12.189 20.3005 11.8268Z" fill="#F8B400"/>
</svg>
