<svg width="124" height="40" viewBox="0 0 124 40" fill="none" xmlns="http://www.w3.org/2000/svg">
<path d="M17.713 12.4249L20.8556 14.1129L32 7.76554L17.5483 0L2 8.85358L13.1893 15L17.713 12.4249Z" fill="#F2C900"/>
<path d="M20.6307 39L27 35.4648L26.8384 23.6323L11.3953 15.7877L0 10L0.00299461 10.2487L0.0927415 17.0648L20.4751 27.419L20.6307 39Z" fill="#028789"/>
<path d="M23.8217 15.1485L20 17.3064L29.4781 22.2035L29.6332 34L35 30.9716L34.7103 9L26.7216 13.5106L23.8217 15.1485Z" fill="#028789"/>
<path d="M16.8652 29.1617L0 20L0.134839 30.8267L17 40L16.8652 29.1617Z" fill="#028789"/>
<path d="M66.1741 8.92192H56.786V27.4549H50.3882V8.92192H41V6.09789C41 4.73862 42.1019 3.63672 43.4612 3.63672H66.1741V8.92192Z" fill="#028789"/>
<path d="M69.862 27.4549V12.9206H86.2739C86.8999 12.8511 87.4331 12.654 87.8737 12.3295C88.3138 12.005 88.5341 11.5413 88.5341 10.9386C88.5341 10.2201 88.2445 9.71007 87.6649 9.40874C87.0853 9.08419 86.4015 8.92192 85.6135 8.92192H59.6699V3.63672H86.6915C87.8273 3.63672 88.8819 3.7874 89.8553 4.08875C90.8291 4.39009 91.6754 4.83053 92.394 5.41004C93.1123 5.96638 93.6919 6.67339 94.1324 7.53107C94.596 8.36561 94.8974 9.3276 95.0365 10.4171V11.4255C94.8511 13.1176 94.283 14.5085 93.3326 15.598C94.26 16.6875 94.8277 18.0435 95.0365 19.6662V20.6746C94.9204 21.764 94.6308 22.7376 94.1673 23.5953C93.7268 24.4298 93.1357 25.1368 92.394 25.7164C91.6754 26.2959 90.8291 26.7363 89.8553 27.0377C88.8819 27.3158 87.8273 27.4549 86.6915 27.4549H69.862ZM86.2739 18.2058H76.2598V22.1697H85.6135C86.4015 22.1697 87.0853 22.019 87.6649 21.7177C88.2445 21.3932 88.5341 20.8832 88.5341 20.1878C88.5341 19.5851 88.3138 19.1331 87.8737 18.8317C87.4331 18.5071 86.8999 18.2985 86.2739 18.2058Z" fill="#028789"/>
<path d="M123.899 27.4549H119.962C118.603 27.4549 117.501 26.353 117.501 24.9938V18.2058H105.122V27.4549H98.7246V6.09789C98.7246 4.73862 99.8264 3.63672 101.186 3.63672H105.122V12.9206H117.501V3.63672H123.899V27.4549Z" fill="#028789"/>
<path d="M46.0496 31.8066V32.7577H44.1801V38.914H43.028V32.7577H41.1484V31.8066H46.0496Z" fill="#028789"/>
<path d="M50.0965 33.1874C50.5206 33.1874 50.898 33.2795 51.2282 33.4636C51.5649 33.6476 51.8279 33.9203 52.0166 34.2817C52.2118 34.643 52.3095 35.0793 52.3095 35.5907V38.9143H51.1675V35.7645C51.1675 35.26 51.0428 34.8748 50.7938 34.6089C50.5444 34.3362 50.2043 34.1999 49.7728 34.1999C49.3417 34.1999 48.9984 34.3362 48.7424 34.6089C48.493 34.8748 48.3683 35.26 48.3683 35.7645V38.9143H47.2163V31.3467H48.3683V33.934C48.5636 33.6953 48.8097 33.5113 49.1058 33.3817C49.4094 33.2522 49.7392 33.1874 50.0965 33.1874Z" fill="#028789"/>
<path d="M58.8827 35.9589C58.8827 36.1702 58.8691 36.3611 58.8425 36.5316H54.5879C54.6216 36.9815 54.7869 37.3429 55.0831 37.6156C55.3796 37.8883 55.7435 38.0246 56.1746 38.0246C56.7944 38.0246 57.2325 37.7622 57.4884 37.2372H58.7313C58.5627 37.7553 58.2563 38.1815 57.8117 38.5155C57.3736 38.8427 56.828 39.0064 56.1746 39.0064C55.6426 39.0064 55.1639 38.8871 54.7397 38.6485C54.3217 38.403 53.9919 38.0621 53.7491 37.6258C53.5136 37.1826 53.3955 36.6713 53.3955 36.0918C53.3955 35.5123 53.51 35.0044 53.7393 34.5681C53.9751 34.1249 54.3016 33.784 54.7192 33.5454C55.1438 33.3068 55.629 33.1875 56.1746 33.1875C56.7 33.1875 57.1681 33.3034 57.5791 33.5352C57.9901 33.767 58.3101 34.0943 58.5394 34.5169C58.7682 34.9328 58.8827 35.4135 58.8827 35.9589ZM57.6804 35.5908C57.6734 35.1612 57.5221 34.8169 57.2255 34.5578C56.9289 34.2988 56.5618 34.1693 56.1241 34.1693C55.7266 34.1693 55.3862 34.2988 55.1036 34.5578C54.8205 34.8101 54.6519 35.1544 54.5982 35.5908H57.6804Z" fill="#028789"/>
<path d="M63.7755 35.2632C64.1525 35.3314 64.4725 35.5325 64.7354 35.8665C64.9983 36.2006 65.1296 36.579 65.1296 37.0017C65.1296 37.363 65.0353 37.6903 64.8466 37.9834C64.6649 38.2698 64.3986 38.4981 64.0483 38.6686C63.698 38.8322 63.2903 38.914 62.8255 38.914H60.0161V31.8066H62.6943C63.1726 31.8066 63.5836 31.8884 63.9269 32.0521C64.2707 32.2157 64.5299 32.4373 64.705 32.7168C64.8802 32.9895 64.968 33.2963 64.968 33.6372C64.968 34.0462 64.8601 34.3871 64.6443 34.6598C64.429 34.9325 64.1394 35.1336 63.7755 35.2632ZM61.1683 34.7928H62.593C62.9703 34.7928 63.2632 34.7075 63.4724 34.5371C63.6878 34.3598 63.7956 34.1076 63.7956 33.7803C63.7956 33.4599 63.6878 33.2111 63.4724 33.0338C63.2632 32.8497 62.9703 32.7577 62.593 32.7577H61.1683V34.7928ZM62.7246 37.963C63.1151 37.963 63.4215 37.8675 63.6439 37.6766C63.8662 37.4857 63.9774 37.2199 63.9774 36.8789C63.9774 36.5313 63.8596 36.2552 63.6238 36.0506C63.3879 35.8461 63.0749 35.7438 62.684 35.7438H61.1683V37.963H62.7246Z" fill="#028789"/>
<path d="M71.424 33.2793V38.9141H70.2718V38.2494C70.0901 38.4812 69.8509 38.6652 69.5544 38.8016C69.2648 38.9311 68.9551 38.9959 68.6249 38.9959C68.1868 38.9959 67.793 38.9038 67.4423 38.7198C67.0989 38.5357 66.8262 38.263 66.6239 37.9017C66.4287 37.5403 66.3311 37.104 66.3311 36.5927V33.2793H67.4726V36.4188C67.4726 36.9233 67.5973 37.3119 67.8467 37.5847C68.0961 37.8505 68.4362 37.9835 68.8673 37.9835C69.2984 37.9835 69.6389 37.8505 69.8879 37.5847C70.1438 37.3119 70.2718 36.9233 70.2718 36.4188V33.2793H71.424Z" fill="#028789"/>
<path d="M74.9652 39.0064C74.5271 39.0064 74.1329 38.928 73.7826 38.7712C73.4393 38.6075 73.1661 38.3894 72.9643 38.1167C72.762 37.8371 72.6542 37.527 72.6406 37.1861H73.8331C73.8536 37.4247 73.9647 37.6258 74.1666 37.7894C74.3757 37.9462 74.635 38.0246 74.9447 38.0246C75.2683 38.0246 75.5173 37.9633 75.6925 37.8405C75.8746 37.711 75.9657 37.5474 75.9657 37.3497C75.9657 37.1383 75.8643 36.9815 75.6621 36.8793C75.4669 36.777 75.1535 36.6645 74.7224 36.5418C74.3048 36.4259 73.9647 36.3134 73.7018 36.2043C73.4393 36.0952 73.21 35.9282 73.0147 35.7032C72.826 35.4782 72.7317 35.1817 72.7317 34.8135C72.7317 34.5135 72.8195 34.2408 72.9946 33.9954C73.1698 33.7431 73.4188 33.5454 73.7424 33.4023C74.0722 33.2591 74.4496 33.1875 74.8741 33.1875C75.5075 33.1875 76.0161 33.3511 76.4001 33.6784C76.7906 33.9988 76.9998 34.4386 77.0264 34.9976H75.8746C75.8545 34.7453 75.7532 34.5442 75.5715 34.3943C75.3893 34.2442 75.1436 34.1693 74.8335 34.1693C74.5304 34.1693 74.2982 34.2272 74.1362 34.3431C73.9746 34.459 73.8938 34.6124 73.8938 34.8033C73.8938 34.9533 73.9479 35.0794 74.0554 35.1817C74.1633 35.2839 74.2945 35.3658 74.4496 35.4271C74.6046 35.4816 74.8335 35.5532 75.1367 35.6419C75.5411 35.7509 75.8713 35.8634 76.1273 35.9793C76.3898 36.0884 76.6154 36.252 76.8041 36.4702C76.9928 36.6884 77.0904 36.9781 77.0974 37.3395C77.0974 37.6599 77.0096 37.9462 76.8345 38.1985C76.6593 38.4508 76.4099 38.6485 76.0867 38.7916C75.77 38.9348 75.3963 39.0064 74.9652 39.0064Z" fill="#028789"/>
<path d="M78.9284 32.5331C78.7197 32.5331 78.5445 32.4615 78.403 32.3183C78.2615 32.1752 78.1909 31.9979 78.1909 31.7866C78.1909 31.5752 78.2615 31.3979 78.403 31.2548C78.5445 31.1116 78.7197 31.04 78.9284 31.04C79.1307 31.04 79.3025 31.1116 79.4441 31.2548C79.5856 31.3979 79.6561 31.5752 79.6561 31.7866C79.6561 31.9979 79.5856 32.1752 79.4441 32.3183C79.3025 32.4615 79.1307 32.5331 78.9284 32.5331ZM79.4945 33.2796V38.9144H78.3423V33.2796H79.4945Z" fill="#028789"/>
<path d="M83.8172 33.1875C84.2549 33.1875 84.6458 33.2795 84.9892 33.4636C85.3399 33.6477 85.6127 33.9204 85.8079 34.2817C86.0032 34.6431 86.1008 35.0794 86.1008 35.5908V38.9144H84.9592V35.7646C84.9592 35.2601 84.8345 34.8749 84.5851 34.609C84.3357 34.3363 83.9957 34.1999 83.5646 34.1999C83.1334 34.1999 82.7897 34.3363 82.5337 34.609C82.2843 34.8749 82.1601 35.2601 82.1601 35.7646V38.9144H81.0078V33.2795H82.1601V33.9238C82.3483 33.692 82.5875 33.5113 82.8775 33.3818C83.1736 33.2523 83.487 33.1875 83.8172 33.1875Z" fill="#028789"/>
<path d="M92.6727 35.9589C92.6727 36.1702 92.6592 36.3611 92.6321 36.5316H88.378C88.4116 36.9815 88.5765 37.3429 88.8731 37.6156C89.1692 37.8883 89.5331 38.0246 89.9642 38.0246C90.584 38.0246 91.0221 37.7622 91.2781 37.2372H92.5209C92.3528 37.7553 92.0459 38.1815 91.6013 38.5155C91.1636 38.8427 90.6181 39.0064 89.9642 39.0064C89.4322 39.0064 88.9539 38.8871 88.5293 38.6485C88.1118 38.403 87.7816 38.0621 87.5391 37.6258C87.3033 37.1826 87.1855 36.6713 87.1855 36.0918C87.1855 35.5123 87.3 35.0044 87.5289 34.5681C87.7647 34.1249 88.0917 33.784 88.5092 33.5454C88.9338 33.3068 89.4186 33.1875 89.9642 33.1875C90.4897 33.1875 90.9581 33.3034 91.3691 33.5352C91.7801 33.767 92.1001 34.0943 92.329 34.5169C92.5583 34.9328 92.6727 35.4135 92.6727 35.9589ZM91.47 35.5908C91.4635 35.1612 91.3117 34.8169 91.0155 34.5578C90.719 34.2988 90.3518 34.1693 89.9138 34.1693C89.5163 34.1693 89.1762 34.2988 88.8932 34.5578C88.6102 34.8101 88.442 35.1544 88.3878 35.5908H91.47Z" fill="#028789"/>
<path d="M95.8276 39.0064C95.3895 39.0064 94.9953 38.928 94.645 38.7712C94.3017 38.6075 94.0289 38.3894 93.8267 38.1167C93.6244 37.8371 93.5165 37.527 93.5034 37.1861H94.6959C94.716 37.4247 94.8271 37.6258 95.0289 37.7894C95.2381 37.9462 95.4974 38.0246 95.8071 38.0246C96.1307 38.0246 96.3797 37.9633 96.5549 37.8405C96.737 37.711 96.828 37.5474 96.828 37.3497C96.828 37.1383 96.7267 36.9815 96.5249 36.8793C96.3292 36.777 96.0163 36.6645 95.5847 36.5418C95.1672 36.4259 94.8271 36.3134 94.5642 36.2043C94.3017 36.0952 94.0724 35.9282 93.8771 35.7032C93.6884 35.4782 93.5941 35.1817 93.5941 34.8135C93.5941 34.5135 93.6819 34.2408 93.857 33.9954C94.0322 33.7431 94.2811 33.5454 94.6048 33.4023C94.935 33.2591 95.312 33.1875 95.7365 33.1875C96.3699 33.1875 96.8785 33.3511 97.2624 33.6784C97.6534 33.9988 97.8622 34.4386 97.8888 34.9976H96.737C96.7169 34.7453 96.6156 34.5442 96.4338 34.3943C96.2517 34.2442 96.006 34.1693 95.6959 34.1693C95.3928 34.1693 95.1606 34.2272 94.999 34.3431C94.837 34.459 94.7562 34.6124 94.7562 34.8033C94.7562 34.9533 94.8103 35.0794 94.9182 35.1817C95.0257 35.2839 95.1573 35.3658 95.312 35.4271C95.467 35.4816 95.6959 35.5532 95.9995 35.6419C96.4035 35.7509 96.7337 35.8634 96.9897 35.9793C97.2522 36.0884 97.4782 36.252 97.6665 36.4702C97.8552 36.6884 97.9528 36.9781 97.9598 37.3395C97.9598 37.6599 97.872 37.9462 97.6968 38.1985C97.5217 38.4508 97.2727 38.6485 96.9491 38.7916C96.6324 38.9348 96.2587 39.0064 95.8276 39.0064Z" fill="#028789"/>
<path d="M101.226 39.0064C100.788 39.0064 100.394 38.928 100.043 38.7712C99.7 38.6075 99.4268 38.3894 99.225 38.1167C99.0228 37.8371 98.9149 37.527 98.9014 37.1861H100.094C100.114 37.4247 100.225 37.6258 100.427 37.7894C100.636 37.9462 100.896 38.0246 101.205 38.0246C101.529 38.0246 101.778 37.9633 101.953 37.8405C102.135 37.711 102.226 37.5474 102.226 37.3497C102.226 37.1383 102.125 36.9815 101.923 36.8793C101.728 36.777 101.414 36.6645 100.983 36.5418C100.566 36.4259 100.225 36.3134 99.9625 36.2043C99.7 36.0952 99.4707 35.9282 99.2755 35.7032C99.0868 35.4782 98.9924 35.1817 98.9924 34.8135C98.9924 34.5135 99.0802 34.2408 99.2554 33.9954C99.4305 33.7431 99.6795 33.5454 100.003 33.4023C100.333 33.2591 100.71 33.1875 101.135 33.1875C101.768 33.1875 102.277 33.3511 102.661 33.6784C103.051 33.9988 103.261 34.4386 103.287 34.9976H102.135C102.115 34.7453 102.014 34.5442 101.832 34.3943C101.65 34.2442 101.404 34.1693 101.094 34.1693C100.791 34.1693 100.559 34.2272 100.397 34.3431C100.235 34.459 100.155 34.6124 100.155 34.8033C100.155 34.9533 100.209 35.0794 100.316 35.1817C100.424 35.2839 100.555 35.3658 100.71 35.4271C100.865 35.4816 101.094 35.5532 101.397 35.6419C101.802 35.7509 102.132 35.8634 102.388 35.9793C102.651 36.0884 102.876 36.252 103.065 36.4702C103.254 36.6884 103.351 36.9781 103.358 37.3395C103.358 37.6599 103.27 37.9462 103.095 38.1985C102.92 38.4508 102.671 38.6485 102.347 38.7916C102.031 38.9348 101.657 39.0064 101.226 39.0064Z" fill="#028789"/>
<path d="M110.212 31.8066V38.914H109.06V35.8052H105.755V38.914H104.603V31.8066H105.755V34.8541H109.06V31.8066H110.212Z" fill="#028789"/>
<path d="M116.77 33.2793V38.9141H115.617V38.2494C115.436 38.4812 115.197 38.6652 114.9 38.8016C114.61 38.9311 114.3 38.9959 113.97 38.9959C113.532 38.9959 113.138 38.9038 112.788 38.7198C112.444 38.5357 112.171 38.263 111.97 37.9017C111.774 37.5403 111.676 37.104 111.676 36.5927V33.2793H112.818V36.4188C112.818 36.9233 112.943 37.3119 113.192 37.5847C113.441 37.8505 113.782 37.9835 114.213 37.9835C114.644 37.9835 114.984 37.8505 115.233 37.5847C115.489 37.3119 115.617 36.9233 115.617 36.4188V33.2793H116.77Z" fill="#028789"/>
<path d="M119.442 34.118C119.638 33.8453 119.904 33.6238 120.241 33.4533C120.584 33.2761 120.965 33.1874 121.382 33.1874C121.874 33.1874 122.319 33.3068 122.716 33.5454C123.114 33.784 123.427 34.1248 123.656 34.568C123.885 35.0043 124 35.5054 124 36.0713C124 36.6372 123.885 37.1451 123.656 37.5951C123.427 38.0382 123.11 38.3859 122.706 38.6381C122.309 38.8836 121.867 39.0063 121.382 39.0063C120.951 39.0063 120.567 38.9211 120.23 38.7507C119.9 38.5802 119.638 38.362 119.442 38.0961V38.9143H118.29V31.3467H119.442V34.118ZM122.827 36.0713C122.827 35.6827 122.746 35.3486 122.585 35.0691C122.43 34.7828 122.221 34.568 121.958 34.4248C121.702 34.2749 121.426 34.1999 121.13 34.1999C120.84 34.1999 120.564 34.2749 120.301 34.4248C120.045 34.5748 119.836 34.793 119.674 35.0793C119.519 35.3657 119.442 35.7032 119.442 36.0918C119.442 36.4803 119.519 36.8213 119.674 37.1144C119.836 37.4007 120.045 37.6189 120.301 37.7689C120.564 37.9189 120.84 37.9939 121.13 37.9939C121.426 37.9939 121.702 37.9189 121.958 37.7689C122.221 37.6121 122.43 37.3871 122.585 37.094C122.746 36.8008 122.827 36.4599 122.827 36.0713Z" fill="#028789"/>
</svg>
