<svg width="28" height="28" viewBox="0 0 28 28" fill="none" xmlns="http://www.w3.org/2000/svg">
<path d="M24.461 27.2155C17.6003 27.2155 10.7396 27.2155 3.87888 27.2155C3.8297 27.1985 3.78211 27.1737 3.73135 27.1652C1.95365 26.8638 0.661346 25.3457 0.661346 23.5464C0.65976 16.9844 0.65976 10.423 0.661346 3.861C0.661346 1.8279 2.29734 0.191377 4.33044 0.190848C10.8908 0.188733 17.4512 0.189262 24.0116 0.190848C25.6026 0.191377 27.0113 1.21506 27.5014 2.72416C27.5744 2.94835 27.6214 3.18048 27.6801 3.40891C27.6801 10.2712 27.6801 17.1335 27.6801 23.9953C27.6622 24.0529 27.6389 24.11 27.6267 24.1687C27.3301 25.6128 26.4814 26.572 25.0908 27.0505C24.8861 27.1213 24.6709 27.1615 24.461 27.2155ZM10.1617 17.6998C10.1231 17.7411 10.1093 17.7633 10.0892 17.776C9.1644 18.3724 8.15393 18.7235 7.05833 18.8171C6.71728 18.8462 6.372 18.8298 6.03147 18.8642C5.93365 18.8742 5.79247 18.9747 5.76921 19.0598C5.74594 19.1465 5.83425 19.2718 5.894 19.3681C5.92202 19.4141 5.99605 19.4315 6.04998 19.4611C8.23325 20.6546 10.5455 20.9813 12.9847 20.5197C17.8123 19.606 20.6719 15.3167 20.8633 11.2404C20.8908 10.6524 21.0241 10.2167 21.4962 9.83022C21.897 9.50186 22.1979 9.04924 22.5316 8.64156C22.5791 8.58339 22.5987 8.42053 22.5638 8.3941C22.4967 8.34281 22.3809 8.33805 22.2867 8.34386C22.2122 8.34862 22.1413 8.4015 22.0668 8.42688C21.8019 8.51677 21.5364 8.60454 21.3207 8.67646C21.5761 8.21908 21.8415 7.75958 22.0863 7.28951C22.1281 7.20966 22.0805 7.08382 22.0742 6.97859C21.969 6.99181 21.8547 6.98335 21.7596 7.02142C21.2557 7.22183 20.757 7.43545 20.2552 7.64219C19.9919 7.75059 19.7719 7.6882 19.5525 7.50366C18.9407 6.99023 18.2227 6.71633 17.4279 6.6846C15.2875 6.59894 13.6441 8.17307 13.6208 10.3125C13.614 10.9396 13.615 10.9348 12.9842 10.8343C10.5799 10.451 8.58065 9.34693 7.00176 7.48832C6.7929 7.24245 6.68979 7.25038 6.54755 7.54437C5.88078 8.9181 5.99711 10.2273 6.89177 11.4652C6.96897 11.572 7.05516 11.6714 7.16885 11.8141C7.06997 11.7919 7.02661 11.7882 6.98695 11.7729C6.81563 11.7052 6.64326 11.6407 6.47617 11.5635C6.18799 11.4303 6.08329 11.4884 6.09598 11.8078C6.13458 12.7902 6.48991 13.6416 7.2048 14.321C7.47394 14.5764 7.7912 14.7816 8.11005 15.0274C7.96093 15.02 7.82451 15.0227 7.69074 15.0047C7.31267 14.9539 7.23336 15.0444 7.37771 15.3981C7.88744 16.6492 8.81859 17.3984 10.1617 17.6998Z" fill="white"/>
</svg>
