<svg width="14" height="10" viewBox="0 0 14 10" fill="none" xmlns="http://www.w3.org/2000/svg">
<path d="M13.9999 4.20923C13.9999 4.70287 13.9999 5.19376 13.9999 5.68739C13.9917 5.7916 13.978 5.89307 13.9725 5.99729C13.9368 6.70757 13.8902 7.41511 13.7531 8.11443C13.5995 8.9015 13.1388 9.39787 12.3599 9.58436C12.083 9.65018 11.795 9.68583 11.5098 9.70228C10.4265 9.75713 9.34329 9.8202 8.25729 9.83666C7.14113 9.85586 6.02223 9.83117 4.90607 9.81746C3.88589 9.80375 2.86572 9.75987 1.85103 9.62824C1.02008 9.52128 0.414003 8.98651 0.235747 8.16653C0.0958839 7.51384 0.0355508 6.85017 0.0218388 6.18651C0.00264191 5.34459 -0.0110701 4.49993 0.0245812 3.65801C0.0520053 3.00532 0.131535 2.34988 0.241232 1.70816C0.383837 0.893661 0.896667 0.397285 1.71391 0.24371C2.07042 0.177892 2.43516 0.136756 2.79716 0.117559C3.74055 0.068196 4.68394 0.021575 5.62458 0.00786298C6.7188 -0.00859148 7.81302 0.00786298 8.90725 0.021575C9.99598 0.0325447 11.0792 0.081908 12.157 0.216286C12.9358 0.315013 13.5693 0.841555 13.7202 1.60943C13.8299 2.17437 13.8792 2.75302 13.9423 3.32618C13.9725 3.61962 13.9807 3.9158 13.9999 4.20923ZM5.56973 6.99826C6.79285 6.30169 7.99402 5.61883 9.21714 4.92226C7.98854 4.22295 6.78736 3.53734 5.56973 2.84626C5.56973 4.2394 5.56973 5.60238 5.56973 6.99826Z" fill="black"/>
</svg>
