<svg width="54" height="47" viewBox="0 0 54 47" fill="none" xmlns="http://www.w3.org/2000/svg">
<path d="M22.093 30.4581C16.6759 30.4669 11.2588 30.4636 5.84173 30.4625C3.64871 30.4625 2.35468 29.1794 2.35358 26.9941C2.35138 21.3228 2.35248 15.6505 2.35248 9.9792C2.35248 9.78773 2.35248 9.59517 2.35248 9.40591C17.2195 9.40591 32.0007 9.40591 46.8457 9.40591C46.8457 12.1018 46.8424 14.7361 46.8479 17.3703C46.849 18.2011 47.31 18.7326 48.0153 18.7447C48.746 18.7579 49.228 18.2198 49.229 17.3615C49.2324 13.4277 49.2566 9.49394 49.2081 5.56124C49.1982 4.79759 49.0277 3.98002 48.7141 3.28459C47.6896 1.01344 45.8476 -0.00219716 43.3696 3.56844e-06C30.8706 0.0121076 18.3705 0.00550538 5.87034 0.00660575C5.59635 0.00660575 5.32126 0.0198101 5.04837 0.0385163C2.38879 0.216775 0.191364 2.39109 0.0494169 5.05177C-0.0221067 6.40082 0.00540238 7.75646 0.00430202 9.10881C0.00100093 15.0002 -9.94353e-05 20.8915 0.00760311 26.7817C0.00870347 27.3099 0.0131049 27.8513 0.11984 28.3652C0.687628 31.0974 2.83003 32.8018 5.70858 32.8084C11.107 32.8205 16.5065 32.8128 21.9048 32.8106C22.1051 32.8106 22.3098 32.8051 22.5056 32.7688C23.2176 32.6368 23.6324 31.8852 23.3584 31.2173C23.1306 30.655 22.6883 30.457 22.093 30.4581ZM2.45701 4.87351C2.70459 3.43754 3.91279 2.43071 5.37407 2.35918C5.48411 2.35368 5.59415 2.35478 5.70308 2.35478C18.311 2.35478 30.919 2.35368 43.527 2.35588C45.2325 2.35588 46.5145 3.3352 46.7862 4.93403C46.8941 5.57224 46.8038 6.24457 46.8038 6.9664C32.0238 6.9664 17.2239 6.9664 2.31506 6.9664C2.35798 6.25117 2.33927 5.55134 2.45701 4.87351Z" fill="#028789"/>
<path d="M41.0149 21.0862C33.89 21.0785 28.0933 26.8807 28.1197 33.9945C28.1461 41.1172 33.8889 46.8523 41.0039 46.86C48.1287 46.8677 53.9265 41.0633 53.8979 33.9505C53.8693 26.8224 48.1331 21.095 41.0149 21.0862ZM41.0281 44.514C35.2402 44.5272 30.4767 39.7825 30.4657 33.9924C30.4547 28.2022 35.1951 23.4454 40.9896 23.4333C46.7819 23.4212 51.5387 28.1593 51.552 33.9538C51.5652 39.7417 46.8226 44.5008 41.0281 44.514Z" fill="#028789"/>
<path d="M6.04112 26.9446C7.54091 26.9479 9.04181 26.9457 10.5416 26.9457C12.0601 26.9457 13.5786 26.949 15.0971 26.9446C15.8883 26.9424 16.401 26.4835 16.4076 25.7881C16.4142 25.085 15.929 24.6074 15.1202 24.6041C12.0832 24.5909 9.04621 24.592 6.00811 24.603C5.22025 24.6063 4.68767 25.1004 4.68217 25.7672C4.67667 26.4626 5.22575 26.9435 6.04112 26.9446Z" fill="#028789"/>
<path d="M6.02541 21.1116C6.75606 21.1215 7.4867 21.1138 8.21624 21.1138C8.94688 21.1138 9.67752 21.1226 10.4071 21.1116C11.196 21.0995 11.7077 20.6329 11.7176 19.9408C11.7275 19.2277 11.2048 18.7381 10.3906 18.7337C8.92927 18.7249 7.46909 18.7238 6.00781 18.7348C5.22875 18.7403 4.69508 19.2266 4.68187 19.9034C4.66867 20.5922 5.22325 21.0995 6.02541 21.1116Z" fill="#028789"/>
<path d="M48.7581 35.9114H46.7664V33.8603H48.7581C49.3358 33.8603 49.8034 33.3927 49.8034 32.815C49.8034 32.2373 49.3358 31.7696 48.7581 31.7696H46.7664V29.4875C46.7664 28.9098 46.2988 28.4421 45.7211 28.4421C45.1434 28.4421 44.6757 28.9098 44.6757 29.4875V31.7696H39.7582L37.0744 28.7888C36.785 28.4674 36.3273 28.3563 35.9234 28.5126C35.5196 28.6677 35.2522 29.0561 35.2522 29.4886V31.7707H33.2617C32.684 31.7707 32.2163 32.2384 32.2163 32.8161C32.2163 33.3938 32.684 33.8614 33.2617 33.8614H35.2522V35.9125H33.2617C32.684 35.9125 32.2163 36.3802 32.2163 36.9578C32.2163 37.5355 32.684 38.0032 33.2617 38.0032H35.2522V39.9596C35.2522 40.5373 35.7199 41.005 36.2976 41.005C36.8752 41.005 37.3429 40.5373 37.3429 39.9596V38.0032H42.5542L44.9442 40.6584C45.1467 40.8828 45.4306 41.0039 45.7211 41.0039C45.8465 41.0039 45.9731 40.9808 46.0952 40.9346C46.499 40.7794 46.7664 40.391 46.7664 39.9585V38.0021H48.7581C49.3358 38.0021 49.8034 37.5344 49.8034 36.9567C49.8034 36.3791 49.3347 35.9114 48.7581 35.9114ZM37.3429 35.9114V33.8603H38.8262L40.6715 35.9114H37.3429ZM44.6757 35.9114H43.4851L41.6398 33.8603H44.6757V35.9114Z" fill="#028789"/>
</svg>
