<svg width="18" height="19" viewBox="0 0 18 19" fill="none" xmlns="http://www.w3.org/2000/svg">
<path fill-rule="evenodd" clip-rule="evenodd" d="M8.90918 0.960448C4.19022 0.960448 0.364747 4.78592 0.364747 9.50488C0.364746 14.2238 4.19022 18.0493 8.90918 18.0493C13.6281 18.0493 17.4536 14.2238 17.4536 9.50488C17.4536 4.78592 13.6281 0.960449 8.90918 0.960448ZM14.1818 9.03849L9.9846 4.84131C9.72704 4.58375 9.30945 4.58375 9.05189 4.8413C8.79433 5.09886 8.79433 5.51645 9.05189 5.77401L12.1232 8.84532L4.63696 8.84532L4.63696 10.1644L12.1232 10.1644L9.05189 13.2357C8.79433 13.4932 8.79433 13.9108 9.05189 14.1684C9.30945 14.4259 9.72703 14.4259 9.98459 14.1684L14.1818 9.97119C14.4393 9.71363 14.4393 9.29605 14.1818 9.03849Z" fill="#FFE600"/>
</svg>
