<svg width="13" height="13" viewBox="0 0 13 13" fill="none" xmlns="http://www.w3.org/2000/svg">
<path fill-rule="evenodd" clip-rule="evenodd" d="M6.50026 0.658478C3.27407 0.658478 0.658724 3.27382 0.658723 6.50002C0.658723 9.72621 3.27407 12.3416 6.50026 12.3416C9.72645 12.3416 12.3418 9.72621 12.3418 6.50002C12.3418 3.27382 9.72645 0.658479 6.50026 0.658478ZM10.105 6.18095L7.23555 3.31148C7.05946 3.1354 6.77397 3.1354 6.59789 3.31148C6.4218 3.48757 6.4218 3.77306 6.59789 3.94914L8.69763 6.04889L3.57955 6.04889L3.57955 6.95067L8.69763 6.95067L6.59789 9.05042C6.4218 9.2265 6.4218 9.51199 6.59789 9.68808C6.77397 9.86416 7.05946 9.86416 7.23555 9.68808L10.105 6.81861C10.2811 6.64252 10.2811 6.35703 10.105 6.18095Z" fill="#005555"/>
</svg>
