<svg width="42" height="41" viewBox="0 0 42 41" fill="none" xmlns="http://www.w3.org/2000/svg">
<path fill-rule="evenodd" clip-rule="evenodd" d="M41.2974 20.4099C41.2974 31.682 32.1595 40.8198 20.8874 40.8198C13.9902 40.8198 7.89203 37.3986 4.19742 32.1605H10.9928C12.7007 32.1605 14.0853 30.776 14.0853 29.0681C14.0853 27.3602 12.7007 25.9757 10.9928 25.9757H1.24566C0.745288 24.2064 0.477539 22.3394 0.477539 20.4099C0.477539 9.13783 9.61537 0 20.8874 0C28.5686 0 35.2587 4.24315 38.7417 10.5134H28.9269C27.219 10.5134 25.8345 11.8979 25.8345 13.6058C25.8345 15.3137 27.219 16.6982 28.9269 16.6982H40.9607C41.1818 17.9018 41.2974 19.1424 41.2974 20.4099Z" fill="#08554E"/>
</svg>
