<svg width="58" height="58" viewBox="0 0 58 58" fill="none" xmlns="http://www.w3.org/2000/svg">
<path fill-rule="evenodd" clip-rule="evenodd" d="M28.5049 -6.30667e-06C12.7621 -7.68295e-06 5.35595e-08 12.7621 -1.32272e-06 28.5049C-2.699e-06 44.2477 12.7621 57.0098 28.5049 57.0098C44.2477 57.0098 57.0098 44.2477 57.0098 28.5049C57.0098 12.7621 44.2477 -4.93039e-06 28.5049 -6.30667e-06ZM46.0947 26.9485L32.0926 12.9463C31.2334 12.0871 29.8403 12.0871 28.981 12.9463C28.1218 13.8056 28.1218 15.1987 28.981 16.0579L39.2271 26.304L14.2525 26.304L14.2525 30.7045L39.2271 30.7045L28.981 40.9506C28.1218 41.8098 28.1218 43.2029 28.981 44.0621C29.8403 44.9214 31.2334 44.9214 32.0926 44.0621L46.0947 30.06C46.954 29.2008 46.954 27.8077 46.0947 26.9485Z" fill="#C0C0C0"/>
</svg>
