<svg width="58" height="58" viewBox="0 0 58 58" fill="none" xmlns="http://www.w3.org/2000/svg">
<path fill-rule="evenodd" clip-rule="evenodd" d="M28.5049 57.0098C44.2477 57.0098 57.0098 44.2477 57.0098 28.5049C57.0098 12.7621 44.2477 0 28.5049 0C12.7621 0 0 12.7621 0 28.5049C0 44.2477 12.7621 57.0098 28.5049 57.0098ZM10.9151 30.0613L24.9172 44.0634C25.7764 44.9227 27.1695 44.9227 28.0288 44.0634C28.888 43.2042 28.888 41.8111 28.0288 40.9519L17.7826 30.7057H42.7573L42.7573 26.3053H17.7826L28.0288 16.0592C28.888 15.2 28.888 13.8069 28.0288 12.9476C27.1695 12.0884 25.7764 12.0884 24.9172 12.9476L10.9151 26.9497C10.0558 27.809 10.0558 29.2021 10.9151 30.0613Z" fill="#C0C0C0"/>
</svg>
