<svg width="252" height="33" viewBox="0 0 252 33" fill="none" xmlns="http://www.w3.org/2000/svg">
<g clip-path="url(#clip0_3683_6213)">
<path d="M28.3827 32.7849C27.3622 32.785 26.3732 32.4286 25.5843 31.7765C24.7955 31.1244 24.2555 30.2169 24.0564 29.2087C23.8573 28.2004 24.0115 27.1538 24.4927 26.2473C24.9738 25.3407 25.7521 24.6303 26.695 24.237C27.6379 23.8438 28.687 23.792 29.6635 24.0907C30.64 24.3893 31.4835 25.0197 32.0502 25.8746C32.617 26.7295 32.8719 27.7559 32.7715 28.7789C32.6712 29.8019 32.2217 30.7582 31.4999 31.4848C31.0913 31.8982 30.6055 32.226 30.0705 32.4491C29.5354 32.6723 28.9618 32.7864 28.3827 32.7849Z" fill="#F8B400"/>
<path d="M4.41332 9.09499C3.54099 9.09468 2.68832 8.83398 1.963 8.3458C1.23768 7.85763 0.672235 7.16389 0.33809 6.35219C0.0039448 5.5405 -0.0839158 4.64726 0.0856047 3.7853C0.255125 2.92333 0.674423 2.1313 1.29054 1.50924C2.11815 0.675985 3.24039 0.207901 4.41051 0.207901C5.58064 0.207901 6.70287 0.675985 7.53048 1.50924C7.94041 1.92185 8.26559 2.41179 8.48746 2.95105C8.70933 3.49031 8.82352 4.06833 8.82352 4.65207C8.82352 5.23581 8.70933 5.81383 8.48746 6.35309C8.26559 6.89236 7.94041 7.38229 7.53048 7.7949C7.12222 8.20869 6.63644 8.53669 6.10134 8.75986C5.56624 8.98304 4.99247 9.09695 4.41332 9.09499Z" fill="#F8B400"/>
<path d="M28.1833 8.96216C27.311 8.96185 26.4583 8.70114 25.733 8.21297C25.0077 7.7248 24.4423 7.03105 24.1081 6.21936C23.774 5.40766 23.6861 4.51443 23.8556 3.65246C24.0251 2.7905 24.4444 1.99847 25.0606 1.37641C25.5734 0.858643 26.2051 0.476323 26.8997 0.263339C27.5943 0.0503546 28.3303 0.0132857 29.0426 0.155418C29.7548 0.29755 30.4212 0.614493 30.9827 1.07815C31.5443 1.54181 31.9836 2.13786 32.2617 2.81346C32.5398 3.48907 32.6482 4.22336 32.5772 4.95124C32.5061 5.67913 32.2579 6.37812 31.8546 6.98625C31.4512 7.59439 30.9051 8.09289 30.2647 8.43756C29.6243 8.78223 28.9094 8.96242 28.1833 8.96216Z" fill="#F8B400"/>
<path d="M4.52874 32.7849C3.65673 32.7854 2.80415 32.5255 2.07873 32.038C1.35331 31.5506 0.78761 30.8575 0.453118 30.0462C0.118625 29.235 0.0303495 28.3422 0.199447 27.4804C0.368545 26.6187 0.787426 25.8268 1.40316 25.2048C1.59311 25.0144 1.80181 24.8439 2.02603 24.6961C2.10178 24.6424 2.16912 24.6 2.24207 24.5576C2.4048 24.4615 2.56754 24.3767 2.71905 24.3061C2.80322 24.2693 2.88739 24.2297 2.97717 24.1958C3.15509 24.1277 3.33685 24.0701 3.52148 24.0234L3.63371 23.9923L3.70105 23.9754L4.68306 23.9075C4.80651 23.9075 4.94118 23.9273 5.08147 23.9471H5.13758H5.26104H5.30032H5.34521H5.38449H5.60053C6.45679 23.9402 7.30312 23.7618 8.09022 23.4221C8.87732 23.0824 9.58944 22.5884 10.1851 21.9687C10.7834 21.3556 11.2542 20.6282 11.5697 19.8294C11.8853 19.0305 12.0394 18.1763 12.0228 17.3166V17.2686V17.2149C12.0154 17.1672 12.0107 17.119 12.0088 17.0708C12.0088 17.0142 12.0032 16.9577 11.992 16.9012V16.8023C11.992 16.7147 11.9751 16.6327 11.9695 16.5479L12.0425 15.5559C12.0487 15.531 12.0562 15.5065 12.0649 15.4824L12.0818 15.4202C12.1242 15.2282 12.1795 15.0394 12.2473 14.855C12.2783 14.7665 12.3139 14.6797 12.3539 14.5949C12.4236 14.4365 12.5014 14.2818 12.5868 14.1314C12.6289 14.0608 12.671 13.9901 12.7187 13.9195C12.868 13.6939 13.0381 13.4829 13.2265 13.2892C14.0555 12.4557 15.1792 11.988 16.3504 11.989C17.5217 11.9901 18.6446 12.4598 19.4721 13.2948C20.2995 14.1299 20.7638 15.2618 20.7627 16.4417C20.7617 17.6215 20.2954 18.7526 19.4664 19.5862C19.275 19.7749 19.0665 19.9453 18.8436 20.0949C18.7706 20.1458 18.7005 20.1882 18.6303 20.2277C18.4764 20.3219 18.3172 20.4068 18.1534 20.4821C18.0664 20.5217 17.9794 20.5612 17.898 20.5923C17.7235 20.659 17.5444 20.7129 17.3622 20.7534L17.2555 20.7817L17.1854 20.8043L16.1922 20.8749C16.0771 20.8749 15.9537 20.8523 15.8246 20.8354H15.7376H15.6142H15.5805H15.53H15.2747C13.5547 20.8585 11.9136 21.5665 10.7102 22.8046C9.50681 24.0428 8.83887 25.7105 8.85237 27.4432V27.4941V27.5422C8.85982 27.5899 8.86451 27.638 8.8664 27.6863C8.8664 27.7456 8.8664 27.7993 8.88323 27.8559C8.88599 27.908 8.89161 27.9599 8.90007 28.0113C8.90007 28.0791 8.90007 28.147 8.90007 28.2148V28.2374L8.82992 29.1899C8.82992 29.2097 8.79345 29.3199 8.78503 29.3538C8.74368 29.5457 8.68931 29.7346 8.6223 29.9191C8.59281 30.005 8.55814 30.089 8.51849 30.1706C8.44174 30.3397 8.35652 30.5048 8.26317 30.6652C8.22108 30.733 8.17338 30.8122 8.12288 30.8856C7.97593 31.108 7.80771 31.3153 7.62066 31.5046C6.79912 32.3272 5.68707 32.7877 4.52874 32.7849Z" fill="#F8B400"/>
<path d="M16.4444 32.7849C15.573 32.7848 14.7211 32.5247 13.9963 32.0374C13.2714 31.5501 12.7062 30.8574 12.3718 30.0468C12.0374 29.2362 11.9489 28.3439 12.1175 27.4827C12.286 26.6214 12.704 25.8298 13.3188 25.2077C13.5115 25.0164 13.722 24.8441 13.9473 24.6933C14.0118 24.6481 14.082 24.6057 14.1549 24.5633C14.3104 24.4694 14.4705 24.3835 14.6347 24.3061L14.89 24.1958C15.0643 24.1329 15.2424 24.0809 15.4231 24.0404L15.5971 23.9895L16.5959 23.916C16.7138 23.916 16.84 23.9387 16.9719 23.9556H17.0476H17.1795H17.2272H17.2581H17.3002H17.519C19.2376 23.9303 20.8764 23.2213 22.078 21.9834C23.2796 20.7455 23.9464 19.079 23.9329 17.3478V17.1414L23.9161 17.1188C23.9145 17.1114 23.9145 17.1037 23.9161 17.0962V16.9492L23.8992 16.8079C23.8992 16.7288 23.8796 16.6525 23.8768 16.5734L23.9441 15.6124C23.9441 15.587 23.9834 15.4683 23.9918 15.4344C24.0264 15.2489 24.0724 15.0658 24.1293 14.8861C24.1612 14.7984 24.1977 14.7126 24.2387 14.6289C24.3141 14.4624 24.3984 14.3001 24.4912 14.1427L24.5109 14.1117C24.5445 14.0523 24.5782 13.9958 24.6175 13.9393C24.7682 13.7121 24.9391 13.4992 25.1281 13.3033C25.9562 12.4699 27.0789 12.0018 28.2495 12.0018C29.4201 12.0018 30.5428 12.4699 31.3709 13.3033C32.1955 14.139 32.6584 15.2693 32.6584 16.4476C32.6584 17.6258 32.1955 18.7562 31.3709 19.5918C31.1771 19.779 30.9677 19.9492 30.7452 20.1006L30.5993 20.1938L30.5236 20.2419C30.3727 20.3313 30.2173 20.4124 30.0578 20.4849C29.968 20.5273 29.8867 20.5641 29.7997 20.598C29.6228 20.6626 29.4419 20.7155 29.2582 20.7563L29.1459 20.7902L29.0786 20.8071L28.0966 20.8778C27.9535 20.8778 27.7992 20.8495 27.6477 20.8297H27.5186H27.4962H27.412H27.1932C25.4702 20.8491 23.8253 21.5565 22.6196 22.7964C21.4139 24.0364 20.746 25.7076 20.7624 27.4432V27.4941V27.5422C20.7652 27.593 20.7652 27.644 20.7624 27.6948C20.7624 27.7457 20.7624 27.7994 20.7765 27.8474C20.7905 27.8955 20.7765 27.9435 20.7765 27.9972C20.7873 28.0721 20.7938 28.1476 20.7961 28.2233L20.7624 29.1984L20.7203 29.351C20.6779 29.5427 20.6235 29.7314 20.5576 29.9162C20.5295 29.9954 20.4931 30.0745 20.4594 30.1537L20.4454 30.1819C20.372 30.3429 20.2895 30.4995 20.1985 30.6511C20.1536 30.7274 20.1115 30.8009 20.0638 30.8715C19.6641 31.4666 19.1245 31.9528 18.4929 32.2866C17.8614 32.6205 17.1576 32.7917 16.4444 32.7849Z" fill="#F8B400"/>
<path d="M4.53124 20.793C3.65843 20.7938 2.80499 20.5339 2.07881 20.0462C1.35262 19.5584 0.786311 18.8647 0.45147 18.0528C0.116629 17.2409 0.0282957 16.3472 0.197637 15.4847C0.366979 14.6222 0.786391 13.8297 1.40285 13.2073C1.59557 13.018 1.80499 12.8467 2.02853 12.6957L2.24457 12.5572C2.39608 12.4668 2.5532 12.3848 2.71873 12.3057C2.80291 12.2689 2.88708 12.2294 2.97967 12.1954C3.15193 12.1321 3.32813 12.0801 3.50714 12.04L3.61937 12.0089C3.63862 12.002 3.65831 11.9963 3.67829 11.9919L4.67713 11.9185C4.8062 11.9185 4.95771 11.9439 5.09519 11.9637H5.12605H5.25792H5.30001H5.34209H5.61144C6.46628 11.9557 7.31102 11.7767 8.09659 11.437C8.88217 11.0974 9.59293 10.6039 10.1876 9.98529C10.7855 9.37138 11.2557 8.64345 11.5708 7.84415C11.8859 7.04484 12.0395 6.19024 12.0225 5.33039V5.28235V5.2343C12.0126 5.18019 12.007 5.12538 12.0057 5.07038V4.93471L11.9692 4.80471C11.9692 4.72557 11.9496 4.64078 11.9468 4.55882L12.0141 3.62614V3.60353V3.58658C12.0141 3.56397 12.0562 3.43961 12.0562 3.43961C12.0989 3.248 12.1532 3.05922 12.2189 2.87435C12.2498 2.78956 12.2891 2.70478 12.3284 2.61999C12.402 2.45262 12.4864 2.29024 12.5809 2.13387V2.10843C12.6202 2.04342 12.6566 1.97842 12.7015 1.91624C12.8489 1.69249 13.0171 1.48334 13.2037 1.29163C14.0327 0.455104 15.1576 -0.0154482 16.331 -0.0165082C17.5043 -0.0175683 18.6301 0.450951 19.4605 1.28598C20.291 2.12101 20.7581 3.25415 20.7591 4.43612C20.7602 5.61809 20.2951 6.75207 19.4661 7.5886C19.2745 7.77626 19.066 7.94562 18.8433 8.0945C18.7759 8.14255 18.717 8.17646 18.6581 8.21321L18.6244 8.23299C18.4617 8.32908 18.3046 8.41387 18.1531 8.48453C18.0633 8.5241 17.9819 8.56366 17.8977 8.59475C17.7207 8.65952 17.5398 8.71332 17.3562 8.75585C17.3174 8.76416 17.279 8.77453 17.2412 8.78694L17.171 8.80673L16.1918 8.87456C16.0684 8.87456 15.9365 8.85195 15.799 8.83499H15.7373H15.6111H15.5297H15.4848H15.266C13.5469 8.86031 11.9076 9.56967 10.7059 10.8082C9.50425 12.0468 8.8378 13.7139 8.85206 15.4457V15.4937V15.5446C8.85965 15.5942 8.86433 15.6442 8.86609 15.6944C8.86609 15.7481 8.86609 15.799 8.88012 15.8498C8.89415 15.9007 8.88012 15.9459 8.89695 15.9968C8.90674 16.0699 8.91236 16.1435 8.91379 16.2172L8.84364 17.1867C8.83842 17.2124 8.83186 17.2379 8.824 17.263L8.79875 17.3506C8.75861 17.5425 8.70517 17.7314 8.63882 17.9158C8.60796 18.0006 8.56588 18.0882 8.5266 18.1759C8.45528 18.3391 8.37568 18.4985 8.28811 18.6535C8.24322 18.7326 8.20113 18.8033 8.15343 18.8711C8.00477 19.0972 7.83469 19.3083 7.6456 19.5014C7.23729 19.9143 6.7519 20.2418 6.21739 20.4649C5.68288 20.6881 5.10982 20.8024 4.53124 20.8015V20.793Z" fill="#F8B400"/>
</g>
<path d="M37.7723 9.87683H42.7305V26.0494H45.0928V9.87683H50.025V7.95584H37.7723V9.87683ZM52.9328 26.0494H55.2951V18.1838C55.2951 15.1206 56.9565 13.615 59.3707 13.615C61.759 13.615 63.3425 15.0946 63.3425 18.0021V26.0494H65.6788V17.6646C65.6788 13.589 63.1608 11.5642 59.9937 11.5642C57.9949 11.5642 56.2297 12.3689 55.2951 13.8745V6.8396H52.9328V26.0494ZM75.5861 13.589C78.0263 13.589 80.103 15.1206 80.077 17.8982H71.0952C71.3547 15.1206 73.2757 13.589 75.5861 13.589ZM82.2317 21.6623H79.6876C79.1685 23.1939 77.8186 24.2842 75.6899 24.2842C73.2757 24.2842 71.2509 22.7007 71.0692 19.8192H82.4393C82.4912 19.326 82.5172 18.9106 82.5172 18.3914C82.5172 14.4976 79.8174 11.5901 75.6899 11.5901C71.5365 11.5901 68.655 14.4197 68.655 18.9106C68.655 23.4275 71.6403 26.283 75.6899 26.283C79.2204 26.283 81.5048 24.2582 82.2317 21.6623ZM95.9152 20.9614C95.9152 22.9343 94.5134 24.1025 92.1771 24.1025H87.9976V17.7165H92.0992C94.4096 17.7165 95.9152 18.9625 95.9152 20.9614ZM95.4479 12.8362C95.4479 14.6793 94.1759 15.7696 91.9694 15.7696H87.9976V9.90278H91.9175C94.2278 9.90278 95.4479 11.045 95.4479 12.8362ZM98.2775 21.195C98.2775 18.9625 96.668 17.0675 94.6951 16.7301C96.4344 16.159 97.8621 14.835 97.8621 12.5506C97.8621 10.0326 95.9412 7.95584 92.1251 7.95584H85.6353V26.0494H92.3847C96.1229 26.0494 98.2775 23.9208 98.2775 21.195ZM114.172 11.8238H111.81V19.6375C111.81 22.7007 110.174 24.2063 107.734 24.2063C105.346 24.2063 103.762 22.7266 103.762 19.8452V11.8238H101.426V20.1567C101.426 24.2323 103.996 26.2571 107.267 26.2571C109.162 26.2571 110.901 25.4264 111.81 23.9467V26.0494H114.172V11.8238ZM128.388 22.1815C128.284 17.0935 120.029 18.9366 120.029 15.5619C120.029 14.4197 121.068 13.589 122.807 13.589C124.702 13.589 125.792 14.6274 125.896 16.0551H128.259C128.103 13.2775 126.026 11.5901 122.885 11.5901C119.718 11.5901 117.667 13.3813 117.667 15.5619C117.667 20.8576 126.078 19.0145 126.078 22.1815C126.078 23.3497 125.04 24.2842 123.171 24.2842C121.172 24.2842 119.952 23.2458 119.822 21.87H117.382C117.537 24.4659 119.874 26.283 123.196 26.283C126.338 26.283 128.388 24.5178 128.388 22.1815ZM131.723 26.0494H134.085V11.8238H131.723V26.0494ZM132.943 9.5134C133.8 9.5134 134.501 8.8125 134.501 7.90393C134.501 6.99535 133.8 6.29446 132.943 6.29446C132.035 6.29446 131.334 6.99535 131.334 7.90393C131.334 8.8125 132.035 9.5134 132.943 9.5134ZM148.521 26.0494H150.857V17.6646C150.857 13.589 148.339 11.5642 145.043 11.5642C143.122 11.5642 141.408 12.3689 140.474 13.8486V11.8238H138.111V26.0494H140.474V18.1838C140.474 15.1206 142.135 13.615 144.549 13.615C146.938 13.615 148.521 15.0946 148.521 18.0021V26.0494ZM160.765 13.589C163.205 13.589 165.282 15.1206 165.256 17.8982H156.274C156.533 15.1206 158.454 13.589 160.765 13.589ZM167.41 21.6623H164.866C164.347 23.1939 162.997 24.2842 160.869 24.2842C158.454 24.2842 156.43 22.7007 156.248 19.8192H167.618C167.67 19.326 167.696 18.9106 167.696 18.3914C167.696 14.4976 164.996 11.5901 160.869 11.5901C156.715 11.5901 153.834 14.4197 153.834 18.9106C153.834 23.4275 156.819 26.283 160.869 26.283C164.399 26.283 166.683 24.2582 167.41 21.6623ZM181.042 22.1815C180.938 17.0935 172.683 18.9366 172.683 15.5619C172.683 14.4197 173.721 13.589 175.461 13.589C177.356 13.589 178.446 14.6274 178.55 16.0551H180.912C180.756 13.2775 178.68 11.5901 175.539 11.5901C172.372 11.5901 170.321 13.3813 170.321 15.5619C170.321 20.8576 178.732 19.0145 178.732 22.1815C178.732 23.3497 177.693 24.2842 175.824 24.2842C173.825 24.2842 172.605 23.2458 172.475 21.87H170.035C170.191 24.4659 172.527 26.283 175.85 26.283C178.991 26.283 181.042 24.5178 181.042 22.1815ZM194.605 22.1815C194.501 17.0935 186.246 18.9366 186.246 15.5619C186.246 14.4197 187.284 13.589 189.023 13.589C190.918 13.589 192.009 14.6274 192.112 16.0551H194.475C194.319 13.2775 192.242 11.5901 189.101 11.5901C185.934 11.5901 183.883 13.3813 183.883 15.5619C183.883 20.8576 192.294 19.0145 192.294 22.1815C192.294 23.3497 191.256 24.2842 189.387 24.2842C187.388 24.2842 186.168 23.2458 186.038 21.87H183.598C183.754 24.4659 186.09 26.283 189.413 26.283C192.554 26.283 194.605 24.5178 194.605 22.1815ZM208.479 26.0494H214.242V7.67029H208.479V14.2899H203.001V7.67029H197.238V26.0494H203.001V18.8847H208.479V26.0494ZM232.332 11.4084H226.569V19.1702C226.569 20.572 225.79 21.4287 224.518 21.4287C223.272 21.4287 222.468 20.572 222.468 19.1702V11.4084H216.731V19.8971C216.731 23.6871 218.704 26.1532 222.078 26.1532C224.285 26.1532 225.739 25.0889 226.569 23.8169V26.0494H232.332V11.4084ZM240.698 13.4073V6.8396H234.935V26.0494H240.698V24.0505C241.399 25.3745 242.775 26.2311 244.722 26.2311C248.096 26.2311 250.77 23.4535 250.77 18.7289C250.77 14.0043 248.096 11.2267 244.722 11.2267C242.775 11.2267 241.399 12.0834 240.698 13.4073ZM244.929 18.7289C244.929 20.3384 243.995 21.195 242.801 21.195C241.607 21.195 240.672 20.3384 240.672 18.7289C240.672 17.1194 241.607 16.2628 242.801 16.2628C243.995 16.2628 244.929 17.1194 244.929 18.7289Z" fill="#005555"/>
<defs>
<clipPath id="clip0_3683_6213">
<rect width="32.7906" height="32.7906" fill="white"/>
</clipPath>
</defs>
</svg>
