<svg width="285" height="92" viewBox="0 0 285 92" fill="none" xmlns="http://www.w3.org/2000/svg">
<path d="M143.17 18.6578H120.283V63.8388H104.686V18.6578H81.7988V11.7732C81.7988 8.45948 84.4851 5.77319 87.7988 5.77319H143.17V18.6578Z" fill="#028789"/>
<path d="M152.162 63.8388V28.4061H192.172C193.698 28.2365 194.998 27.7562 196.072 26.965C197.145 26.1739 197.682 25.0436 197.682 23.5743C197.682 21.8225 196.976 20.5792 195.563 19.8446C194.15 19.0534 192.483 18.6578 190.562 18.6578H127.315V5.77319H193.19C195.959 5.77319 198.53 6.14052 200.903 6.87517C203.277 7.60982 205.34 8.68354 207.092 10.0963C208.843 11.4526 210.256 13.1762 211.33 15.2671C212.46 17.3016 213.195 19.6468 213.534 22.3028V24.7611C213.082 28.8864 211.697 32.2771 209.38 34.9331C211.641 37.5892 213.025 40.8951 213.534 44.8509V47.3092C213.251 49.9652 212.545 52.3387 211.415 54.4296C210.341 56.464 208.9 58.1876 207.092 59.6004C205.34 61.0132 203.277 62.0869 200.903 62.8216C198.53 63.4997 195.959 63.8388 193.19 63.8388H152.162ZM192.172 41.2907H167.759V50.9542H190.562C192.483 50.9542 194.15 50.5868 195.563 49.8522C196.976 49.061 197.682 47.8178 197.682 46.1224C197.682 44.6531 197.145 43.5512 196.072 42.8165C194.998 42.0253 193.698 41.5167 192.172 41.2907Z" fill="#028789"/>
<path d="M283.897 63.8388H274.3C270.986 63.8388 268.3 61.1525 268.3 57.8388V41.2907H238.123V63.8388H222.526V11.7732C222.526 8.45949 225.212 5.77319 228.526 5.77319H238.123V28.4061H268.3V5.77319H283.897V63.8388Z" fill="#028789"/>
<path d="M37.0244 26.3949L43.4219 29.9809L66.1089 16.4968L36.6891 0L5.03711 18.8082L27.8155 31.8654L37.0244 26.3949Z" fill="#F2C900"/>
<path d="M42.0562 85.2466L55.0402 77.5318L54.7108 51.7102L23.2297 34.5913L0 21.9611L0.00610459 22.5038L0.189056 37.3784L41.739 59.9739L42.0562 85.2466Z" fill="#028789"/>
<path d="M48.539 32.8536L40.5742 37.5861L60.3276 48.3258L60.6509 74.1963L71.8358 67.5548L71.232 19.3695L54.5828 29.2615L48.539 32.8536Z" fill="#028789"/>
<path d="M36.1293 63.359L0.275391 43.8617L0.562046 66.9023L36.4159 86.4241L36.1293 63.359Z" fill="#028789"/>
<path d="M94.1124 74.4487V76.7672H89.5548V91.7756H86.7463V76.7672H82.1641V74.4487H94.1124Z" fill="#028789"/>
<path d="M103.978 77.8143C105.012 77.8143 105.932 78.0387 106.737 78.4875C107.558 78.9362 108.199 79.601 108.659 80.4819C109.135 81.3628 109.373 82.4265 109.373 83.6731V91.7756H106.589V84.0969C106.589 82.867 106.285 81.9279 105.678 81.2797C105.07 80.6149 104.241 80.2825 103.189 80.2825C102.138 80.2825 101.301 80.6149 100.677 81.2797C100.069 81.9279 99.7651 82.867 99.7651 84.0969V91.7756H96.9566V73.3268H99.7651V79.6343C100.241 79.0525 100.841 78.6038 101.563 78.288C102.303 77.9722 103.107 77.8143 103.978 77.8143Z" fill="#028789"/>
<path d="M125.396 84.5706C125.396 85.0858 125.363 85.5512 125.298 85.9667H114.926C115.008 87.0636 115.411 87.9445 116.133 88.6093C116.856 89.2742 117.743 89.6066 118.794 89.6066C120.305 89.6066 121.373 88.9667 121.997 87.6869H125.027C124.616 88.9501 123.869 89.9889 122.785 90.8033C121.717 91.601 120.387 91.9999 118.794 91.9999C117.497 91.9999 116.33 91.7091 115.296 91.1274C114.277 90.529 113.473 89.698 112.881 88.6343C112.307 87.5539 112.019 86.3074 112.019 84.8947C112.019 83.4819 112.298 82.2437 112.857 81.18C113.432 80.0996 114.228 79.2686 115.246 78.6869C116.281 78.1052 117.464 77.8143 118.794 77.8143C120.075 77.8143 121.216 78.0969 122.218 78.662C123.22 79.2271 124 80.0249 124.559 81.0553C125.117 82.0692 125.396 83.2409 125.396 84.5706ZM122.465 83.6731C122.448 82.626 122.079 81.7866 121.356 81.155C120.633 80.5235 119.738 80.2077 118.671 80.2077C117.702 80.2077 116.872 80.5235 116.183 81.155C115.493 81.77 115.082 82.6093 114.951 83.6731H122.465Z" fill="#028789"/>
<path d="M137.325 82.8753C138.244 83.0415 139.024 83.5318 139.665 84.3462C140.306 85.1606 140.626 86.083 140.626 87.1135C140.626 87.9944 140.396 88.7922 139.936 89.5069C139.493 90.2049 138.844 90.7617 137.99 91.1772C137.136 91.5761 136.142 91.7756 135.009 91.7756H128.16V74.4487H134.689C135.855 74.4487 136.857 74.6481 137.694 75.047C138.532 75.4459 139.164 75.9861 139.591 76.6675C140.018 77.3323 140.232 78.0802 140.232 78.9113C140.232 79.9085 139.969 80.7395 139.443 81.4044C138.918 82.0692 138.212 82.5595 137.325 82.8753ZM130.969 81.7285H134.442C135.362 81.7285 136.076 81.5207 136.586 81.1052C137.111 80.673 137.374 80.0581 137.374 79.2603C137.374 78.4791 137.111 77.8725 136.586 77.4404C136.076 76.9916 135.362 76.7672 134.442 76.7672H130.969V81.7285ZM134.763 89.457C135.715 89.457 136.462 89.2243 137.004 88.7589C137.546 88.2936 137.817 87.6454 137.817 86.8143C137.817 85.9667 137.53 85.2936 136.955 84.7949C136.38 84.2963 135.617 84.047 134.664 84.047H130.969V89.457H134.763Z" fill="#028789"/>
<path d="M155.971 78.0387V91.7756H153.162V90.1551C152.719 90.7202 152.136 91.1689 151.413 91.5013C150.707 91.8171 149.952 91.975 149.147 91.975C148.079 91.975 147.119 91.7506 146.264 91.3019C145.427 90.8531 144.762 90.1883 144.269 89.3074C143.793 88.4265 143.555 87.3628 143.555 86.1163V78.0387H146.338V85.6924C146.338 86.9224 146.642 87.8697 147.25 88.5346C147.858 89.1828 148.687 89.5069 149.738 89.5069C150.789 89.5069 151.619 89.1828 152.226 88.5346C152.85 87.8697 153.162 86.9224 153.162 85.6924V78.0387H155.971Z" fill="#028789"/>
<path d="M164.604 91.9999C163.536 91.9999 162.575 91.8088 161.721 91.4265C160.884 91.0276 160.218 90.4958 159.726 89.831C159.233 89.1495 158.97 88.3933 158.937 87.5623H161.844C161.894 88.144 162.165 88.6343 162.657 89.0332C163.167 89.4154 163.799 89.6066 164.554 89.6066C165.343 89.6066 165.95 89.457 166.377 89.1578C166.821 88.842 167.043 88.4431 167.043 87.9611C167.043 87.4459 166.796 87.0636 166.303 86.8143C165.827 86.565 165.063 86.2908 164.012 85.9916C162.994 85.7091 162.165 85.4348 161.524 85.1689C160.884 84.903 160.325 84.4958 159.849 83.9473C159.389 83.3988 159.159 82.6758 159.159 81.7783C159.159 81.047 159.373 80.3822 159.8 79.7839C160.227 79.1689 160.834 78.6869 161.623 78.3379C162.427 77.9888 163.347 77.8143 164.382 77.8143C165.926 77.8143 167.166 78.2132 168.102 79.011C169.054 79.7922 169.564 80.8642 169.629 82.2271H166.821C166.772 81.6121 166.525 81.1218 166.082 80.7562C165.638 80.3905 165.039 80.2077 164.283 80.2077C163.544 80.2077 162.978 80.3489 162.583 80.6315C162.189 80.914 161.992 81.288 161.992 81.7534C161.992 82.119 162.124 82.4265 162.386 82.6758C162.649 82.9251 162.969 83.1246 163.347 83.2742C163.725 83.4071 164.283 83.5816 165.022 83.7977C166.008 84.0636 166.813 84.3379 167.437 84.6204C168.077 84.8864 168.627 85.2852 169.087 85.8171C169.547 86.349 169.785 87.0553 169.802 87.9362C169.802 88.7174 169.588 89.4154 169.161 90.0304C168.734 90.6454 168.126 91.1274 167.338 91.4764C166.566 91.8254 165.655 91.9999 164.604 91.9999Z" fill="#028789"/>
<path d="M174.265 76.2188C173.756 76.2188 173.329 76.0442 172.984 75.6952C172.639 75.3462 172.467 74.914 172.467 74.3988C172.467 73.8836 172.639 73.4514 172.984 73.1024C173.329 72.7534 173.756 72.5789 174.265 72.5789C174.758 72.5789 175.177 72.7534 175.522 73.1024C175.867 73.4514 176.039 73.8836 176.039 74.3988C176.039 74.914 175.867 75.3462 175.522 75.6952C175.177 76.0442 174.758 76.2188 174.265 76.2188ZM175.645 78.0387V91.7756H172.836V78.0387H175.645Z" fill="#028789"/>
<path d="M186.181 77.8143C187.248 77.8143 188.201 78.0387 189.038 78.4875C189.893 78.9362 190.558 79.601 191.034 80.4819C191.51 81.3628 191.748 82.4265 191.748 83.6731V91.7756H188.965V84.0969C188.965 82.867 188.661 81.9279 188.053 81.2797C187.445 80.6149 186.616 80.2825 185.565 80.2825C184.514 80.2825 183.676 80.6149 183.052 81.2797C182.444 81.9279 182.141 82.867 182.141 84.0969V91.7756H179.332V78.0387H182.141V79.6093C182.6 79.0442 183.183 78.6038 183.89 78.288C184.612 77.9722 185.376 77.8143 186.181 77.8143Z" fill="#028789"/>
<path d="M207.772 84.5706C207.772 85.0858 207.739 85.5512 207.673 85.9667H197.302C197.384 87.0636 197.786 87.9445 198.509 88.6093C199.231 89.2742 200.118 89.6066 201.169 89.6066C202.68 89.6066 203.748 88.9667 204.372 87.6869H207.402C206.992 88.9501 206.244 89.9889 205.16 90.8033C204.093 91.601 202.763 91.9999 201.169 91.9999C199.872 91.9999 198.706 91.7091 197.671 91.1274C196.653 90.529 195.848 89.698 195.257 88.6343C194.682 87.5539 194.395 86.3074 194.395 84.8947C194.395 83.4819 194.674 82.2437 195.232 81.18C195.807 80.0996 196.604 79.2686 197.622 78.6869C198.657 78.1052 199.839 77.8143 201.169 77.8143C202.45 77.8143 203.592 78.0969 204.594 78.662C205.596 79.2271 206.376 80.0249 206.934 81.0553C207.493 82.0692 207.772 83.2409 207.772 84.5706ZM204.84 83.6731C204.824 82.626 204.454 81.7866 203.732 81.155C203.009 80.5235 202.114 80.2077 201.046 80.2077C200.077 80.2077 199.248 80.5235 198.558 81.155C197.868 81.77 197.458 82.6093 197.326 83.6731H204.84Z" fill="#028789"/>
<path d="M215.463 91.9999C214.395 91.9999 213.434 91.8088 212.58 91.4265C211.743 91.0276 211.078 90.4958 210.585 89.831C210.092 89.1495 209.829 88.3933 209.797 87.5623H212.704C212.753 88.144 213.024 88.6343 213.516 89.0332C214.026 89.4154 214.658 89.6066 215.413 89.6066C216.202 89.6066 216.809 89.457 217.236 89.1578C217.68 88.842 217.902 88.4431 217.902 87.9611C217.902 87.4459 217.655 87.0636 217.163 86.8143C216.686 86.565 215.923 86.2908 214.871 85.9916C213.853 85.7091 213.024 85.4348 212.383 85.1689C211.743 84.903 211.184 84.4958 210.708 83.9473C210.248 83.3988 210.018 82.6758 210.018 81.7783C210.018 81.047 210.232 80.3822 210.659 79.7839C211.086 79.1689 211.693 78.6869 212.482 78.3379C213.287 77.9888 214.206 77.8143 215.241 77.8143C216.785 77.8143 218.025 78.2132 218.961 79.011C219.914 79.7922 220.423 80.8642 220.488 82.2271H217.68C217.631 81.6121 217.384 81.1218 216.941 80.7562C216.497 80.3905 215.898 80.2077 215.142 80.2077C214.403 80.2077 213.837 80.3489 213.443 80.6315C213.048 80.914 212.851 81.288 212.851 81.7534C212.851 82.119 212.983 82.4265 213.246 82.6758C213.508 82.9251 213.829 83.1246 214.206 83.2742C214.584 83.4071 215.142 83.5816 215.882 83.7977C216.867 84.0636 217.672 84.3379 218.296 84.6204C218.936 84.8864 219.487 85.2852 219.946 85.8171C220.406 86.349 220.644 87.0553 220.661 87.9362C220.661 88.7174 220.447 89.4154 220.02 90.0304C219.593 90.6454 218.986 91.1274 218.197 91.4764C217.425 91.8254 216.514 91.9999 215.463 91.9999Z" fill="#028789"/>
<path d="M228.623 91.9999C227.555 91.9999 226.594 91.8088 225.74 91.4265C224.903 91.0276 224.237 90.4958 223.745 89.831C223.252 89.1495 222.989 88.3933 222.956 87.5623H225.863C225.913 88.144 226.184 88.6343 226.676 89.0332C227.185 89.4154 227.818 89.6066 228.573 89.6066C229.362 89.6066 229.969 89.457 230.396 89.1578C230.84 88.842 231.062 88.4431 231.062 87.9611C231.062 87.4459 230.815 87.0636 230.322 86.8143C229.846 86.565 229.082 86.2908 228.031 85.9916C227.013 85.7091 226.184 85.4348 225.543 85.1689C224.903 84.903 224.344 84.4958 223.868 83.9473C223.408 83.3988 223.178 82.6758 223.178 81.7783C223.178 81.047 223.392 80.3822 223.819 79.7839C224.246 79.1689 224.853 78.6869 225.642 78.3379C226.446 77.9888 227.366 77.8143 228.401 77.8143C229.945 77.8143 231.185 78.2132 232.121 79.011C233.073 79.7922 233.583 80.8642 233.648 82.2271H230.84C230.791 81.6121 230.544 81.1218 230.101 80.7562C229.657 80.3905 229.058 80.2077 228.302 80.2077C227.563 80.2077 226.997 80.3489 226.602 80.6315C226.208 80.914 226.011 81.288 226.011 81.7534C226.011 82.119 226.143 82.4265 226.405 82.6758C226.668 82.9251 226.988 83.1246 227.366 83.2742C227.744 83.4071 228.302 83.5816 229.041 83.7977C230.027 84.0636 230.832 84.3379 231.456 84.6204C232.096 84.8864 232.646 85.2852 233.106 85.8171C233.566 86.349 233.804 87.0553 233.821 87.9362C233.821 88.7174 233.607 89.4154 233.18 90.0304C232.753 90.6454 232.145 91.1274 231.357 91.4764C230.585 91.8254 229.674 91.9999 228.623 91.9999Z" fill="#028789"/>
<path d="M250.528 74.4487V91.7756H247.72V84.1966H239.664V91.7756H236.855V74.4487H239.664V81.878H247.72V74.4487H250.528Z" fill="#028789"/>
<path d="M266.519 78.0387V91.7756H263.71V90.1551C263.267 90.7202 262.684 91.1689 261.961 91.5013C261.255 91.8171 260.499 91.975 259.694 91.975C258.627 91.975 257.666 91.7506 256.812 91.3019C255.974 90.8531 255.309 90.1883 254.817 89.3074C254.34 88.4265 254.102 87.3628 254.102 86.1163V78.0387H256.886V85.6924C256.886 86.9224 257.19 87.8697 257.798 88.5346C258.405 89.1828 259.235 89.5069 260.286 89.5069C261.337 89.5069 262.166 89.1828 262.774 88.5346C263.398 87.8697 263.71 86.9224 263.71 85.6924V78.0387H266.519Z" fill="#028789"/>
<path d="M273.033 80.083C273.509 79.4182 274.158 78.878 274.979 78.4625C275.816 78.0304 276.744 77.8143 277.763 77.8143C278.962 77.8143 280.046 78.1052 281.015 78.6869C281.984 79.2686 282.747 80.0996 283.306 81.18C283.864 82.2437 284.143 83.4653 284.143 84.8448C284.143 86.2243 283.864 87.4625 283.306 88.5595C282.747 89.6398 281.975 90.4875 280.99 91.1024C280.021 91.7008 278.945 91.9999 277.763 91.9999C276.711 91.9999 275.775 91.7922 274.954 91.3767C274.149 90.9612 273.509 90.4293 273.033 89.7811V91.7756H270.224V73.3268H273.033V80.083ZM281.285 84.8448C281.285 83.8974 281.088 83.083 280.694 82.4016C280.317 81.7035 279.807 81.18 279.167 80.8309C278.543 80.4653 277.869 80.2825 277.147 80.2825C276.44 80.2825 275.767 80.4653 275.127 80.8309C274.502 81.1966 273.993 81.7285 273.599 82.4265C273.221 83.1246 273.033 83.9473 273.033 84.8947C273.033 85.842 273.221 86.6731 273.599 87.3877C273.993 88.0858 274.502 88.6177 275.127 88.9833C275.767 89.349 276.44 89.5318 277.147 89.5318C277.869 89.5318 278.543 89.349 279.167 88.9833C279.807 88.601 280.317 88.0526 280.694 87.3379C281.088 86.6232 281.285 85.7922 281.285 84.8448Z" fill="#028789"/>
</svg>
