<svg width="25" height="25" viewBox="0 0 25 25" fill="none" xmlns="http://www.w3.org/2000/svg">
<path d="M0 12.2459C0.14658 11.8921 0.414431 11.7755 0.789845 11.7803C1.98199 11.7945 3.17467 11.785 4.36735 11.7861C5.14612 11.7866 5.56582 12.1425 5.64913 12.9113C5.7335 13.6932 5.91962 14.443 6.24073 15.1622C6.39996 15.5186 6.29029 15.7965 5.93755 15.9668C5.46512 16.1946 4.98741 16.4118 4.48018 16.648C5.33277 18.1887 6.51385 19.3677 8.06454 20.2366C8.25119 19.8401 8.42783 19.4641 8.60499 19.0877C8.66457 18.9611 8.71782 18.8304 8.78689 18.7091C8.93822 18.4418 9.20185 18.3279 9.47867 18.4502C10.2886 18.8088 11.1343 19.0023 12.0132 19.0945C12.5236 19.1483 12.9159 19.6123 12.9228 20.1649C12.9391 21.4799 12.9291 22.7954 12.9286 24.1109C12.9286 24.4273 12.7287 24.595 12.4699 24.7168C12.2943 24.7168 12.1192 24.7168 11.9436 24.7168C11.8577 24.7031 11.7723 24.682 11.6858 24.6772C9.47867 24.5528 7.43973 23.899 5.60379 22.6699C2.6648 20.7001 0.858917 17.9683 0.210379 14.4867C0.10809 13.9384 0.0685446 13.379 0 12.8248C0 12.6318 0 12.4388 0 12.2459ZM4.47122 12.9355C3.38927 12.9355 2.28148 12.9355 1.17317 12.9355C1.40675 18.9332 6.5671 23.4413 11.7823 23.5267C11.7823 22.4179 11.7823 21.309 11.7823 20.2429C11.0257 20.0747 10.2938 19.9123 9.53772 19.7441C9.32945 20.1907 9.11011 20.6663 8.88602 21.1398C8.68672 21.5606 8.40568 21.6597 7.98809 21.4546C5.87691 20.418 4.30039 18.8446 3.26378 16.7334C3.05604 16.3106 3.15094 16.0332 3.57065 15.8334C3.9893 15.6336 4.41164 15.4411 4.83134 15.2439C4.89145 15.2154 4.94681 15.1775 4.96632 15.1664C4.79865 14.4119 4.63784 13.6879 4.47122 12.9355Z" fill="#028789"/>
<path d="M19.8929 20.6716C19.5185 20.2983 19.1552 19.944 18.803 19.5786C18.7086 19.481 18.6195 19.3603 18.5779 19.2343C18.4998 18.9965 18.6137 18.7471 18.8199 18.6211C19.0292 18.4935 19.3044 18.514 19.4995 18.6996C19.8359 19.0197 20.1597 19.3534 20.4892 19.6809C20.5504 19.742 20.6147 19.7995 20.6943 19.8749C22.4485 17.884 23.4029 15.5835 23.5748 12.916C23.0243 12.916 22.5012 12.9208 21.9782 12.9145C21.6128 12.9097 21.3797 12.7125 21.3544 12.4062C21.3254 12.054 21.559 11.7988 21.946 11.7882C22.3842 11.7766 22.8229 11.7851 23.261 11.7851C23.3554 11.7851 23.4493 11.7851 23.5753 11.7851C23.4092 9.12026 22.4512 6.82348 20.6795 4.81776C20.312 5.18949 19.9656 5.5475 19.6102 5.8955C19.5127 5.99093 19.3967 6.08478 19.2717 6.13277C19.0429 6.22029 18.7803 6.11484 18.6469 5.91711C18.5051 5.70673 18.522 5.41674 18.7139 5.21532C19.0281 4.88525 19.3556 4.56784 19.6772 4.24462C19.7436 4.17766 19.8069 4.10753 19.8712 4.03899C17.9915 2.24681 15.2671 1.22286 12.9308 1.15484C12.9308 1.3262 12.9308 1.49704 12.9308 1.66787C12.9308 1.97474 12.9308 2.28161 12.9308 2.58848C12.9303 3.10678 12.7379 3.36673 12.3582 3.36303C11.9881 3.35934 11.8004 3.10362 11.7998 2.60113C11.7993 2.1287 11.7998 1.65575 11.7998 1.18701C10.2866 0.869591 6.63316 2.36176 4.83729 4.03794C5.12149 4.31844 5.40621 4.59842 5.68935 4.87945C5.80113 4.99071 5.91713 5.0988 6.02048 5.21796C6.23138 5.4605 6.22347 5.79057 6.01151 6.00095C5.79955 6.2108 5.46368 6.22187 5.22958 6.00095C4.8916 5.68195 4.56944 5.34714 4.2399 5.01971C4.17873 4.95907 4.11388 4.9016 4.03901 4.83147C3.28185 5.66508 2.65757 6.57145 2.20992 7.58644C1.94945 8.17698 1.75067 8.79546 1.53344 9.40498C1.41322 9.7419 1.16435 9.91274 0.860647 9.84208C0.518451 9.76247 0.357634 9.46351 0.459397 9.08809C0.867501 7.58275 1.53502 6.20131 2.4783 4.96065C4.3443 2.50623 6.78185 0.903864 9.8015 0.28538C13.736 -0.520283 17.2861 0.38187 20.3632 2.96706C22.6795 4.91267 24.0525 7.42351 24.5613 10.4047C25.5246 16.048 22.197 21.8369 16.8194 23.8679C16.4271 24.0161 16.0243 24.1389 15.6225 24.2597C15.2761 24.3635 14.9814 24.2127 14.8865 23.9038C14.7873 23.5811 14.954 23.2911 15.3193 23.1888C16.9734 22.7248 18.4518 21.9365 19.7473 20.8066C19.7848 20.7707 19.8233 20.7349 19.8929 20.6716Z" fill="#028789"/>
<path d="M9.57786 14.6001C10.1014 14.6001 10.6076 14.5996 11.1138 14.6001C11.3505 14.6001 11.5873 14.5938 11.8235 14.6054C12.1325 14.6207 12.3544 14.8495 12.3624 15.1422C12.3703 15.4316 12.152 15.7053 11.8535 15.7095C10.8807 15.7227 9.90793 15.7222 8.93513 15.7085C8.65778 15.7042 8.4474 15.4791 8.44108 15.1844C8.42842 14.5537 8.40364 13.9194 8.45795 13.2931C8.53388 12.4194 9.2151 11.8273 10.102 11.7888C10.2944 11.7803 10.4879 11.7914 10.6804 11.7824C10.9988 11.7677 11.1971 11.5794 11.2393 11.2636C11.244 11.2288 11.244 11.1935 11.2456 11.1587C11.2804 10.2354 11.1528 10.1026 10.2338 10.1026C9.83939 10.1026 9.44499 10.1068 9.0506 10.101C8.68731 10.0957 8.44319 9.87373 8.43633 9.55579C8.42948 9.22678 8.68204 8.98898 9.05534 8.98634C9.60739 8.98212 10.16 8.97738 10.712 8.9874C11.6184 9.00374 12.3402 9.72557 12.3613 10.6325C12.3676 10.9124 12.3824 11.1972 12.3413 11.4719C12.2147 12.3208 11.5403 12.8892 10.6614 12.9166C10.4689 12.9224 10.2754 12.9129 10.083 12.9245C9.82357 12.9403 9.59843 13.1075 9.58419 13.3463C9.55994 13.7523 9.57786 14.1625 9.57786 14.6001Z" fill="#028789"/>
<path d="M14.6137 11.7709C15.1874 11.7709 15.7263 11.7709 16.2973 11.7709C16.2973 11.6628 16.2973 11.5689 16.2973 11.4751C16.2978 10.8439 16.2931 10.2133 16.2999 9.58219C16.3036 9.22418 16.5404 8.98164 16.8599 8.9848C17.1689 8.98849 17.4119 9.22998 17.413 9.5669C17.4172 11.4245 17.4177 13.282 17.413 15.1401C17.4119 15.4754 17.1641 15.7164 16.8551 15.7169C16.5451 15.7175 16.3057 15.4797 16.301 15.1406C16.2931 14.51 16.2978 13.8789 16.2973 13.2477C16.2973 13.1523 16.2973 13.0574 16.2973 12.9335C16.1876 12.9272 16.0953 12.9177 16.0036 12.9172C15.3904 12.9156 14.7767 12.9193 14.1634 12.9156C13.7005 12.9124 13.4859 12.7004 13.4838 12.2396C13.4801 11.3633 13.4796 10.487 13.4848 9.61067C13.4864 9.29747 13.6209 9.10396 13.8713 9.01802C14.1049 8.93787 14.3253 8.9906 14.4598 9.18253C14.5531 9.3154 14.6027 9.5031 14.6074 9.66867C14.6243 10.2639 14.6143 10.8603 14.6143 11.4561C14.6137 11.5515 14.6137 11.647 14.6137 11.7709Z" fill="#028789"/>
</svg>
