<svg width="21" height="21" viewBox="0 0 21 21" fill="none" xmlns="http://www.w3.org/2000/svg">
<path fill-rule="evenodd" clip-rule="evenodd" d="M-4.5897e-07 10.5C-7.12452e-07 16.299 4.70101 21 10.5 21C16.299 21 21 16.299 21 10.5C21 4.70101 16.299 -2.05488e-07 10.5 -4.5897e-07C4.70101 -7.12452e-07 -2.05488e-07 4.70101 -4.5897e-07 10.5ZM9.92662 4.02065L4.76883 9.17844C4.45233 9.49495 4.45233 10.0081 4.76883 10.3246C5.08534 10.6411 5.5985 10.6411 5.91501 10.3246L9.68924 6.55038L9.68924 15.75L11.3102 15.75L11.3102 6.55038L15.0844 10.3246C15.4009 10.6411 15.9141 10.6411 16.2306 10.3246C16.5471 10.0081 16.5471 9.49495 16.2306 9.17844L11.0728 4.02065C10.7563 3.70414 10.2431 3.70414 9.92662 4.02065Z" fill="white"/>
</svg>
