<svg width="21" height="21" viewBox="0 0 21 21" fill="none" xmlns="http://www.w3.org/2000/svg">
<path fill-rule="evenodd" clip-rule="evenodd" d="M21 10.5C21 4.70101 16.299 1.94364e-07 10.5 1.25211e-07C4.70101 5.6059e-08 1.94364e-07 4.70101 1.25211e-07 10.5C5.6059e-08 16.299 4.70101 21 10.5 21C16.299 21 21 16.299 21 10.5ZM11.0734 16.9794L16.2312 11.8216C16.5477 11.5051 16.5477 10.9919 16.2312 10.6754C15.9147 10.3589 15.4015 10.3589 15.085 10.6754L11.3108 14.4496L11.3108 5.25001L9.68982 5.25001L9.68982 14.4496L5.91558 10.6754C5.59908 10.3589 5.08592 10.3589 4.76941 10.6754C4.4529 10.9919 4.4529 11.5051 4.76941 11.8216L9.9272 16.9794C10.2437 17.2959 10.7569 17.2959 11.0734 16.9794Z" fill="white"/>
</svg>
