<svg width="65" height="65" viewBox="0 0 65 65" fill="none" xmlns="http://www.w3.org/2000/svg">
<rect width="65" height="65" rx="11" fill="#F8B400" fill-opacity="0.2"/>
<path d="M54.9453 57.7379C40.6479 57.7379 26.3505 57.7379 12.0531 57.7379C12.0325 57.7164 12.0157 57.6856 11.9905 57.6734C11.2134 57.3035 10.8781 56.7216 11.0397 56.0192C11.1956 55.3439 11.7645 54.9441 12.5808 54.9413C13.2337 54.9395 13.8857 54.9413 14.5386 54.9413C15.0458 54.9413 15.552 54.9413 16.0816 54.9413C16.0816 54.6583 16.0816 54.4416 16.0816 54.2259C16.0816 40.0742 16.0816 25.9215 16.0816 11.7698C16.0816 10.4949 16.5795 10.0017 17.8619 10.0017C24.3404 10.0017 30.819 10.0017 37.2975 10.0017C41.3055 10.0017 45.3144 9.99235 49.3224 10.0176C49.696 10.0204 50.1163 10.1736 50.4301 10.3837C50.8972 10.6966 50.9205 11.2402 50.9205 11.7698C50.9168 25.9374 50.9177 40.105 50.9177 54.2726C50.9177 54.4837 50.9177 54.6948 50.9177 54.9423C51.1456 54.9423 51.3138 54.9423 51.4819 54.9423C52.5224 54.9423 53.5639 54.9255 54.6044 54.9479C55.6879 54.9722 56.3557 56.0996 55.8 57.0028C55.6113 57.3063 55.2349 57.495 54.9453 57.7379ZM18.9024 54.9012C21.2786 54.9012 23.5997 54.9012 25.9395 54.9012C25.9395 54.6761 25.9395 54.4902 25.9395 54.3053C25.9395 50.9492 25.9386 47.5932 25.9404 44.2372C25.9404 43.1397 26.4654 42.6176 27.5704 42.6176C31.5167 42.6157 35.464 42.6157 39.4103 42.6176C40.5442 42.6176 41.0589 43.1332 41.0589 44.2652C41.0598 47.6371 41.0589 51.0081 41.0589 54.38C41.0589 54.5593 41.0589 54.7387 41.0589 54.903C43.45 54.903 45.7711 54.903 48.0922 54.903C48.0922 40.8569 48.0922 26.85 48.0922 12.83C38.3483 12.83 28.6324 12.83 18.9024 12.83C18.9024 26.8696 18.9024 40.8774 18.9024 54.9012ZM28.7706 45.4328C28.7706 48.6291 28.7706 51.7721 28.7706 54.9068C31.9492 54.9068 35.0931 54.9068 38.2269 54.9068C38.2269 51.7292 38.2269 48.5852 38.2269 45.4328C35.0605 45.4328 31.9277 45.4328 28.7706 45.4328Z" fill="#6A500C"/>
<path d="M22.2321 20.9539C22.2321 19.8826 22.2274 18.8122 22.234 17.7408C22.2396 16.7526 22.8103 16.181 23.8013 16.1782C25.9748 16.1726 28.1474 16.1735 30.3209 16.1782C31.3157 16.18 31.8938 16.7461 31.8966 17.7315C31.9032 19.92 31.9041 22.1084 31.8966 24.2969C31.8929 25.2561 31.311 25.8334 30.3536 25.8362C28.1651 25.8418 25.9757 25.8418 23.7873 25.8362C22.8075 25.8343 22.2386 25.2533 22.234 24.2595C22.2274 23.1574 22.2321 22.0552 22.2321 20.9539ZM25.0566 18.9971C25.0566 20.3636 25.0566 21.676 25.0566 23.0116C26.4073 23.0116 27.7299 23.0116 29.0655 23.0116C29.0655 21.6591 29.0655 20.3375 29.0655 18.9971C27.7177 18.9971 26.4063 18.9971 25.0566 18.9971Z" fill="#6A500C"/>
<path d="M39.898 25.8385C38.8266 25.8385 37.7553 25.8413 36.6849 25.8376C35.6714 25.8338 35.1035 25.265 35.1016 24.2432C35.097 22.0855 35.097 19.9279 35.1016 17.7702C35.1035 16.7484 35.6686 16.1796 36.6858 16.1777C38.8593 16.173 41.0319 16.1721 43.2054 16.1777C44.1927 16.1805 44.7625 16.7531 44.7653 17.7469C44.7709 19.9204 44.7709 22.093 44.7653 24.2665C44.7625 25.2566 44.1871 25.831 43.2045 25.8357C42.1023 25.8432 41.0001 25.8385 39.898 25.8385ZM37.9122 23.0083C39.2815 23.0083 40.605 23.0083 41.9314 23.0083C41.9314 21.6531 41.9314 20.3304 41.9314 19.0162C40.5695 19.0162 39.246 19.0162 37.9122 19.0162C37.9122 20.3594 37.9122 21.6605 37.9122 23.0083Z" fill="#6A500C"/>
<path d="M27.0704 29.2043C28.1726 29.2043 29.2748 29.1996 30.376 29.2061C31.3091 29.2117 31.891 29.7796 31.8957 30.7155C31.905 32.9189 31.9041 35.1233 31.8966 37.3267C31.8929 38.2701 31.3325 38.8417 30.39 38.8473C28.1707 38.8595 25.9505 38.8604 23.7312 38.8473C22.7934 38.8417 22.2377 38.2626 22.2349 37.3174C22.2283 35.1289 22.2283 32.9404 22.2349 30.752C22.2377 29.7675 22.814 29.2089 23.8115 29.2052C24.8969 29.2015 25.9832 29.2043 27.0704 29.2043ZM25.0576 32.0232C25.0576 33.3748 25.0576 34.6862 25.0576 36.0172C26.4101 36.0172 27.7336 36.0172 29.074 36.0172C29.074 34.6684 29.074 33.357 29.074 32.0232C27.7308 32.0232 26.4157 32.0232 25.0576 32.0232Z" fill="#6A500C"/>
<path d="M39.9442 29.2037C41.0464 29.2037 42.1485 29.1981 43.2507 29.2055C44.182 29.2112 44.7611 29.7819 44.7648 30.7196C44.7732 32.924 44.7732 35.1274 44.7648 37.3317C44.7611 38.2723 44.1978 38.8421 43.2535 38.8467C41.0342 38.858 38.814 38.8598 36.5947 38.8458C35.6579 38.8402 35.1059 38.2602 35.103 37.3112C35.0965 35.1227 35.0965 32.9342 35.103 30.7458C35.1059 29.7781 35.6775 29.2102 36.6386 29.2055C37.7408 29.199 38.843 29.2037 39.9442 29.2037ZM41.9412 36.0278C41.9412 34.6632 41.9412 33.3518 41.9412 32.0329C40.5859 32.0329 39.2614 32.0329 37.9285 32.0329C37.9285 33.3779 37.9285 34.6902 37.9285 36.0278C39.2726 36.0278 40.5868 36.0278 41.9412 36.0278Z" fill="#6A500C"/>
</svg>
