<svg width="27" height="27" viewBox="0 0 27 27" fill="none" xmlns="http://www.w3.org/2000/svg">
<path fill-rule="evenodd" clip-rule="evenodd" d="M13.8255 0.705638C6.72468 0.705637 0.968338 6.46197 0.968337 13.5628C0.968337 20.6636 6.72467 26.4199 13.8255 26.4199C20.9263 26.4199 26.6826 20.6636 26.6826 13.5628C26.6826 6.46198 20.9263 0.705638 13.8255 0.705638ZM21.7594 12.8614L15.4437 6.54572C15.0561 6.15816 14.4278 6.15816 14.0402 6.54572C13.6527 6.93328 13.6527 7.56164 14.0402 7.9492L18.6617 12.5707L7.3969 12.5707L7.3969 14.5555L18.6617 14.5555L14.0402 19.177C13.6527 19.5646 13.6527 20.193 14.0402 20.5805C14.4278 20.9681 15.0561 20.9681 15.4437 20.5805L21.7594 14.2649C22.1469 13.8773 22.1469 13.2489 21.7594 12.8614Z" fill="#F8B400"/>
</svg>
