<svg width="65" height="65" viewBox="0 0 65 65" fill="none" xmlns="http://www.w3.org/2000/svg">
<rect width="65" height="65" rx="11" fill="#F8B400" fill-opacity="0.2"/>
<path d="M31.4868 4.3252C32.236 4.3252 32.9885 4.3252 33.7377 4.3252C33.9202 4.36429 34.0993 4.41641 34.2817 4.44247C37.2266 4.86921 39.7349 6.14291 41.7709 8.31896C44.1163 10.8208 45.1717 13.8242 45.2011 17.2284C45.2206 19.5184 45.2239 21.8085 45.3444 24.092C45.4877 26.7176 45.8949 29.3106 46.8624 31.7831C47.1198 32.4444 46.9569 32.8418 46.263 33.122C44.53 33.8256 42.7807 34.4934 41.0379 35.1775C40.8587 35.2459 40.6796 35.3078 40.3473 35.4283C40.8359 35.7313 41.1649 35.9821 41.5298 36.1515C42.9077 36.7835 44.2987 37.3926 45.6864 38.005C46.7321 38.4676 47.6507 39.0931 48.3609 40.0052C49.3903 41.3278 49.7453 42.8425 49.6965 44.4876C49.5466 49.5531 49.4098 54.6186 49.2665 59.6841C49.26 59.8795 49.2665 60.0782 49.2665 60.3063C50.6347 60.3063 51.9279 60.2965 53.2212 60.3095C53.8792 60.316 54.2831 60.7363 54.1886 61.2738C54.104 61.7624 53.7586 61.9937 53.0811 61.9937C39.4417 61.9937 25.8056 61.9937 12.1662 62.0002C11.6157 62.0002 11.2215 61.834 11 61.3161C11 61.2021 11 61.0913 11 60.9773C11.2215 60.4626 11.6157 60.2835 12.1662 60.2932C13.4529 60.316 14.7397 60.2997 16.0622 60.2997C16.0622 60.088 16.0655 59.9382 16.0622 59.7916C16.0101 57.8403 15.958 55.889 15.9026 53.941C15.8114 50.6965 15.6876 47.452 15.6322 44.2074C15.5834 41.3278 16.9059 39.2625 19.525 38.0539C20.903 37.4187 22.3005 36.8323 23.6751 36.1906C24.0595 36.0114 24.3918 35.715 24.8413 35.4088C24.5156 35.2948 24.3397 35.2361 24.1703 35.171C22.4633 34.5032 20.7499 33.8484 19.0527 33.1578C18.209 32.8158 18.0982 32.477 18.4305 31.6137C18.5119 31.4052 18.5934 31.1935 18.6618 30.9818C19.5706 28.1347 19.9094 25.1996 19.9941 22.2287C20.0527 20.1862 19.9452 18.1307 20.1114 16.098C20.5511 10.7719 23.3461 7.1104 28.2878 5.12981C29.2977 4.72587 30.4183 4.5858 31.4868 4.3252ZM24.5188 19.4891C24.8772 19.0591 25.2192 18.6454 25.5678 18.2382C25.9261 17.818 26.3724 17.7333 26.7568 18.0069C27.1379 18.2773 27.2454 18.7692 26.9262 19.2024C26.5385 19.7269 26.1183 20.2416 25.6427 20.6846C24.711 21.5479 24.3071 21.5316 23.3298 20.727C22.8966 20.3686 22.3754 20.3882 22.0203 20.7726C21.5838 21.2449 21.5805 22.5382 22.0496 22.9779C22.2125 23.1311 22.4666 23.232 22.6914 23.2614C23.8641 23.4014 24.3657 23.8217 24.6263 24.9423C25.4342 28.4278 28.239 30.998 31.6171 31.3499C35.2362 31.731 38.5003 29.9263 40.0215 26.5906C40.4092 25.7436 40.5949 24.7631 40.6763 23.8249C40.8131 22.2548 39.8815 21.284 38.5003 20.7758C36.8161 20.1569 35.0961 19.6259 33.3859 19.0787C30.6105 18.1893 28.0175 16.971 25.8675 14.9448C25.4179 14.5213 25.3398 14.0392 25.6655 13.6581C25.9978 13.2672 26.4669 13.2639 26.9588 13.6613C27.3822 14.0034 27.7797 14.3747 28.2129 14.7038C30.0469 16.098 32.1513 16.9156 34.3241 17.603C35.9463 18.1177 37.5849 18.6031 39.1616 19.235C40.8881 19.9224 42.2041 21.0886 42.3344 23.092C42.393 23.9748 42.3018 24.8999 42.0966 25.7632C41.5624 27.9978 40.2919 29.7667 38.4644 31.1544C38.2625 31.3075 38.0247 31.5551 38.0019 31.7799C37.9367 32.3695 37.9791 32.9721 37.9791 33.5455C38.1843 33.6334 38.3732 33.6627 38.484 33.7735C38.7869 34.0732 39.0964 34.0341 39.4515 33.9005C41.1715 33.2653 42.8947 32.6399 44.6212 32.0209C44.9372 31.9069 45.061 31.7766 44.9405 31.4085C43.9078 28.2389 43.5886 24.9618 43.5267 21.6489C43.4908 19.7921 43.5462 17.9287 43.4355 16.0785C43.113 10.71 38.6306 6.33185 33.2426 6.03541C26.9294 5.69011 20.9095 10.8208 21.7727 18.9158C22.75 18.6421 23.6556 18.7985 24.5188 19.4891ZM32.6041 60.303C35.8291 60.303 39.0541 60.303 42.2823 60.303C43.2433 60.303 43.569 60.0033 43.6211 59.0456C43.8459 55.0355 44.0707 51.0287 44.2889 47.0187C44.3378 46.1522 43.973 45.7548 43.113 45.7548C36.119 45.7515 29.1218 45.7515 22.1278 45.7548C21.245 45.7548 20.8867 46.162 20.9355 47.061C21.1571 51.032 21.3786 55.003 21.5968 58.9739C21.6555 60.0066 21.9584 60.303 22.9813 60.303C26.19 60.303 29.3954 60.303 32.6041 60.303ZM19.069 40.1453C20.1374 41.4809 21.1114 42.7122 22.1083 43.9273C22.193 44.0283 22.408 44.0608 22.5643 44.0608C29.2944 44.0674 36.0278 44.0674 42.7579 44.0576C42.9273 44.0576 43.1553 44.0022 43.253 43.8849C44.2368 42.6861 45.2011 41.4678 46.2598 40.142C44.5202 39.3537 42.8621 38.6012 41.1584 37.8259C40.6893 38.7641 40.2626 39.6566 39.8033 40.5296C38.9335 42.1715 37.1777 42.5689 35.6727 41.4743C35.3307 41.2268 34.9919 40.9694 34.6303 40.7023C34.1026 41.4743 33.6856 42.292 32.6236 42.2985C31.5389 42.305 31.1284 41.4483 30.604 40.7023C30.2 41.002 29.8449 41.2756 29.4801 41.533C28.0272 42.5591 26.2844 42.1389 25.4375 40.5362C24.9749 39.6664 24.5514 38.7738 24.0921 37.8585C22.4047 38.624 20.7759 39.3667 19.069 40.1453ZM47.5432 60.2867C47.5563 60.0945 47.5693 59.9479 47.5726 59.8013C47.6801 55.9737 47.7876 52.1493 47.8951 48.3217C47.9341 46.934 47.9798 45.5463 48.0091 44.1586C48.0286 43.2334 47.8722 42.3506 47.3282 41.5069C46.491 42.5558 45.6995 43.5461 44.8948 44.556C45.8298 45.3215 46.0578 46.276 45.9601 47.3705C45.8689 48.3966 45.8363 49.4293 45.7776 50.4619C45.592 53.7325 45.4063 57.0031 45.2206 60.2867C45.9405 60.2867 46.7093 60.2867 47.5432 60.2867ZM32.6106 40.585C33.8061 38.9106 34.9789 37.2656 36.1516 35.6205C36.1939 35.5619 36.2526 35.4902 36.2526 35.4218C36.2591 34.4413 36.2558 33.4608 36.2558 32.4053C33.7898 33.3239 31.3923 33.2914 28.9393 32.4151C28.9393 33.4477 28.9361 34.3794 28.9459 35.3143C28.9459 35.4185 29.0078 35.5326 29.0697 35.6205C30.2424 37.2656 31.4151 38.9074 32.6106 40.585ZM17.9679 41.4776C17.8181 41.8066 17.7138 42.0184 17.6226 42.2399C17.235 43.1715 17.3099 44.1488 17.3359 45.1228C17.476 49.9961 17.6128 54.8694 17.7529 59.7427C17.7594 59.9219 17.7692 60.101 17.7757 60.2737C18.5868 60.2737 19.3296 60.2737 20.0495 60.2737C20.0006 59.8013 19.9322 59.3551 19.9094 58.9088C19.7042 55.2017 19.5348 51.4946 19.2905 47.7907C19.2058 46.517 19.2546 45.3508 20.3915 44.5071C19.5837 43.4973 18.8149 42.5363 17.9679 41.4776ZM20.3003 31.959C21.8802 32.5258 23.5774 33.1024 25.2485 33.7474C25.988 34.0341 26.6232 34.0406 27.2487 33.4705C27.2487 32.9428 27.2682 32.3792 27.2356 31.819C27.2259 31.6463 27.1086 31.4215 26.9685 31.3205C24.887 29.8188 23.5579 27.8284 22.9813 25.3266C22.9487 25.1866 22.7891 25.0107 22.6523 24.9716C22.32 24.8771 21.9649 24.851 21.6652 24.8022C21.2189 27.1346 20.7727 29.48 20.3003 31.959ZM27.0467 35.702C26.5907 36.0896 26.1574 36.4382 25.7535 36.8193C25.6688 36.9007 25.6264 37.132 25.6785 37.2395C26.0955 38.1158 26.532 38.9856 26.9816 39.8456C27.19 40.2462 27.5842 40.5296 27.9947 40.3472C28.581 40.0899 29.099 39.6762 29.656 39.3244C28.7374 38.0474 27.9067 36.8942 27.0467 35.702ZM35.5848 39.3016C36.0017 39.6143 36.3503 39.8944 36.7184 40.1453C37.3406 40.5687 37.9107 40.4482 38.2657 39.7869C38.7088 38.966 39.1192 38.1256 39.5166 37.2819C39.5753 37.1581 39.5459 36.904 39.4547 36.816C39.0573 36.4316 38.6208 36.0863 38.1713 35.7052C37.3015 36.917 36.461 38.0832 35.5848 39.3016Z" fill="#6A500C"/>
<path d="M32.5846 50.3839C34.3046 50.3709 35.702 51.7553 35.6988 53.4753C35.6988 55.1627 34.3241 56.5537 32.6367 56.5765C30.9428 56.5993 29.5192 55.1823 29.5225 53.4753C29.5257 51.7781 30.8906 50.3969 32.5846 50.3839ZM31.2099 53.4851C31.2164 54.2213 31.8777 54.8858 32.6074 54.8858C33.3403 54.8858 34.0016 54.2278 34.0114 53.4883C34.0179 52.713 33.3599 52.0615 32.5846 52.0713C31.8386 52.0843 31.2034 52.7358 31.2099 53.4851Z" fill="#6A500C"/>
</svg>
