<svg width="28" height="18" viewBox="0 0 28 18" fill="none" xmlns="http://www.w3.org/2000/svg">
<rect x="3.11816" y="1.08374" width="24.0048" height="13.4144" rx="0.706022" stroke="#028789" stroke-width="1.05903"/>
<path d="M22.5517 0.814453C22.2242 1.41906 22.1087 2.11596 22.2236 2.7939C22.3385 3.47184 22.6772 4.09175 23.1856 4.55469C23.6941 5.01762 24.3429 5.29689 25.0286 5.34792C25.7144 5.39895 26.3974 5.2188 26.9688 4.83622" stroke="#028789" stroke-width="1.05903"/>
<path d="M7.68851 0.814453C8.01601 1.41906 8.13153 2.11596 8.01663 2.7939C7.90172 3.47184 7.56303 4.09175 7.0546 4.55469C6.54617 5.01762 5.89731 5.29689 5.2116 5.34792C4.52588 5.39895 3.84284 5.2188 3.27148 4.83622" stroke="#028789" stroke-width="1.05903"/>
<path d="M22.5517 14.804C22.2242 14.1993 22.1087 13.5025 22.2236 12.8245C22.3385 12.1466 22.6772 11.5267 23.1856 11.0637C23.6941 10.6008 24.3429 10.3215 25.0286 10.2705C25.7144 10.2195 26.3974 10.3996 26.9688 10.7822" stroke="#028789" stroke-width="1.05903"/>
<path d="M7.68851 14.804C8.01601 14.1993 8.13153 13.5025 8.01663 12.8245C7.90172 12.1466 7.56303 11.5267 7.0546 11.0637C6.54617 10.6008 5.89731 10.3215 5.2116 10.2705C4.52588 10.2195 3.84284 10.3996 3.27148 10.7822" stroke="#028789" stroke-width="1.05903"/>
<circle cx="15.12" cy="8.14388" r="3.53011" stroke="#028789" stroke-width="1.05903"/>
<path d="M1 3.20178V16.6162C1 17.0061 1.3161 17.3222 1.70602 17.3222H20.0626" stroke="#028789" stroke-width="1.05903"/>
</svg>
