<svg width="68" height="60" viewBox="0 0 68 60" fill="none" xmlns="http://www.w3.org/2000/svg">
<g style="mix-blend-mode:multiply">
<rect x="7.5161" y="0.357895" width="60.1263" height="56.5474" rx="4.65263" stroke="#005555" stroke-width="0.715789"/>
</g>
<g style="mix-blend-mode:multiply">
<rect y="2.14746" width="60.8421" height="57.2632" rx="5.01053" fill="#005555" fill-opacity="0.13"/>
</g>
<path d="M42.2653 31.1893C43.6741 32.2119 44.3786 33.6889 44.3786 35.6204C44.3786 37.5519 43.6287 39.1312 42.1289 40.3583C40.6519 41.5626 38.6409 42.2557 36.0959 42.4375V45.8119H33.5395V42.4034C31.8807 42.2443 30.3014 41.8353 28.8016 41.1763C27.3246 40.5173 26.0748 39.6652 25.0522 38.6199L26.552 36.6771C27.4382 37.6769 28.6426 38.4836 30.165 39.0971C31.7102 39.7106 33.2895 40.0174 34.9029 40.0174C36.9934 40.0174 38.6522 39.6311 39.8793 38.8585C41.1064 38.0632 41.7199 37.0066 41.7199 35.6886C41.7199 34.4615 41.1859 33.5185 40.1179 32.8595C39.0726 32.1778 37.2434 31.6097 34.6302 31.1553C31.4035 30.6326 29.0857 29.8373 27.6768 28.7693C26.2907 27.7013 25.5976 26.1902 25.5976 24.236C25.5976 22.4635 26.3134 20.9979 27.745 19.839C29.1993 18.6573 31.1081 17.9756 33.4713 17.7939V14.5898H36.0277V17.8279C38.8454 18.1006 41.2654 19.1459 43.2878 20.9638L41.8563 22.8385C39.9248 21.0433 37.5274 20.1457 34.6643 20.1457C32.7328 20.1457 31.1762 20.532 29.9946 21.3046C28.813 22.0545 28.2222 23.043 28.2222 24.27C28.2222 25.4517 28.7221 26.3833 29.7219 27.065C30.7445 27.724 32.4828 28.2807 34.937 28.7352C38.4136 29.326 40.8564 30.1441 42.2653 31.1893Z" fill="#005555"/>
</svg>
