<svg width="45" height="45" viewBox="0 0 45 45" fill="none" xmlns="http://www.w3.org/2000/svg">
<rect width="45" height="45" rx="11" fill="#F8B400" fill-opacity="0.26"/>
<path d="M38.999 6.91588C38.9669 6.83372 38.9309 6.75256 38.9048 6.6684C38.5922 5.67245 37.7285 5.00615 36.6855 5.00514C31.7528 4.99913 26.8202 4.99712 21.8865 5.00614C20.603 5.00915 19.598 6.03315 19.589 7.32267C19.577 9.00897 19.586 10.6953 19.586 12.3806C19.586 12.5038 19.586 12.6271 19.586 12.7804C17.7635 12.8495 15.9499 12.6621 14.1644 13.0739C12.3849 13.4847 10.8569 14.4486 9.19469 15.2772C9.19469 14.9817 9.2007 14.7282 9.19369 14.4747C9.18066 14.0218 8.91815 13.7543 8.46326 13.7513C7.22183 13.7452 5.9794 13.7452 4.73797 13.7513C4.26805 13.7533 4.00253 14.0258 4.00253 14.5047C3.99952 18.3783 3.99952 22.2519 4.00253 26.1245C4.00253 26.5944 4.27707 26.8679 4.74899 26.8699C5.9794 26.8759 7.20981 26.8759 8.44021 26.8699C8.92516 26.8679 9.13657 26.6395 9.22475 26.0313C11.6405 27.0523 14.0612 27.0713 16.5391 26.0253C16.5391 26.3729 16.53 26.6735 16.5411 26.9731C16.5551 27.3589 16.533 27.7567 16.6172 28.1274C16.8897 29.3187 18.061 30.0201 19.2574 29.7486C19.3556 29.7265 19.4538 29.7025 19.584 29.6724C19.584 29.8157 19.584 29.9389 19.584 30.0622C19.584 32.512 19.584 34.9607 19.584 37.4105C19.584 38.7852 20.1331 39.5337 21.4487 39.9545C21.4677 39.9605 21.4817 39.9836 21.4978 39.9986C26.6949 40.0006 31.8901 40.0006 37.0853 40.0006C37.5812 39.8323 38.0882 39.6539 38.3988 39.2111C38.6413 38.8654 38.8016 38.4636 38.999 38.0869C38.999 33.8486 38.999 29.6103 38.999 25.372C38.983 25.356 38.9639 25.3429 38.9519 25.3239C38.7315 24.9602 38.469 24.8249 38.1453 24.9081C37.8137 24.9932 37.6343 25.2648 37.6323 25.6966C37.6293 26.2998 37.6313 26.904 37.6313 27.5072C37.6313 29.6143 37.6313 31.7214 37.6313 33.8285C37.6313 33.9518 37.6313 34.075 37.6313 34.2013C35.1685 34.6892 33.6986 36.1441 33.2067 38.6119C30.6056 38.6119 27.9925 38.6119 25.3824 38.6119C24.8904 36.1641 23.4366 34.6932 20.9717 34.2093C20.9717 31.1894 20.9717 28.1645 20.9717 25.0985C21.4968 25.0985 22.0168 25.0985 22.5368 25.0985C23.0378 25.0985 23.5398 25.1085 24.0397 25.0934C24.2481 25.0874 24.3564 25.1596 24.4676 25.3379C25.6018 27.1695 27.256 28.1083 29.4092 28.0993C32.2318 28.0873 34.5763 25.879 34.8799 22.9943C35.1655 20.271 33.2237 17.6148 30.5214 17.0337C28.1037 16.5137 25.7461 17.5387 24.4555 19.6628C24.3944 19.763 24.2692 19.8923 24.172 19.8933C23.1149 19.9103 22.0569 19.9033 20.9767 19.9033C20.9767 16.8593 20.9767 13.8354 20.9767 10.7774C22.0979 10.6101 23.0919 10.1462 23.9055 9.33161C24.712 8.52403 25.189 7.54812 25.3563 6.39486C27.9714 6.39486 30.5845 6.39486 33.2057 6.39486C33.6906 8.82762 35.1405 10.3045 37.6333 10.7985C37.6333 10.9127 37.6333 11.045 37.6333 11.1782C37.6333 13.8885 37.6313 16.5998 37.6343 19.3101C37.6353 19.9183 38.1523 20.286 38.6283 20.0115C38.7766 19.9263 38.8768 19.759 39 19.6298C38.999 15.3925 38.999 11.1542 38.999 6.91588ZM19.572 16.6249C19.1973 16.6249 18.8556 16.6068 18.5169 16.6279C17.528 16.691 16.8136 17.177 16.4409 18.0978C15.8277 19.6117 16.9358 21.2529 18.5841 21.266C20.5539 21.283 22.5248 21.2599 24.4946 21.282C24.7832 21.285 25.1048 21.3912 25.3483 21.5475C25.7841 21.8271 25.9264 22.3972 25.7631 22.8851C25.5898 23.4021 25.1429 23.7278 24.5648 23.7288C22.6971 23.7338 20.8284 23.7588 18.9618 23.7168C18.1783 23.6987 17.52 23.8881 16.8477 24.2929C14.454 25.7357 11.9731 25.8098 9.44518 24.6235C9.2488 24.5313 9.18968 24.4211 9.19068 24.2107C9.19769 21.8421 9.1987 19.4724 9.18968 17.1038C9.18868 16.8894 9.26182 16.7822 9.44718 16.687C10.3489 16.2261 11.2417 15.7492 12.1405 15.2832C13.0863 14.7933 14.0752 14.3865 15.1383 14.3033C16.4629 14.1991 17.7965 14.2021 19.1261 14.1611C19.2704 14.156 19.4147 14.1601 19.571 14.1601C19.572 14.9937 19.572 15.7872 19.572 16.6249ZM25.7781 20.1618C26.737 18.6158 28.754 17.9004 30.5475 18.4575C32.4041 19.0346 33.6175 20.782 33.5263 22.7509C33.4401 24.6085 32.0213 26.2557 30.1667 26.6515C28.4764 27.0122 26.4805 26.1846 25.7982 24.8379C27.6869 23.7358 27.6338 21.2319 25.7781 20.1618ZM5.38924 25.4982C5.38924 22.0234 5.38924 18.5817 5.38924 15.143C6.21185 15.143 7.01242 15.143 7.79996 15.143C7.79996 18.6108 7.79996 22.0535 7.79996 25.4982C6.98737 25.4982 6.20384 25.4982 5.38924 25.4982ZM20.9577 9.36668C20.9577 8.64727 20.9427 7.95391 20.9627 7.26055C20.9757 6.81769 21.3094 6.41991 21.7432 6.39586C22.4757 6.35578 23.2121 6.38484 23.9496 6.38484C23.7832 7.83367 22.4186 9.19835 20.9577 9.36668ZM37.6273 35.6371C37.6273 36.3555 37.6423 37.0498 37.6223 37.7432C37.6093 38.1841 37.2736 38.5838 36.8418 38.6069C36.1093 38.647 35.3739 38.6179 34.6365 38.6179C34.8048 37.1661 36.1695 35.8024 37.6273 35.6371ZM20.9567 35.6361C22.7793 35.8775 23.9255 37.6089 23.9235 38.6299C23.2301 38.6299 22.5358 38.647 21.8424 38.6239C21.3615 38.6079 20.9777 38.2241 20.9617 37.7422C20.9407 37.0478 20.9567 36.3535 20.9567 35.6361ZM37.6203 9.36166C36.1955 9.23141 34.6826 7.70743 34.6515 6.37282C35.3449 6.37282 36.0392 6.35779 36.7326 6.37783C37.1895 6.39085 37.5882 6.73753 37.6103 7.18441C37.6464 7.90782 37.6203 8.63524 37.6203 9.36166ZM19.586 25.0995C19.586 25.9241 19.588 26.6976 19.585 27.4711C19.583 28.0562 19.2584 28.437 18.7624 28.445C18.2624 28.453 17.9198 28.0843 17.9097 27.4992C17.8987 26.8389 17.9158 26.1776 17.9017 25.5173C17.8957 25.2307 18.055 25.1165 18.2895 25.1055C18.7083 25.0854 19.1281 25.0995 19.586 25.0995ZM19.572 19.8983C19.1993 19.8983 18.8586 19.9173 18.5199 19.8943C18.021 19.8602 17.6572 19.4584 17.6472 18.9675C17.6372 18.4755 17.9849 18.0487 18.4779 18.0046C18.8356 17.9725 19.1983 17.9986 19.572 17.9986C19.572 18.6388 19.572 19.249 19.572 19.8983Z" fill="#6A500C"/>
<path d="M38.999 22.2963C38.9609 22.2422 38.9239 22.1871 38.8848 22.134C38.6914 21.8695 38.4359 21.7522 38.1173 21.8554C37.8037 21.9566 37.6313 22.1881 37.6383 22.5177C37.6453 22.8323 37.8177 23.0518 38.1173 23.147C38.4369 23.2481 38.6914 23.1329 38.8858 22.8684C38.9249 22.8153 38.9619 22.7602 39 22.7061C38.999 22.5698 38.999 22.4336 38.999 22.2963Z" fill="#6A500C"/>
<path d="M29.3022 10.3357C28.0948 10.3317 27.1059 11.3156 27.1059 12.521C27.1059 13.7263 28.0938 14.7113 29.3002 14.7082C30.4925 14.7052 31.4715 13.7303 31.4785 12.54C31.4865 11.3306 30.5086 10.3397 29.3022 10.3357ZM29.2972 13.3396C28.8493 13.3426 28.4726 12.9658 28.4746 12.518C28.4766 12.0831 28.8363 11.7164 29.2711 11.7044C29.718 11.6923 30.1028 12.0601 30.1098 12.5089C30.1178 12.9568 29.7461 13.3366 29.2972 13.3396Z" fill="#6A500C"/>
<path d="M27.1063 32.493C27.1113 33.6964 28.1053 34.6763 29.3136 34.6673C30.517 34.6583 31.4919 33.6613 31.4799 32.452C31.4678 31.2626 30.4839 30.2937 29.2906 30.2947C28.0852 30.2957 27.1013 31.2857 27.1063 32.493ZM30.1112 32.481C30.1112 32.9289 29.7335 33.3036 29.2856 33.2996C28.8507 33.2946 28.485 32.9329 28.476 32.4991C28.466 32.0522 28.8367 31.6694 29.2856 31.6644C29.7335 31.6584 30.1102 32.0321 30.1112 32.481Z" fill="#6A500C"/>
</svg>
