<svg width="161" height="162" viewBox="0 0 161 162" fill="none" xmlns="http://www.w3.org/2000/svg">
<circle cx="80.5" cy="78.5" r="70.4375" fill="#F8B400" fill-opacity="0.17"/>
<g filter="url(#filter0_d_2698_8097)">
<circle cx="80.5002" cy="78.5" r="60.0451" fill="white" fill-opacity="0.57" shape-rendering="crispEdges"/>
</g>
<path fill-rule="evenodd" clip-rule="evenodd" d="M80.5001 118.638C102.668 118.638 120.638 100.667 120.638 78.4999C120.638 56.3324 102.668 38.3621 80.5001 38.3621C58.3326 38.3621 40.3623 56.3324 40.3623 78.4999C40.3623 100.667 58.3326 118.638 80.5001 118.638ZM97.0829 80.7592C98.8221 79.7551 98.8221 77.2448 97.0829 76.2407L74.1654 63.0093C72.4262 62.0051 70.2522 63.2603 70.2522 65.2685L70.2522 91.7314C70.2522 93.7396 72.4262 94.9948 74.1654 93.9907L97.0829 80.7592Z" fill="#F8B400"/>
<circle cx="80.5002" cy="78.5" r="50.8074" stroke="white" stroke-width="1.3044"/>
<defs>
<filter id="filter0_d_2698_8097" x="0.236906" y="0.84558" width="160.527" height="160.527" filterUnits="userSpaceOnUse" color-interpolation-filters="sRGB">
<feFlood flood-opacity="0" result="BackgroundImageFix"/>
<feColorMatrix in="SourceAlpha" type="matrix" values="0 0 0 0 0 0 0 0 0 0 0 0 0 0 0 0 0 0 127 0" result="hardAlpha"/>
<feOffset dy="2.6088"/>
<feGaussianBlur stdDeviation="10.1091"/>
<feComposite in2="hardAlpha" operator="out"/>
<feColorMatrix type="matrix" values="0 0 0 0 0.972549 0 0 0 0 0.705882 0 0 0 0 0 0 0 0 0.13 0"/>
<feBlend mode="normal" in2="BackgroundImageFix" result="effect1_dropShadow_2698_8097"/>
<feBlend mode="normal" in="SourceGraphic" in2="effect1_dropShadow_2698_8097" result="shape"/>
</filter>
</defs>
</svg>
