<svg width="65" height="65" viewBox="0 0 65 65" fill="none" xmlns="http://www.w3.org/2000/svg">
<rect width="65" height="65" rx="11" fill="#F8B400" fill-opacity="0.2"/>
<path d="M16.7375 11C27.8681 11 38.9988 11 50.1294 11C50.6807 11.1059 51.0802 11.3875 51.3658 11.8938C53.9026 16.3841 56.4533 20.8653 59 25.3495C59 25.6821 59 26.0136 59 26.3462C58.976 26.4061 58.9371 26.4641 58.9291 26.526C58.5696 29.0737 57.2493 30.9503 54.9752 32.1447C54.6736 32.3025 54.6067 32.4903 54.6067 32.8039C54.6147 39.8598 54.6137 46.9157 54.6127 53.9706C54.6127 55.1391 54.1582 55.5985 52.9917 55.5985C39.9895 55.5995 26.9863 55.5995 13.9841 55.5985C12.7866 55.5985 12.3492 55.1521 12.3492 53.9396C12.3492 46.9007 12.3462 39.8618 12.3581 32.8219C12.3591 32.4543 12.2423 32.2736 11.9207 32.1028C9.80944 30.9812 8.54207 29.2235 8.08067 26.8855C7.90589 26.0007 8.00376 25.1967 8.48614 24.3668C10.8441 20.308 13.1451 16.2173 15.4492 12.1285C15.7558 11.5842 16.1123 11.1528 16.7375 11ZM19.2782 53.0777C19.2782 52.8241 19.2782 52.6123 19.2782 52.4016C19.2782 48.251 19.2732 44.0993 19.2802 39.9487C19.2852 37.1023 21.0799 35.3146 23.9132 35.3116C24.9599 35.3106 26.0095 35.2577 27.0512 35.3306C27.7323 35.3776 28.4574 35.4894 29.0646 35.778C30.7245 36.567 31.4845 37.9812 31.4885 39.7969C31.4975 44.0144 31.4915 48.232 31.4915 52.4495C31.4915 52.6443 31.4915 52.839 31.4915 53.0438C38.3896 53.0438 45.2348 53.0438 52.0829 53.0438C52.0829 46.3344 52.0829 39.668 52.0829 32.9597C49.3624 33.0116 47.2142 31.931 45.6083 29.7508C44.0842 31.8102 42.0998 32.9377 39.5631 32.9437C37.0144 32.9487 35.0229 31.8022 33.5069 29.7778C30.5167 34.0193 24.2778 33.9754 21.3396 29.7718C19.7386 31.947 17.5824 33.0136 14.8779 32.9607C14.8779 39.692 14.8779 46.3734 14.8779 53.0787C16.334 53.0777 17.7582 53.0777 19.2782 53.0777ZM11.6481 23.9473C26.2363 23.9473 40.7525 23.9473 55.3237 23.9473C55.2159 23.7506 55.141 23.6067 55.0601 23.4659C53.2654 20.309 51.4637 17.1541 49.682 13.9901C49.5032 13.6726 49.3095 13.5607 48.946 13.5607C38.6333 13.5707 28.3206 13.5707 18.0079 13.5607C17.6423 13.5607 17.4516 13.6775 17.2738 13.9931C15.4841 17.172 13.6774 20.342 11.8758 23.5149C11.8039 23.6407 11.7399 23.7715 11.6481 23.9473ZM28.9707 53.0568C28.9807 52.9399 28.9967 52.844 28.9967 52.7482C28.9977 48.3848 29.0027 44.0224 28.9937 39.659C28.9917 38.5595 28.2467 37.8264 27.1411 37.8104C26.0795 37.7954 25.0168 37.8064 23.9552 37.8064C22.4501 37.8074 21.803 38.4516 21.803 39.9537C21.802 44.1343 21.803 48.3149 21.803 52.4955C21.803 52.6733 21.803 52.851 21.803 53.0568C24.2199 53.0568 26.5828 53.0568 28.9707 53.0568ZM19.9963 26.525C16.8404 26.525 13.7214 26.525 10.5954 26.525C11.0139 28.803 12.9334 30.409 15.2304 30.4379C17.5475 30.4679 19.5039 28.8799 19.9963 26.525ZM22.7398 26.51C23.0414 28.85 25.3324 30.5957 27.8072 30.423C30.299 30.2492 32.0318 28.071 32.0607 26.51C28.9647 26.51 25.8687 26.51 22.7398 26.51ZM34.9001 26.518C35.0309 28.3386 36.9994 30.5168 39.6989 30.4389C42.3784 30.361 44.1711 28.066 44.1951 26.518C41.0971 26.518 37.9991 26.518 34.9001 26.518ZM47.0195 26.531C47.1912 28.6313 49.3465 30.4359 51.6625 30.4459C53.9795 30.4569 56.1617 28.6432 56.3514 26.531C53.2404 26.531 50.1304 26.531 47.0195 26.531Z" fill="#6A500C"/>
<path d="M40.7286 47.4967C39.6489 47.4967 38.5693 47.5057 37.4907 47.4947C35.2966 47.4727 33.8794 46.0686 33.8594 43.8804C33.8444 42.2205 33.8414 40.5597 33.8604 38.8998C33.8844 36.7446 35.3235 35.3204 37.4718 35.3114C39.6639 35.3024 41.8561 35.3024 44.0483 35.3114C46.1945 35.3204 47.6346 36.7536 47.6546 38.9058C47.6696 40.5657 47.6686 42.2265 47.6546 43.8864C47.6366 46.0496 46.2295 47.4638 44.0673 47.4927C42.9537 47.5097 41.8411 47.4967 40.7286 47.4967ZM40.7435 44.9939C41.8381 44.9939 42.9337 44.9989 44.0283 44.9919C44.8123 44.987 45.1519 44.6504 45.1548 43.8694C45.1608 42.2275 45.1608 40.5856 45.1548 38.9437C45.1519 38.1647 44.8053 37.8132 44.0323 37.8102C41.8591 37.8032 39.6859 37.8042 37.5127 37.8092C36.7067 37.8112 36.3662 38.1568 36.3632 38.9657C36.3582 40.5906 36.3582 42.2165 36.3632 43.8424C36.3662 44.6614 36.6918 44.988 37.5097 44.9929C38.5863 44.9979 39.6649 44.9939 40.7435 44.9939Z" fill="#6A500C"/>
</svg>
