<svg width="58" height="50" viewBox="0 0 58 50" fill="none" xmlns="http://www.w3.org/2000/svg">
<g style="mix-blend-mode:multiply">
<rect x="6.32513" y="0.301205" width="50.6024" height="47.5904" rx="3.91566" stroke="#005555" stroke-width="0.60241"/>
</g>
<g style="mix-blend-mode:multiply">
<rect y="1.80713" width="51.2048" height="48.1928" rx="4.21687" fill="#1BA230" fill-opacity="0.09"/>
</g>
<path fill-rule="evenodd" clip-rule="evenodd" d="M51.2048 24.0968C51.2048 35.076 42.3045 43.9763 31.3253 43.9763C24.6074 43.9763 18.6677 40.644 15.0691 35.5422H21.6866C23.3501 35.5422 24.6987 34.1937 24.6987 32.5302C24.6987 30.8667 23.3501 29.5181 21.6866 29.5181H12.194C11.7066 27.7947 11.4458 25.9762 11.4458 24.0968C11.4458 13.1176 20.3462 4.21729 31.3253 4.21729C38.8071 4.21729 45.3236 8.35044 48.7159 14.458H39.1565C37.493 14.458 36.1445 15.8066 36.1445 17.4701C36.1445 19.1336 37.493 20.4821 39.1565 20.4821H50.877C51.0923 21.6543 51.2048 22.8624 51.2048 24.0968Z" fill="#08554E"/>
</svg>
