<svg width="47" height="45" viewBox="0 0 47 45" fill="none" xmlns="http://www.w3.org/2000/svg">
<rect x="2" width="45" height="45" rx="11" fill="#F8B400" fill-opacity="0.26"/>
<path d="M40.8482 23.4297C40.6823 24.3973 40.5728 25.3782 40.3413 26.3294C38.8761 32.3674 33.7269 36.9719 27.5619 37.8371C24.3479 38.2887 21.2997 37.8003 18.3907 36.3842C17.8399 36.1159 17.6423 35.6951 17.8481 35.2456C18.0662 34.7695 18.5208 34.6497 19.1013 34.9169C19.2252 34.9743 19.346 35.0347 19.4699 35.092C21.0447 35.819 22.6942 36.2491 24.5076 36.3412C24.5076 35.8548 24.5035 35.3859 24.5086 34.918C24.5158 34.3139 24.8219 33.9504 25.3165 33.9453C25.812 33.9401 26.1315 34.3067 26.1407 34.9026C26.1469 35.3593 26.1417 35.8159 26.1417 36.2675C28.3124 36.5347 32.9538 34.6323 34.5388 32.8138C34.1835 32.479 33.8139 32.1524 33.4709 31.7991C33.1002 31.4172 33.0859 30.9513 33.4013 30.6165C33.732 30.2663 34.2245 30.2674 34.6218 30.6513C34.9761 30.9933 35.3037 31.3629 35.6385 31.7162C37.4416 30.1834 39.1198 26.1594 39.1372 23.3283C38.6703 23.3283 38.2024 23.3334 37.7334 23.3273C37.1314 23.3191 36.7679 23.0078 36.7669 22.5123C36.7659 22.0146 37.1283 21.7044 37.7314 21.6972C38.187 21.6911 38.6437 21.6962 39.1587 21.6962C38.9417 18.4873 37.799 15.7288 35.701 13.2796C35.3559 13.6319 35.0416 13.9595 34.7191 14.278C34.2614 14.7295 33.7842 14.7828 33.4228 14.4305C33.0583 14.0763 33.1043 13.5899 33.5477 13.1363C33.8446 12.8322 34.1467 12.5332 34.4457 12.2301C34.4682 12.2076 34.4805 12.1738 34.5184 12.1083C32.1327 10.0318 29.3589 8.90959 26.1377 8.67819C26.1377 9.15021 26.1397 9.5864 26.1377 10.0236C26.1336 10.7035 25.8295 11.0875 25.3073 11.0772C24.8004 11.068 24.5107 10.6963 24.5045 10.0472C24.5004 9.63964 24.5004 9.2311 24.4953 8.82359C24.4953 8.79287 24.4728 8.76215 24.4441 8.6915C22.811 8.76625 21.2434 9.15533 19.7362 9.80757C19.5181 9.90177 19.3051 10.0093 19.089 10.1086C18.5372 10.3646 18.0907 10.2571 17.8624 9.81371C17.6341 9.37035 17.8122 8.92188 18.3498 8.65259C19.8037 7.92459 21.3365 7.43721 22.9461 7.19966C23.3977 7.13311 23.8482 7.06655 24.2997 7C24.9468 7 25.594 7 26.24 7C26.3885 7.02969 26.5349 7.07577 26.6844 7.08806C33.4084 7.6338 39.042 12.5639 40.4376 19.1436C40.6096 19.9525 40.711 20.7767 40.8451 21.5938C40.8482 22.2051 40.8482 22.8174 40.8482 23.4297Z" fill="#6A500C"/>
<path d="M25.3349 25.7406C24.9386 25.6577 24.5188 25.6311 24.1523 25.4765C23.7632 25.3126 23.5205 25.3997 23.284 25.7007C23.1908 25.8195 23.0751 25.926 22.9543 26.0181C22.5969 26.2925 22.1321 26.2659 21.8485 25.9475C21.5464 25.6075 21.4911 25.1601 21.8239 24.8949C22.4198 24.4198 22.3676 23.959 22.1741 23.2935C21.8341 22.1242 22.1116 21.0153 23.0454 20.1787C24.0243 19.3023 25.1977 19.1077 26.4274 19.5214C26.8779 19.6729 27.1195 19.5818 27.4257 19.2675C28.5991 18.0613 29.7961 16.8787 30.991 15.694C31.4282 15.2609 31.9422 15.2414 32.2842 15.6254C32.5954 15.9756 32.5545 16.4363 32.148 16.8459C30.9377 18.0633 29.7275 19.2818 28.5008 20.4818C28.2479 20.7286 28.2028 20.9088 28.3452 21.2559C29.2472 23.4614 27.7349 25.6771 25.3349 25.7406ZM25.3123 24.0522C26.3127 24.0563 26.9567 23.4522 26.9557 22.5102C26.9547 21.5876 26.327 20.9825 25.3594 20.9702C24.3519 20.9579 23.7007 21.5487 23.6905 22.4856C23.6802 23.4276 24.3232 24.0491 25.3123 24.0522Z" fill="#6A500C"/>
<path d="M8.96556 23.3283C6.37813 23.3283 3.79071 23.3283 1.20329 23.3283C1.0497 23.3283 0.895089 23.3375 0.744574 23.3201C0.299173 23.2679 -0.0223356 22.9187 0.00121439 22.4969C0.0257883 22.0454 0.283814 21.7832 0.72512 21.7054C0.840822 21.6849 0.962667 21.6962 1.08144 21.6962C6.34127 21.6962 11.6011 21.6962 16.8609 21.6962C16.9971 21.6962 17.1374 21.6829 17.2685 21.7105C17.7067 21.8017 17.9647 22.0761 17.9596 22.5276C17.9545 22.9546 17.7005 23.2208 17.2879 23.3099C17.1241 23.3447 16.949 23.3283 16.779 23.3283C14.1742 23.3283 11.5704 23.3283 8.96556 23.3283Z" fill="#6A500C"/>
<path d="M11.9994 16.7968C14.0564 16.7968 16.1135 16.7927 18.1695 16.7999C18.7142 16.8019 19.0838 17.1583 19.0736 17.6272C19.0633 18.0788 18.707 18.4023 18.1899 18.4279C18.1562 18.43 18.1224 18.4289 18.0876 18.4289C14.0247 18.4289 9.9618 18.43 5.89994 18.4279C5.26512 18.4279 4.89036 18.1084 4.89958 17.5975C4.90982 17.0907 5.27945 16.7978 5.92964 16.7978C7.95391 16.7948 9.97716 16.7968 11.9994 16.7968Z" fill="#6A500C"/>
<path d="M11.9952 26.5936C14.0349 26.5936 16.0755 26.5762 18.1141 26.613C18.4018 26.6182 18.7674 26.8219 18.9435 27.0513C19.0715 27.2171 19.0428 27.6482 18.9077 27.8325C18.7561 28.0393 18.407 28.2083 18.1428 28.2103C14.0287 28.2329 9.91566 28.2288 5.80159 28.2237C5.24663 28.2226 4.89235 27.8796 4.89952 27.3994C4.90669 26.9202 5.25994 26.5987 5.82411 26.5967C7.88217 26.5905 9.93819 26.5936 11.9952 26.5936Z" fill="#6A500C"/>
<path d="M15.0431 11.8974C16.4367 11.8974 17.8292 11.8953 19.2227 11.8984C19.8811 11.8994 20.2303 12.1851 20.2323 12.7094C20.2344 13.2377 19.8873 13.5285 19.2309 13.5295C16.4275 13.5326 13.625 13.5316 10.8215 13.5295C10.1785 13.5285 9.80582 13.2264 9.80275 12.7176C9.79968 12.2076 10.1724 11.9005 10.8134 11.8984C12.2233 11.8953 13.6332 11.8974 15.0431 11.8974Z" fill="#6A500C"/>
<path d="M15.0375 33.1251C13.6276 33.1251 12.2177 33.1282 10.8077 33.1241C10.1709 33.122 9.79713 32.8087 9.8043 32.2978C9.81147 31.7909 10.1821 31.494 10.8292 31.493C13.6327 31.4909 16.4352 31.4909 19.2386 31.493C19.8909 31.494 20.239 31.7899 20.2339 32.3183C20.2277 32.8394 19.8775 33.122 19.2181 33.1241C17.8236 33.1272 16.4311 33.1251 15.0375 33.1251Z" fill="#6A500C"/>
</svg>
