<svg width="26" height="26" viewBox="0 0 26 26" fill="none" xmlns="http://www.w3.org/2000/svg">
<path fill-rule="evenodd" clip-rule="evenodd" d="M12.9538 0.601849C6.07707 0.601849 0.502365 6.17655 0.502364 13.0533C0.502364 19.9301 6.07707 25.5048 12.9538 25.5048C19.8306 25.5048 25.4053 19.9301 25.4053 13.0533C25.4053 6.17656 19.8306 0.60185 12.9538 0.601849ZM20.6374 12.3736L14.521 6.2572C14.1457 5.88187 13.5372 5.88187 13.1618 6.2572C12.7865 6.63253 12.7865 7.24106 13.1618 7.61639L17.6375 12.0921L6.72815 12.0921L6.72815 14.0143L17.6375 14.0143L13.1618 18.49C12.7865 18.8653 12.7865 19.4738 13.1618 19.8492C13.5372 20.2245 14.1457 20.2245 14.521 19.8492L20.6374 13.7328C21.0128 13.3574 21.0128 12.7489 20.6374 12.3736Z" fill="#F8B400"/>
</svg>
