<svg width="45" height="45" viewBox="0 0 45 45" fill="none" xmlns="http://www.w3.org/2000/svg">
<rect width="45" height="45" rx="11" fill="#F8B400" fill-opacity="0.26"/>
<path d="M7 22.8575C7.17784 22.4283 7.50282 22.2869 7.95829 22.2926C9.40469 22.3099 10.8517 22.2984 12.2988 22.2997C13.2436 22.3003 13.7528 22.7321 13.8539 23.6648C13.9563 24.6135 14.1821 25.5232 14.5717 26.3958C14.7649 26.8282 14.6318 27.1654 14.2038 27.372C13.6306 27.6483 13.0511 27.9119 12.4357 28.1985C13.4701 30.0677 14.903 31.4981 16.7844 32.5524C17.0109 32.0713 17.2252 31.6152 17.4401 31.1585C17.5124 31.0049 17.577 30.8463 17.6608 30.6991C17.8444 30.3748 18.1643 30.2366 18.5001 30.385C19.4827 30.82 20.5089 31.0548 21.5753 31.1668C22.1945 31.232 22.6704 31.795 22.6788 32.4654C22.6986 34.0608 22.6864 35.6569 22.6858 37.253C22.6858 37.6368 22.4433 37.8403 22.1292 37.988C21.9162 37.988 21.7038 37.988 21.4908 37.988C21.3865 37.9714 21.2829 37.9458 21.178 37.9401C18.5001 37.7891 16.0264 36.9958 13.7989 35.5047C10.2331 33.1147 8.04209 29.8003 7.25525 25.5763C7.13114 24.911 7.08316 24.2323 7 23.5599C7 23.3258 7 23.0917 7 22.8575ZM12.4248 23.6943C11.1121 23.6943 9.76804 23.6943 8.42336 23.6943C8.70676 30.971 14.9676 36.4406 21.2951 36.5442C21.2951 35.1989 21.2951 33.8536 21.2951 32.5601C20.3771 32.356 19.4891 32.159 18.5718 31.9549C18.3191 32.4967 18.053 33.0738 17.7811 33.6482C17.5393 34.1587 17.1983 34.279 16.6917 34.0301C14.1303 32.7725 12.2175 30.8635 10.9598 28.3021C10.7078 27.7891 10.8229 27.4526 11.3321 27.2101C11.8401 26.9677 12.3525 26.7342 12.8617 26.4949C12.9346 26.4604 13.0018 26.4143 13.0255 26.4009C12.822 25.4855 12.6269 24.6071 12.4248 23.6943Z" fill="#6A500C"/>
<path d="M31.1351 33.0802C30.6809 32.6272 30.2401 32.1974 29.8128 31.754C29.6983 31.6357 29.5902 31.4892 29.5397 31.3363C29.445 31.0478 29.5832 30.7452 29.8333 30.5923C30.0873 30.4375 30.4212 30.4625 30.6579 30.6876C31.066 31.0759 31.4588 31.4809 31.8586 31.8781C31.9328 31.9523 32.0109 32.0221 32.1075 32.1136C34.2358 29.698 35.3937 26.9069 35.6022 23.6706C34.9344 23.6706 34.2998 23.6764 33.6652 23.6687C33.2219 23.6629 32.9391 23.4237 32.9084 23.052C32.8732 22.6247 33.1566 22.315 33.6262 22.3023C34.1578 22.2882 34.69 22.2984 35.2216 22.2984C35.3361 22.2984 35.45 22.2984 35.6029 22.2984C35.4014 19.0653 34.239 16.2787 32.0896 13.8452C31.6437 14.2962 31.2234 14.7306 30.7922 15.1528C30.6739 15.2686 30.5331 15.3825 30.3815 15.4407C30.1039 15.5469 29.7853 15.4189 29.6235 15.179C29.4514 14.9238 29.4718 14.5719 29.7047 14.3276C30.086 13.9271 30.4832 13.542 30.8735 13.1499C30.9541 13.0686 31.0308 12.9835 31.1089 12.9004C28.8283 10.726 25.5229 9.48365 22.6883 9.40113C22.6883 9.60904 22.6883 9.81631 22.6883 10.0236C22.6883 10.3959 22.6883 10.7682 22.6883 11.1405C22.6877 11.7694 22.4542 12.0847 21.9936 12.0803C21.5445 12.0758 21.3168 11.7655 21.3161 11.1559C21.3155 10.5827 21.3161 10.0089 21.3161 9.44015C19.4801 9.05505 15.0476 10.8654 12.8687 12.8991C13.2135 13.2394 13.5589 13.5791 13.9025 13.9201C14.0381 14.0551 14.1788 14.1862 14.3042 14.3308C14.5601 14.625 14.5505 15.0255 14.2933 15.2807C14.0362 15.5354 13.6287 15.5488 13.3446 15.2807C12.9346 14.8937 12.5437 14.4875 12.1439 14.0902C12.0697 14.0167 11.991 13.9469 11.9002 13.8619C10.9815 14.8732 10.2241 15.9729 9.681 17.2044C9.36498 17.9208 9.12381 18.6712 8.86024 19.4107C8.71439 19.8195 8.41244 20.0268 8.04397 19.9411C7.62879 19.8445 7.43368 19.4818 7.55715 19.0263C8.05228 17.1999 8.86216 15.5238 10.0066 14.0186C12.2706 11.0407 15.228 9.09663 18.8916 8.34624C23.6652 7.36876 27.9724 8.46331 31.7057 11.5998C34.516 13.9604 36.1818 17.0067 36.7991 20.6236C37.9679 27.4705 33.9307 34.4939 27.4062 36.9581C26.9303 37.1379 26.4415 37.2869 25.9541 37.4334C25.5338 37.5594 25.1762 37.3765 25.061 37.0016C24.9408 36.6101 25.1429 36.2583 25.5862 36.1342C27.593 35.5712 29.3868 34.6148 30.9585 33.2439C31.004 33.2004 31.0507 33.1569 31.1351 33.0802Z" fill="#6A500C"/>
<path d="M18.6198 25.7138C19.255 25.7138 19.8691 25.7132 20.4833 25.7138C20.7705 25.7138 21.0577 25.7062 21.3443 25.7202C21.7192 25.7388 21.9885 26.0164 21.9981 26.3715C22.0077 26.7227 21.7429 27.0547 21.3808 27.0598C20.2005 27.0758 19.0202 27.0751 17.84 27.0585C17.5035 27.0534 17.2482 26.7802 17.2405 26.4226C17.2252 25.6575 17.1951 24.888 17.261 24.128C17.3531 23.068 18.1797 22.3496 19.2557 22.3029C19.4891 22.2926 19.7239 22.3061 19.9574 22.2952C20.3438 22.2773 20.5843 22.0489 20.6355 21.6657C20.6413 21.6235 20.6413 21.5806 20.6432 21.5384C20.6854 20.4183 20.5306 20.2571 19.4156 20.2571C18.9371 20.2571 18.4586 20.2622 17.9801 20.2551C17.5393 20.2488 17.2431 19.9794 17.2348 19.5937C17.2265 19.1945 17.5329 18.906 17.9858 18.9028C18.6556 18.8977 19.326 18.8919 19.9958 18.9041C21.0955 18.9239 21.9712 19.7997 21.9968 20.9C22.0045 21.2397 22.0224 21.5851 21.9725 21.9184C21.819 22.9483 21.0008 23.638 19.9344 23.6712C19.7009 23.6783 19.4661 23.6667 19.2326 23.6808C18.9179 23.7 18.6447 23.9028 18.6275 24.1926C18.598 24.6852 18.6198 25.1829 18.6198 25.7138Z" fill="#6A500C"/>
<path d="M24.7303 22.2812C25.4263 22.2812 26.0801 22.2812 26.7729 22.2812C26.7729 22.15 26.7729 22.0362 26.7729 21.9223C26.7736 21.1566 26.7678 20.3915 26.7761 19.6257C26.7806 19.1914 27.0678 18.8971 27.4555 18.9009C27.8304 18.9054 28.1253 19.1984 28.1266 19.6072C28.1317 21.8609 28.1323 24.1146 28.1266 26.369C28.1253 26.7758 27.8246 27.0682 27.4497 27.0688C27.0736 27.0695 26.7832 26.7809 26.7774 26.3696C26.7678 25.6045 26.7736 24.8388 26.7729 24.073C26.7729 23.9572 26.7729 23.8421 26.7729 23.6918C26.6399 23.6841 26.5279 23.6726 26.4166 23.6719C25.6726 23.67 24.928 23.6745 24.184 23.67C23.6223 23.6662 23.362 23.409 23.3594 22.8499C23.3549 21.7867 23.3543 20.7235 23.3607 19.6603C23.3626 19.2803 23.5257 19.0455 23.8296 18.9412C24.113 18.844 24.3804 18.908 24.5435 19.1408C24.6567 19.302 24.7169 19.5298 24.7226 19.7306C24.7431 20.4529 24.7309 21.1764 24.7309 21.8993C24.7303 22.0151 24.7303 22.1309 24.7303 22.2812Z" fill="#6A500C"/>
</svg>
